<?xml version="1.0" encoding="utf-8"?>
<!-- Generator: Adobe Illustrator 19.2.1, SVG Export Plug-In . SVG Version: 6.00 Build 0)  -->
<svg version="1.1" id="Layer_1" xmlns="http://www.w3.org/2000/svg" xmlns:xlink="http://www.w3.org/1999/xlink" x="0px" y="0px"
	 viewBox="0 0 193.9 261.2" style="enable-background:new 0 0 193.9 261.2;" xml:space="preserve">
<style type="text/css">
	.st0{fill:#90C246;}
</style>
<g id="XMLID_1_">
	<path id="XMLID_273_" class="st0" d="M0,96.3c0.4-44,29.8-82.1,73-93.2c55.3-14.2,109.7,22,119.2,76.3c4.6,25.8-0.3,49.7-15,71.4
		c-23.9,35.2-47.9,70.2-71.9,105.3c-4.7,6.8-12.5,6.8-17.2,0C64.2,221.1,40.3,186,16.4,151C5.5,134.7,0.2,116.7,0,96.3z M96.9,156
		c32.8,0,59.4-26.4,59.4-59c0.1-32.9-26.3-59.6-59-59.6c-32.9,0-59.5,26.4-59.5,59.1C37.8,129.6,64.1,156,96.9,156z"/>
</g>
</svg>
