<?xml version="1.0" encoding="UTF-8" standalone="no"?>
<svg width="60px" height="60px" viewBox="0 0 60 60" version="1.1" xmlns="http://www.w3.org/2000/svg" xmlns:xlink="http://www.w3.org/1999/xlink">
    <!-- Generator: Sketch 39.1 (31720) - http://www.bohemiancoding.com/sketch -->
    <title>Facebook</title>
    <desc>Created with Sketch.</desc>
    <defs></defs>
    <g id="Page-1" stroke="none" stroke-width="1" fill="none" fill-rule="evenodd">
        <g id="Facebook">
            <path d="M0,30 C0,13.4314567 13.4314567,0 30,0 C46.5685433,0 60,13.4314567 60,30 C60,46.5685433 46.5685433,60 30,60 C13.4314567,60 0,46.5685433 0,30 Z" id="back" fill="#3B5998"></path>
            <path d="M32.1269439,46.6393459 L32.1269439,30.317762 L36.6324148,30.317762 L37.229487,24.6932538 L32.1269439,24.6932538 L32.1345986,21.8781333 C32.1345986,20.411175 32.2739793,19.6251452 34.3809551,19.6251452 L37.1975921,19.6251452 L37.1975921,14 L32.6914833,14 C27.2789219,14 25.3738406,16.7284916 25.3738406,21.3169565 L25.3738406,24.6938908 L22,24.6938908 L22,30.318399 L25.3738406,30.318399 L25.3738406,46.6393459 L32.1269439,46.6393459 Z" id="Shape" fill="#FFFFFF"></path>
        </g>
    </g>
</svg>