<?xml version="1.0" encoding="utf-8"?>
<!-- Generator: Adobe Illustrator 19.2.1, SVG Export Plug-In . SVG Version: 6.00 Build 0)  -->
<svg version="1.1" id="Layer_1" xmlns="http://www.w3.org/2000/svg" xmlns:xlink="http://www.w3.org/1999/xlink" x="0px" y="0px"
	 viewBox="0 0 40 42.1" style="enable-background:new 0 0 40 42.1;" xml:space="preserve">
<style type="text/css">
	.st0{fill:rgb(249, 192, 88); /* @banana */}
</style>
<path id="XMLID_387_" class="st0" d="M9.9,9.6C9.2,8.9,9.6,8.1,9.5,7.4C9.4,7.4,9.3,7.5,9.2,7.5c-0.4,0.4-1,0.4-1.4,0
	C6.6,6.3,5.4,5,4.1,3.8c-0.5-0.5-0.4-1,0-1.5c2.5-2.4,5.6-2.9,8.7-1.5c2.4,1.1,4.2,2.9,5.5,5.1C19,6.9,19.5,8,20,9.1
	c0-0.1,0.1-0.2,0.1-0.3c1.1-2.8,2.7-5.2,5.2-6.9c1.7-1.3,3.7-2,5.9-1.8c1.9,0.2,3.5,1.1,4.8,2.4c0.3,0.4,0.3,0.9,0,1.2
	c-1.3,1.3-2.6,2.6-3.9,3.9c-0.4,0.4-0.9,0.3-1.3,0c-0.1-0.1-0.1-0.1-0.2-0.2c-0.2,0.8,0.2,1.6-0.4,2.2c0.8,0.1,1.6,0.2,2.4,0.3
	c2.4,0.5,4.5,1.6,6,3.6c1,1.4,1.5,3,1.5,4.7c0,0.7-0.5,1.2-1.2,1c-1.7-0.3-3.5-0.6-5.2-1c-0.3-0.1-0.5-0.3-0.7-0.5
	c-0.2-0.3-0.4-0.7-0.6-1.1c-0.1,0.2-0.2,0.4-0.4,0.6c-0.3,0.5-0.7,0.7-1.3,0.6c-2.4-0.5-4.8-1-7.3-1.6c-0.2,0-0.3-0.1-0.5-0.1
	c0,0.1,0,0.3,0,0.4c-0.1,0.5-0.4,0.8-0.9,0.8c-1.4,0-2.7,0-4.1,0c-0.6,0-0.8-0.4-0.9-1.2c-0.9,0.2-1.8,0.4-2.7,0.6
	c-1.7,0.4-3.4,0.7-5.1,1.1c-0.6,0.1-0.9,0-1.3-0.6c-0.1-0.2-0.2-0.4-0.3-0.6c-0.2,0.4-0.4,0.7-0.5,1C7,18,6.6,18.2,6.1,18.3
	c-1.6,0.3-3.2,0.6-4.8,0.9C0.4,19.4,0,18.9,0,17.9c0.2-4.4,3.3-7,6.8-7.9c0.5-0.1,1-0.2,1.5-0.3C8.9,9.6,9.4,9.6,9.9,9.6z"/>
<path id="XMLID_386_" class="st0" d="M20,42.1c-1.2,0-2.4,0-3.6,0c-0.9,0-1.2-0.4-1.1-1.3c0.1-1.1,0.2-2.3,0.3-3.4
	c0-0.7,0.4-1,1.1-1c2.3,0,4.5,0,6.8,0c0.7,0,1.1,0.4,1.1,1c0.1,1.2,0.2,2.4,0.3,3.5c0.1,0.7-0.3,1.2-1,1.2
	C22.5,42.1,21.2,42.1,20,42.1z"/>
<path id="XMLID_385_" class="st0" d="M20,34.5c-1,0-2,0-3,0c-0.8,0-1.1-0.4-1.1-1.1c0-0.6,0.1-1.2,0.1-1.8c0.1-0.5,0.4-0.9,1-0.9
	c2,0,4.1,0,6.1,0c0.6,0,0.9,0.3,1,0.9c0.1,0.6,0.1,1.3,0.1,1.9c0,0.6-0.4,1-1,1C22.1,34.5,21,34.5,20,34.5z"/>
<path id="XMLID_375_" class="st0" d="M20,28.8c-0.9,0-1.8,0-2.7,0c-0.8,0-1.2-0.4-1.1-1.2c0.1-0.5,0.1-1,0.1-1.6c0-0.7,0.4-1,1.1-1
	c1.7,0,3.4,0,5.2,0c0.6,0,1,0.4,1.1,1c0,0.6,0.1,1.2,0.1,1.7c0,0.6-0.4,1.1-1,1.1C21.9,28.8,20.9,28.8,20,28.8z"/>
<path id="XMLID_374_" class="st0" d="M20,23c-0.8,0-1.5,0-2.3,0c-0.7,0-1.1-0.4-1.1-1.1c0-0.6,0.1-1.2,0.1-1.9
	c0-0.5,0.4-0.9,0.9-0.9c1.5,0,3,0,4.5,0c0.5,0,0.9,0.4,0.9,0.9c0.1,0.6,0.1,1.3,0.1,1.9c0,0.6-0.4,1-1,1C21.6,23.1,20.8,23,20,23
	C20,23,20,23,20,23z"/>
</svg>
