<?xml version="1.0" encoding="utf-8"?>
<!-- Generator: Adobe Illustrator 19.2.1, SVG Export Plug-In . SVG Version: 6.00 Build 0)  -->
<svg version="1.1" id="Layer_1" xmlns="http://www.w3.org/2000/svg" xmlns:xlink="http://www.w3.org/1999/xlink" x="0px" y="0px"
	 viewBox="0 0 66.2 67.7" style="enable-background:new 0 0 66.2 67.7;" xml:space="preserve">
<style type="text/css">
	.st0{fill:#F7E859;}
	.st1{fill:#F9C058;}
</style>
<path class="st0" d="M66.2,41.1l-7.8-9.8l5.8-11.1l-12.1-3.3L50.3,4.6L38.6,9l-8.8-9l-6.9,10.5L10.6,8.4l0.6,12.5L0,26.5l7.8,9.8
	L2,47.4l12.1,3.3l1.8,12.4l11.7-4.4l8.8,9l6.9-10.5l12.3,2.1L55,46.8L66.2,41.1z"/>
<path class="st1" d="M33.1,54.1c-11.1,0-20.2-9-20.2-20.2s9-20.2,20.2-20.2s20.2,9,20.2,20.2S44.3,54.1,33.1,54.1z"/>
</svg>
