<?xml version="1.0" encoding="utf-8"?>
<!-- Generator: Adobe Illustrator 19.2.1, SVG Export Plug-In . SVG Version: 6.00 Build 0)  -->
<svg version="1.1" id="Layer_1" xmlns="http://www.w3.org/2000/svg" xmlns:xlink="http://www.w3.org/1999/xlink" x="0px" y="0px"
	 viewBox="0 0 121.1 121.1" style="enable-background:new 0 0 121.1 121.1;" xml:space="preserve">
<style type="text/css">
	.st0{fill:#562A4A;}
	.st1{fill:#FFFFFF;}
</style>
<path id="XMLID_80_" class="st0" d="M60.6,0c33.2,0,60.5,27.3,60.5,60.5c0,33.3-27.4,60.7-60.7,60.6C27.2,121,0,93.6,0,60.5
	C0.1,27.3,27.4,0,60.6,0z"/>
<path id="XMLID_816_" class="st1" d="M60.6,31c11.1,0,22.2,0,33.2,0c1.8,0,3.1,1.3,3.1,3.1c0,17.7,0,35.3,0,53
	c0,1.9-1.3,3.1-3.1,3.1c-22.2,0-44.4,0-66.5,0c-1.7,0-3.1-1.2-3.1-3.1c0-17.7,0-35.4,0-53.1c0-1.8,1.2-3.1,3.1-3.1
	C38.4,31,49.5,31,60.6,31z M87.5,36.4c-17.9,0-35.9,0-53.8,0c9,9,18,18,26.9,26.9C69.6,54.4,78.5,45.4,87.5,36.4z M33.7,84.8
	c18,0,35.9,0,53.8,0c-6.7-6.7-13.4-13.4-20.2-20.2c-1.5,1.5-3,3.1-4.6,4.6c-1.2,1.2-2.8,1.2-4,0s-2.4-2.4-3.6-3.6
	c-0.4-0.4-0.7-0.8-1.1-1.1C47.1,71.3,40.4,78,33.7,84.8z M49.8,60.7C43.1,54,36.3,47.3,29.7,40.6c0,13.3,0,26.8,0,40.2
	C36.4,74,43.2,67.3,49.8,60.7z M91.5,40.4C84.8,47.1,78,53.9,71.4,60.5c6.7,6.7,13.4,13.4,20.1,20.1C91.5,67.3,91.5,53.9,91.5,40.4z
	"/>
</svg>
