<?xml version="1.0" encoding="UTF-8"?>
<svg width="25px" height="24px" viewBox="0 0 25 24" version="1.1" xmlns="http://www.w3.org/2000/svg" xmlns:xlink="http://www.w3.org/1999/xlink">
    <!-- Generator: Sketch 42 (36781) - http://www.bohemiancoding.com/sketch -->
    <title>icon-directions</title>
    <desc>Created with Sketch.</desc>
    <defs></defs>
    <g id="Mobile" stroke="none" stroke-width="1" fill="none" fill-rule="evenodd">
        <g id="icon-directions" fill="#FFFFFF">
            <path d="M23.7874036,11.4817762 L12.5182238,0.212596401 C12.4337174,0.127734911 12.3325227,0.0709238713 12.2256469,0.0364821786 C12.0690615,-0.0150028259 11.8982733,-0.0121622739 11.7431082,0.0460690415 C11.7374271,0.0489095935 11.7303257,0.0489095935 11.7249996,0.0517501455 C11.7235794,0.0517501455 11.7235794,0.0528153525 11.7221591,0.0528153525 C11.6348121,0.0890323901 11.5527912,0.141582602 11.4821324,0.212596401 L0.214372907,11.4817762 C-0.0714576356,11.7676068 -0.0714576356,12.2306167 0.214372907,12.5164473 L11.4835527,23.7856271 C11.7693833,24.0714576 12.2327483,24.0714576 12.5182238,23.7856271 L23.7874036,12.5164473 C24.0732341,12.2306167 24.0732341,11.7676068 23.7874036,11.4817762 Z M13.6015393,7.40416386 C13.5695831,7.22378881 13.6416621,7.05300062 13.7943418,6.95180596 C13.8330443,6.92553085 13.8735221,6.90742233 13.9150652,6.89357464 C13.9260724,6.89073409 13.9370795,6.89073409 13.9484417,6.88789354 C13.9789776,6.88114723 14.0105788,6.87404585 14.0411147,6.87404585 C14.0649043,6.87404585 14.0897592,6.87972695 14.1131937,6.88398778 C14.1313022,6.88682833 14.1494108,6.88682833 14.166099,6.89215437 C14.2076421,6.90458178 14.2477649,6.9226903 14.2854022,6.94754513 L17.9955181,10.3917144 L14.2854022,13.8341083 C14.2463446,13.8589632 14.2062218,13.8770717 14.166099,13.8894991 C14.1575773,13.8923396 14.1494108,13.8909194 14.1423094,13.8937599 C14.109288,13.9019265 14.0759115,13.9076076 14.0411147,13.9076076 C14.0191004,13.9076076 13.9981514,13.9005062 13.9761371,13.8980207 C13.955188,13.8951802 13.9342389,13.8951802 13.9136449,13.8880788 C13.8721019,13.8756514 13.831624,13.8561226 13.7929215,13.8298475 C13.6416621,13.7272326 13.5681628,13.5567994 13.600119,13.3764244 L13.9622894,11.3820018 L10.1023343,11.3681541 L10.0757042,16.0366013 L8.14235347,16.0366013 L8.12140439,10.8174421 C8.11891891,10.044812 8.74419541,9.41669493 9.51682555,9.41385438 L13.9622894,9.39858642 L13.6015393,7.40416386 Z" id="Page-1-Copy"></path>
        </g>
    </g>
</svg>