<?xml version="1.0" encoding="UTF-8" standalone="no"?>
<svg width="61px" height="60px" viewBox="0 0 61 60" version="1.1" xmlns="http://www.w3.org/2000/svg" xmlns:xlink="http://www.w3.org/1999/xlink">
    <!-- Generator: Sketch 39.1 (31720) - http://www.bohemiancoding.com/sketch -->
    <title>Slice 1</title>
    <desc>Created with Sketch.</desc>
    <defs></defs>
    <g id="Page-1" stroke="none" stroke-width="1" fill="none" fill-rule="evenodd">
        <path d="M0,30 C0,13.4314567 13.4508663,0 30.0433526,0 C46.6358389,0 60.0867052,13.4314567 60.0867052,30 C60.0867052,46.5685433 46.6358389,60 30.0433526,60 C13.4508663,60 0,46.5685433 0,30 Z" id="back" fill="#DC4E41"></path>
        <path d="M45.4186047,39.6 C45.4186047,40.0456 45.0683256,40.4 44.6223721,40.4 L15.3768372,40.4 C14.938,40.4 14.5813953,40.0392 14.5813953,39.6 L14.5813953,20.4 C14.5813953,20.1496 14.6984186,19.9376 14.8739535,19.7904 L28.2762791,32.5968 C29.225907,33.504 30.7725116,33.5064 31.7237209,32.5968 L45.1236744,19.7928 C45.3,19.9408 45.4186047,20.1528 45.4186047,20.4 L45.4186047,39.6 Z M43.0227907,19.6 L30.638093,31.4336 C30.2965116,31.7592 29.7034884,31.7592 29.361907,31.4336 L16.9772093,19.6 L43.0227907,19.6 Z M45.4668372,18.1632 C45.2644186,18.0616 44.9868837,18 44.6223721,18 L15.3768372,18 C15.0091628,18 14.7308372,18.0616 14.5292093,18.1632 C13.6325581,18.508 13,19.376 13,20.4 L13,39.6 C13,40.9216 14.0642791,42 15.3768372,42 L44.6223721,42 C45.9452093,42 47,40.9256 47,39.6 L47,20.4 C47,19.3784 46.3611163,18.5088 45.4668372,18.1632 L45.4668372,18.1632 Z" id="MESSAGE" fill="#FFFFFF"></path>
    </g>
</svg>