<?xml version="1.0" encoding="utf-8"?>
<!-- Generator: Adobe Illustrator 21.0.2, SVG Export Plug-In . SVG Version: 6.00 Build 0)  -->
<svg version="1.1" id="Layer_1" xmlns="http://www.w3.org/2000/svg" xmlns:xlink="http://www.w3.org/1999/xlink" x="0px" y="0px"
	 viewBox="0 0 61 60" style="enable-background:new 0 0 61 60;" xml:space="preserve">
<style type="text/css">
	.st0{fill:#DC4E41;}
	.st1{fill:#FCFCFC;}
</style>
<title>Slice 1</title>
<desc>Created with Sketch.</desc>
<path id="back" class="st0" d="M0,30C0,13.4,13.5,0,30,0s30,13.4,30,30S46.6,60,30,60S0,46.6,0,30z"/>
<path class="st1" d="M42.1,40.4V27.7h-2.6c0.3,0.8,0.4,1.7,0.4,2.6c0,1.6-0.4,3.2-1.2,4.5s-2,2.5-3.4,3.3s-3,1.2-4.7,1.2
	c-2.6,0-4.8-0.9-6.6-2.6s-2.7-3.9-2.7-6.4c0-0.9,0.1-1.7,0.4-2.6h-2.8v12.7c0,0.3,0.1,0.6,0.3,0.8s0.5,0.3,0.8,0.3h20.9
	c0.3,0,0.6-0.1,0.8-0.3S42.1,40.7,42.1,40.4z M36.6,29.9c0-1.6-0.6-3-1.8-4.1s-2.6-1.7-4.3-1.7c-1.7,0-3.1,0.6-4.2,1.7
	s-1.8,2.5-1.8,4.1s0.6,3,1.8,4.1s2.6,1.7,4.2,1.7c1.7,0,3.1-0.6,4.3-1.7S36.6,31.6,36.6,29.9z M42.1,22.9v-3.2
	c0-0.4-0.1-0.7-0.4-0.9s-0.6-0.4-1-0.4h-3.4c-0.4,0-0.7,0.1-1,0.4S36,19.3,36,19.7v3.2c0,0.4,0.1,0.7,0.4,1s0.6,0.4,1,0.4h3.4
	c0.4,0,0.7-0.1,1-0.4S42.1,23.3,42.1,22.9z M45.5,18.8v22.3c0,1.1-0.4,2-1.1,2.7S42.7,45,41.7,45H19.3c-1.1,0-2-0.4-2.7-1.1
	c-0.8-0.8-1.1-1.7-1.1-2.7V18.8c0-1.1,0.4-2,1.1-2.7c0.8-0.8,1.7-1.1,2.7-1.1h22.3c1.1,0,2,0.4,2.7,1.1
	C45.1,16.9,45.5,17.8,45.5,18.8z"/>
</svg>
