<svg xmlns="http://www.w3.org/2000/svg" xmlns:xlink="http://www.w3.org/1999/xlink" version="1.1" x="0px" y="0px" viewBox="0 0 100 100"><defs><g id="a"><path fill="black" stroke="none" d=" M 83.7 77.7 Q 83.6751953125 77.5302734375 83.55 77.4 L 62.65 54.95 Q 67.4498046875 48.480859375 67.45 40 67.44765625 29.3423828125 59.85 21.75 52.3580078125 14.252734375 41.7 14.25 31.0427734375 14.2533203125 23.45 21.75 15.9533203125 29.3427734375 15.95 40 15.952734375 50.6580078125 23.45 58.15 31.0423828125 65.74765625 41.7 65.75 48.7376953125 65.747265625 54.45 62.45 L 76.15 85.5 Q 76.26796875 85.6412109375 76.4 85.7 76.5693359375 85.7599609375 76.7 85.75 81.1939453125 85.53125 82.9 83.5 84.7708984375 81.51328125 83.7 77.7 M 51.75 29.9 Q 55.9521484375 34.107421875 55.95 40 55.9521484375 45.8923828125 51.75 50.05 47.5923828125 54.2521484375 41.7 54.25 35.807421875 54.2521484375 31.6 50.05 27.44765625 45.8923828125 27.45 40 27.44765625 34.107421875 31.6 29.9 35.807421875 25.74765625 41.7 25.75 47.5923828125 25.74765625 51.75 29.9 Z"></path></g></defs><g transform="matrix( 1, 0, 0, 1, 0,0) "><use xlink:href="#a"></use></g></svg>