<?xml version="1.0" encoding="UTF-8"?>
<svg width="24px" height="24px" viewBox="0 0 24 24" version="1.1" xmlns="http://www.w3.org/2000/svg" xmlns:xlink="http://www.w3.org/1999/xlink">
    <!-- Generator: Sketch 42 (36781) - http://www.bohemiancoding.com/sketch -->
    <title>icon-share</title>
    <desc>Created with Sketch.</desc>
    <defs></defs>
    <g id="Mobile" stroke="none" stroke-width="1" fill="none" fill-rule="evenodd">
        <g id="icon-share" fill="#FFFFFF">
            <path d="M12,0 C5.35964444,0 0,5.35964444 0,12 C0,18.6403556 5.35964444,24 12,24 C18.6403556,24 24,18.6403556 24,12 C24,5.35964444 18.6403556,0 12,0 Z M10.1596444,12 C10.1596444,12.1859556 10.1333333,12.3473778 10.0792889,12.5070222 L13.3333333,14.4807111 C13.6807111,14.1873778 14.1333333,13.9736889 14.6403556,13.9736889 C15.7596444,13.9736889 16.6403556,14.8807111 16.6403556,15.9736889 C16.6403556,17.0666667 15.7596444,17.9736889 14.6403556,17.9736889 C13.5473778,17.9736889 12.6403556,17.0666667 12.6403556,15.9736889 C12.6403556,15.7873778 12.6666667,15.6263111 12.7207111,15.4666667 L9.46808889,13.4666667 C9.12071111,13.7596444 8.66808889,13.9473778 8.16106667,13.9473778 C7.06808889,13.9473778 6.16106667,13.0666667 6.16106667,11.9473778 C6.16106667,10.8540444 7.06808889,9.94737778 8.16106667,9.94737778 C8.66808889,9.94737778 9.12071111,10.1333333 9.46808889,10.4277333 L12.7207111,8.42773333 C12.6680889,8.26808889 12.6403556,8.10844444 12.6403556,7.92071111 C12.6403556,6.82773333 13.5473778,5.92071111 14.6403556,5.92071111 C15.7596444,5.92071111 16.6403556,6.82773333 16.6403556,7.92071111 C16.6403556,9.04035556 15.7596444,9.92071111 14.6403556,9.92071111 C14.1333333,9.92071111 13.6807111,9.73475556 13.3333333,9.41404444 L10.0807111,11.4140444 C10.1333333,11.6526222 10.1596444,11.8140444 10.1596444,12 Z" id="Page-1-Copy"></path>
        </g>
    </g>
</svg>