<?xml version="1.0" encoding="utf-8"?>
<!-- Generator: Adobe Illustrator 19.2.1, SVG Export Plug-In . SVG Version: 6.00 Build 0)  -->
<svg version="1.1" id="Layer_1" xmlns="http://www.w3.org/2000/svg" xmlns:xlink="http://www.w3.org/1999/xlink" x="0px" y="0px"
	 viewBox="0 0 228.7 81.7" enable-background="new 0 0 228.7 81.7" xml:space="preserve">
<path fill="rgb(241, 95, 91)" d="M182.6,35.7c-0.2,2.5-0.2,6.7,0.8,11.6c1.2,5.9,3.5,11.3,7.5,15.9c4.2,4.8,9.4,8,15.3,10.1
	c0.8,0.3,1.6,0.5,2.4,0.8c-0.1-0.3-0.3-0.4-0.5-0.5c-11-5.4-18.5-13.8-22.6-25.3C184.2,44.2,183.3,40,182.6,35.7 M204.6,37.9
	c0.1,3.1,0.1,6.2,0.3,9.2c0.5,7.7,3.1,14.6,8.1,20.5c3.8,4.5,8.4,8,13.4,11c0.6,0.4,1.3,0.8,1.9,1.3c0.8,0.7,0.6,1.3-0.4,1.6
	c-0.3,0.1-0.5,0.1-0.8,0.1c-9.9,0.2-19.4-1.4-28.3-6.1c-10.1-5.3-16.5-13.7-20-24.4c-1.4-4.4-2.2-8.8-2.5-13.4
	c-0.1-2.1-0.3-4.1-0.3-6.2c-0.1-6.2,3.2-10.3,9.2-11.7c4.2-1,8.4-0.9,12.5,0.6c4.3,1.6,7,5.3,7.1,9.9c0.1,2.5,0,5,0,7.5
	C204.7,37.9,204.7,37.9,204.6,37.9"/>
<path fill="rgb(241, 95, 91)" d="M201.7,21.4c-3.2-2.7-7-3.4-10.9-3.5c-3.9,0-7.7,0.6-11,3.1c-0.1-0.1-0.1-0.1-0.2-0.2
	c0.1-0.3,0.1-0.6,0.2-0.8c0.9-1.9,2.3-3.3,4.1-4.2c0.6-0.3,1.1-0.6,1.7-0.8c1.7-0.6,2.6-1.9,2.9-3.6c0.4-2.6,0.9-5.1,1.5-7.7
	c0.2-1,0.6-1.3,1.6-1.1c0.5,0.1,1,0.2,1.5,0.3c0.8,0.1,1.1,0.4,1,1.2c-0.2,1.8-0.4,3.6-0.5,5.4c-0.1,1-0.1,2-0.1,3
	c0,0.9,0.4,1.7,1.2,2.1c0.8,0.5,1.7,0.9,2.5,1.4c1.1,0.7,2.2,1.5,3.2,2.3C201.3,19.1,201.7,20.1,201.7,21.4"/>
<path fill="rgb(241, 95, 91)" d="M133.1,29.7c2.4-1.8,3.3-5.4,2.1-8.4c-0.1-0.3-0.3-0.6-0.5-0.8c-0.6-0.5-0.9-1.1-0.5-1.9
	c-2.7-0.4-3-0.7-2.4-2.3c-0.6-0.1-1.2-0.2-1.8-0.4c-1.7-0.5-2-1.3-1.2-3c-0.4-0.1-0.8-0.1-1.1-0.2c-0.9-0.2-1.7-0.7-2.1-1.7
	c-0.4-1-0.1-1.9,0.9-2.2c0.9-0.3,1.8-0.4,2.7-0.5c0.2,0,0.5,0,0.8,0c-0.6-0.7-1.2-1.2-1.7-1.9c-0.5-0.6-0.9-1.4-1.1-2.1
	c-0.4-1-0.1-1.9,0.7-2.7c0.8-0.7,1.7-0.6,2.5-0.2c0.3,0.1,0.7,0.3,1,0.5c0,0,0.1-0.1,0.1-0.1c-0.2-0.5-0.4-1.1,0.2-1.5
	c0.6-0.3,1.3-0.2,1.7,0.4c0.4,0.5,0.6,1.1,1,1.8c0.4-1,1.3-1,2.2-0.7c1.4,0.5,1.2,1.9,1.3,3c0,0,0.1,0.1,0.1,0
	c1.5-0.5,2.4-0.2,3,1.3c0.4,1.1,0.7,2.3,0.9,3.4c0.9,4.3,0.5,8.6-0.6,12.9c0.2-0.2,0.4-0.5,0.5-0.7c0.8-1.3,1.7-2.5,2.5-3.8
	c0.6-1.1,0.9-2.2,1.3-3.4c0.2-0.6,0.4-1.3,0.6-1.9c0.6-1.3,1.3-1.6,2.8-1.4c0.1-0.5,0.2-1,0.3-1.5c0.1-0.3,0.2-0.7,0.3-1
	c0.6-1.5,1.3-1.9,3.1-1.5c0.1-0.6,0-1.2,0.2-1.7c0.3-0.7,0.6-1.5,1.2-2c1.1-1,2.1-0.6,2.9,0.9c0.7-0.9,1.5-1.6,2.6-1.4
	c0.9,0.2,1.8,0.5,2.4,1c1.2,0.9,1,2.3-0.3,4.4c0,0.1,0.1,0.1,0.1,0.2c1.5,0.7,1.2,3-0.3,3.6c-0.8,0.3-1.7,0.5-2.6,0.7
	c0.2,0.3,0.4,0.5,0.6,0.8c0.7,1.1,0.4,2.1-0.7,2.5c-1.2,0.4-2.6,0.7-3.9,1c-0.2,0-0.4,0-0.7,0.1c0.2,0.9-0.3,1.4-1,1.7
	c-1.1,0.4-2.3,0.7-3.4,1.2c-1.5,0.6-3,1.3-4.5,2c-0.7,0.3-1.2,1-1.8,1.5c0,0.1,0.1,0.1,0.1,0.2c0.3-0.1,0.7-0.2,1-0.3
	c2.5-0.7,4.9-1.4,7.5-1.3c1.1,0.1,2.1,0.3,2.6,1.5c0.1,0.1,0.4,0.2,0.6,0.2c1.5,0.3,3,0.5,4.4,0.8c0.7,0.2,1.4,0.5,1.5,1.4
	c0,0.5-0.1,1-0.2,1.4c0.7,0.4,1.5,0.8,2.3,1.2c0.4,0.2,0.7,0.5,0.9,0.8c0.2,0.4,0.3,0.9,0.2,1.3c-0.1,0.2-0.6,0.3-0.9,0.5
	c0,0,0.2,0.2,0.2,0.3c0.2,0.3,0.4,0.5,0.5,0.8c0,0.4-0.1,0.9-0.3,1.3c-0.1,0.1-0.7-0.1-0.9-0.1c0,0.7,0.1,1.6,0,2.5
	c-0.2,1.7-1.6,2.4-3.2,1.6c-1.1-0.5-1.7-1.5-2.3-2.5c-0.2-0.3-0.4-0.6-0.7-0.9c0,0.3,0.1,0.6,0.1,0.9c0,0.9,0.1,1.9-0.1,2.8
	c-0.2,1.2-1.1,1.7-2.3,1.5c-1.2-0.1-1.9-0.9-1.9-2.1c0-0.3,0-0.5,0-0.8c-0.4,0-0.8,0.1-1.2,0.1c-1.2-0.1-1.8-0.7-1.9-1.8
	c-0.1-0.8,0-1.5,0-2.5c-0.1,0.2-0.2,0.4-0.3,0.5c-0.6,0.6-1.1,0.6-1.6-0.1c-0.3-0.4-0.7-0.8-0.8-1.3c-0.5-1.6-1.8-2.2-3.3-2.2
	c-2.8,0-5.4,1-7.7,2.7c0.6,0.7,1.1,1.3,1.6,2c2.1,2.8,4,5.7,5,9.1c0.4,1.4,0.6,2.9,0.2,4.4c-0.3,1-0.9,1.9-1.8,2.5
	c-1.7,1.2-3.4,2.4-5.2,3.6c-1.5-2.6-3.1-5-6.5-5.4c0.5,1.1,1.1,2.1,1.5,3.1c0.4,0.9,0.7,1.8,0.9,2.7c0.3,1.6-0.1,3.2-1.4,4.1
	c-2.7,1.9-5.4,3.6-8.2,5.2c-1.5,0.9-4.4,0-5.9-1.5c-1-1-2-1.9-3.1-2.8c-1-0.8-2.1-1.3-3.3-1.4c-0.1,0.1-0.1,0.1-0.2,0.2
	c0.3,0.2,0.5,0.4,0.8,0.6c1.4,1.5,2.8,3.1,3.3,5.2c0.4,1.7,0,3.1-1.3,4.2c-0.7,0.5-1.4,1-2.1,1.4c-6.5,3.5-13,7-19.5,10.5
	c-1.5,0.8-3.1,1.4-4.8,1.6c-1.8,0.2-2.6-0.6-2.2-2.3c0.4-1.4,0.9-2.9,1.6-4.2c4.7-8.9,9.5-17.8,14.2-26.7c1.3-2.5,3.6-3.2,5.9-2.9
	c2.7,0.4,4.9,1.8,6.6,3.8c0.2,0.2,0.3,0.4,0.6,0.7c0.4-1.2,0.4-2.3,0-3.4c-0.5-1.4-1.4-2.5-2.5-3.3c-1.2-0.9-2.5-1.6-3.8-2.4
	c-1.9-1.2-2-1.8-0.7-3.6c3-4.1,6-8.1,8.9-12.2c1-1.4,2.4-2,4-2.2c2.4-0.2,4.7,0.5,6.8,1.5c2.7,1.3,5,3,7.3,4.9
	C132.7,29.4,132.9,29.6,133.1,29.7"/>
<path fill="rgb(241, 95, 91)" d="M13.2,59c0.6-0.2,1.2-0.3,1.8-0.4c2.3-0.6,2.3-0.6,1.8-2.9c-1.5-7.1,1.2-12.5,8-15.2
	c2.1-0.9,4.4-1.2,6.6-1.8c0.4-0.1,1-0.4,1-0.7c0-1.2-0.1-2.5-0.2-3.7C20.4,35.2,8.6,42.5,13.2,59 M0,81c1-0.2,1.8-0.4,2.5-0.6
	c7-1.7,9.4-7.8,8.5-13.2c-0.3-1.8-1-3.6-1.8-5.2C2.4,48.9,9.9,33.6,24.6,31.2c12.8-2.2,25.2,6.5,27.6,19.2
	c2.2,11.4-5.8,22.6-17.3,24.4c-4.3,0.7-8.7,0.7-13.1,0.1c-1.1-0.1-2.4,0.3-3.6,0.8c-0.8,0.3-1.4,1-2,1.6C11.8,81.5,6.7,82.5,0,81"/>
<path fill="rgb(241, 95, 91)" d="M81.3,11.2c-0.2,1.7-0.5,3.3-0.7,5c-3.3-0.3-6.4,0-9.4,1.2c-3,1.2-5.6,2.8-8.1,4.9c4.9-0.2,9.5,0.5,13.4,4
	c-1.2,1.3-2.3,2.5-3.4,3.8c-4.7-3.4-9.7-2.6-14.8-1.6c-1.8,0.4-3.2,1.2-4.1,2.8c-0.2,0.4-0.4,0.9-0.4,1.4c0.1,2.7-0.9,5-3.2,6.8
	c-2.9-4.4-6.7-7.6-11.7-9.4c1.2-2.5,3.1-3.9,5.6-4.6c0.6-0.2,1.3-0.5,1.6-1c4.3-6.4,5.8-13.3,4.2-20.8c0-0.1,0-0.3,0-0.5
	c1.5-0.5,3.1-1,4.8-1.6c1.2,3.9,1.4,7.9,0.8,11.9c-0.5,4-1.8,7.8-3.6,11.5c0.4-0.4,0.9-0.7,1.2-1.1c4.6-4.9,9.6-9.1,16-11.5
	C73.3,11.1,77.2,10.6,81.3,11.2"/>
</svg>
