<?xml version="1.0" encoding="utf-8"?>
<!-- Generator: Adobe Illustrator 19.2.1, SVG Export Plug-In . SVG Version: 6.00 Build 0)  -->
<svg version="1.1" id="Layer_1" xmlns="http://www.w3.org/2000/svg" xmlns:xlink="http://www.w3.org/1999/xlink" x="0px" y="0px"
	 viewBox="0 0 235.7 88.7" enable-background="new 0 0 235.7 88.7" xml:space="preserve">
<path fill="#F8BF59" d="M114.6,14.5c-1.4-3.6-2.7-7.1-4.1-10.6c1.7-0.2,3.2-0.4,4.9-0.6c0.1,0.5,0.2,1,0.3,1.5
	c0.5-0.7,1-1.3,1.5-1.9c1.4-1.6,3-2.6,5.2-2.8c1.9-0.2,2.4,0.2,2.6,1.9c0.7,5.3-3.5,9.4-7.9,9.4c-0.1,0-0.2,0-0.5,0
	c0.1,1,0.2,2,0.3,2.9c1,0.2,2,0.2,2.9,0.5c4,1.1,7.1,3.5,8.1,7.7c0.5,2,0.5,4.3,0.4,6.4c-0.1,3.1,0.6,5.9,1.8,8.6
	c1.6,3.5,3.6,6.8,5.8,10c2.9,4.3,4.9,8.9,5.9,13.9c1.6,8.3-1,15.2-7.2,20.7c-5.8,5.1-12.8,7.1-20.4,6.5c-6.7-0.5-12.5-3.1-17.2-8
	c-4.5-4.7-6.6-10.3-6-16.7c0.5-5.1,2.3-9.9,5-14.3c1.9-3.1,3.9-6.2,5.8-9.3c1.4-2.5,2.7-5.1,3-7.9c0.3-2.2,0.2-4.4,0.3-6.5
	c0-1,0-2.1,0.3-3.1c1.1-4.3,4-6.7,8.1-7.9C113.7,14.7,114.1,14.7,114.6,14.5"/>
<path fill="#F8BF59" d="M216.3,15.6c2.3,1.6,3.8,3.7,4.4,6.3c0.7,3.1,0.4,6-1.4,8.9c0.2-0.1,0.3-0.1,0.5-0.2
	c3.8-1.8,7.7-1.8,11.6-0.3c1.6,0.6,2.9,1.7,4,3c0.3,0.4,0.3,0.7,0,1.1c-2,2.4-4.7,3.6-7.8,4c-2.3,0.3-4.6,0-6.7-0.8
	c-1.8-0.7-3.4-1.8-4.5-3.4c-0.1-0.1-0.2-0.3-0.4-0.4c-2.5-1.5-3.9-3.7-4.4-6.3c-0.6-2.6-0.4-5.2,0.8-7.7c0.8-1.7,2.1-3,3.7-4.1
	H216.3z"/>
<path fill="#F8BF59" d="M170.9,85.6c-2,2.5-4.6,3.7-7.9,2.9c-2.9-0.6-4.8-2.4-5.4-5.1c-0.7-3,0.5-5.5,3.1-7.3
	c-0.7-1.7-1.5-3.4-2-5.1c-1.2-3.8-1.4-7.6-0.9-11.5c1.9-13.5,13.5-25.6,27.9-29.2c6.6-1.6,13.1-1.6,19.4,0.9
	c8.1,3.2,13.2,8.8,15.3,16.7c1.6,6.1,1,12.1-1.6,17.9c-4.8,10.9-13.3,18.3-25.6,21.6c-7.1,1.9-14.1,1.6-20.9-1.3
	C171.7,86,171.3,85.8,170.9,85.6"/>
<path fill="#F8BF59" d="M47.9,7.2c3.7-3,7.9-4.9,12.5-6.2c0.4-0.1,0.8-0.2,1.2-0.3c1-0.2,1.9,0.3,2.2,1.3c0.3,1-0.3,1.9-1.3,2.2
	c-2.6,0.7-5.1,1.5-7.5,2.7c-8.5,4.4-13.4,11.5-15.5,20.7c0,0.1,0,0.3,0,0.5c0,0.1,0,0.1,0.1,0.3c0.4-0.1,0.9-0.2,1.2-0.4
	c1-0.6,2-1.1,2.8-1.8c3.1-2.7,6.4-4.8,10.4-5.6c5.6-1.1,10.3,0.6,14.1,4.8c3.3,3.5,5,7.8,6.1,12.5c1.2,5.2,1.3,10.4,0.7,15.6
	c-0.9,7.6-3.2,14.7-7.2,21.2C64.7,79,61.3,83,56.8,85.8c-3.4,2.1-7,3.3-11,2.8c-2.2-0.2-4.2-0.9-6.1-2c-1.3-0.8-2.8-0.9-4.1-0.1
	c-5.5,3.2-10.9,3-16.4-0.1c-4.4-2.5-7.8-6.1-10.6-10.3c-4.3-6.5-6.9-13.7-8-21.4c-0.7-4.6-0.8-9.1-0.1-13.7
	C1.2,35.7,2.7,30.7,6,26.5c2.6-3.4,6-5.7,10.4-6.2c3.3-0.4,6.4,0.4,9.3,1.8c2.3,1.1,4.3,2.7,6.2,4.4c1.1,1,2.4,1.7,3.7,1.9
	c1.3-7.1,4.4-13.3,9.3-18.6C44.2,8,40.2,7.3,37.8,8c-0.7,6.4-6,9.5-10.3,10.3c-4.2,0.8-8.3,0.5-12.4-0.4c-2.1-0.4-4.2-1-6.3-1.6
	c-1.8-0.5-2.4-2.2-1.2-3.6c3.5-4.1,7.3-7.8,12.1-10.4c2.6-1.4,5.4-2.4,8.5-2.3c3.2,0.1,6,1.2,8.2,3.6c0.3,0.3,0.5,0.4,1,0.4
	c2.2-0.3,4.4-0.3,6.6,0.4C45.5,5,46.8,5.8,47.9,7.2"/>
</svg>
