<?xml version="1.0" encoding="utf-8"?>
<!-- Generator: Adobe Illustrator 19.2.1, SVG Export Plug-In . SVG Version: 6.00 Build 0)  -->
<svg version="1.1" id="Layer_1" xmlns="http://www.w3.org/2000/svg" xmlns:xlink="http://www.w3.org/1999/xlink" x="0px" y="0px"
	 viewBox="0 0 268.9 79.4" enable-background="new 0 0 268.9 79.4" xml:space="preserve">
<path fill="#4D5594" d="M229.8,0.4c1.5,0.5,2.9,1,4.4,1.6c0.3,0.1,0.5,0.2,0.8,0.3c-0.1,0.2-0.1,0.3-0.2,0.5c-2,4.3-3,8.8-2.5,13.5
	c0.2,1.6,0.5,3.3,1,4.9c0.6,2,2,3.5,3.7,4.6c2.1,1.4,4.4,2.2,6.8,2.8c5.6,1.5,10.9,3.9,15.5,7.5c3.9,3.1,7,6.8,8.6,11.5
	c2,5.7,1.3,11.1-1.6,16.3c-2.8,5-7.1,8.5-12.2,11.4c4.3-10.8,3.2-20.8-4.1-30.1c0.5,1.5,0.9,3,1.3,4.4c1.2,4.8,1.5,9.6,0.2,14.5
	c-1.5,5.5-4.8,9.7-9.5,12.8c-1.1,0.7-2.2,1.3-3.4,2c0.8-6,0.7-11.8,0.2-17.6c-0.3-3.5-0.7-7-1.2-10.4c-0.1,1.6-0.2,3.3-0.3,4.9
	c-0.6,6.6-1.2,13.2-3.1,19.6c-0.3,0.9-0.7,1.8-1.1,2.7c-0.1,0.3-0.4,0.4-0.7,0.3c-7.6-2.2-14.4-5.8-19.7-11.8
	c-3.4-3.8-5.6-8.2-6.5-13.3c-0.4-2.3-0.6-4.7-0.5-7.1c-0.1,0.8-0.3,1.6-0.4,2.4c-0.1,0.8-0.2,1.7-0.3,2.5c0,2.6-0.2,5.2,0,7.7
	c0.4,6.1,2.1,11.7,6,16.5c0.8,1,1.8,1.9,2.7,2.9c0.2,0.2,0.3,0.3,0.6,0.6c-0.2,0-0.3,0-0.4,0c-6.6-2.1-12.6-5.2-17.3-10.3
	c-3-3.2-5.1-6.9-5.9-11.3c-0.9-5.2,0.3-10,3.2-14.4c3-4.7,7.3-8,12.1-10.5c2.5-1.3,5.1-2.3,7.8-3.2c3-0.9,5.7-2.3,8.2-4.2
	c2.7-2,3.6-4.7,3.5-8c-0.1-1.5-0.1-3.1,0-4.6c0.1-2.6,0.9-5,2-7.4c0.7-1.5,1.5-3,2.2-4.4H229.8z"/>
<path fill="#4D5594" d="M118.7,13.3c0.7-3.2,0.3-6-1.5-8.6c-0.2-0.3-0.4-0.5-0.7-0.7c-0.7-0.6-1.5-0.7-2.3-0.1
	c-1.2,0.8-1.4,1.5-0.8,2.9C114.6,9.5,116.6,11.3,118.7,13.3 M144.8,0c1.2,0.7,1.4,1.3,0.9,2.7c-0.8,2.1-0.7,4.1,0.4,6.1
	c0.6,1,0.3,2-0.9,2.5c-2.2,1-3.8,2.7-4.5,5c-0.2,0.7-0.3,1.4-0.4,2.1c-0.1,1.5,0,3,0,4.5c2.8,0.4,4.7,2.1,6.7,3.8
	c4.7,4.3,7.4,9.7,8.7,15.8c1.9,8.5,1.1,16.7-2.8,24.5c-2.4,4.8-5.8,8.7-10.5,11.2c-0.6,0.3-1.2,0.5-1.9,0.5c-3.6,0-7.1,0-10.7,0
	c-0.3,0-0.7-0.1-1-0.2c-4.4-2.2-7.6-5.5-10.1-9.7c-2.6-4.4-4-9.1-4.5-14.1c-0.7-7,0.4-13.6,3.6-19.9c2.3-4.5,5.5-8.3,10-10.9
	c-0.2-0.1-0.3-0.2-0.4-0.3c-2.6-1.7-5.1-3.4-7.7-5.1c-0.3-0.2-0.5-0.3-0.8-0.1c-1.1,0.8-2.4,1.3-3.8,1.3c-3.5,0.2-7-0.1-10.3-1.3
	c-1.7-0.6-3.3-1.5-4.4-3.1c-0.8-1.2-1.2-2.5-1-3.9c0.1-0.9,0.8-1.5,1.8-1.5c0.9,0.1,1.6,0.8,1.5,1.7c-0.1,1.5,0.7,2.3,1.8,3
	c1.5,0.9,3.2,1.4,4.9,1.5c2,0.2,4,0.2,5.9,0.2c0.4,0,0.9-0.2,1.3-0.3c-1.4-1.5-2.8-2.9-4.1-4.5c-0.9-1.1-1.6-2.3-2.1-3.6
	c-1.5-3.6,0.5-6.2,3.3-7.3c2.1-0.8,3.9-0.2,5.4,1.3c1.8,1.8,2.7,4,3.1,6.4c0.4,2.4,0.3,4.8-0.8,7.2c2.8,2.2,5.8,4.2,9.1,5.9
	c0-0.4,0-0.6,0-0.9c0-2.6-0.1-5.2,0.1-7.8c0.3-4.1,2.5-7.2,6.2-9.1c2.1-1.1,4.3-2.2,6.5-3.3c0.2-0.1,0.4-0.2,0.6-0.4H144.8z"/>
<path fill="#4D5594" d="M123,23c-8.4,7.4-12.1,16.9-12.1,27.8c0,10.9,3.6,20.4,12,27.7c-13-0.2-26-10.7-26.8-26.4
	C95.3,35.9,108.3,23.4,123,23"/>
<path fill="#4D5594" d="M147.8,23c14.6,0.4,27.6,12.7,26.9,28.9c-0.6,15.3-13.3,26.3-26.9,26.6c0.3-0.3,0.5-0.5,0.8-0.7
	c4.9-4.3,8.1-9.7,9.8-16c2.9-10.6,1.9-20.8-3.5-30.4c-1.8-3.2-4.1-5.9-6.9-8.2C148,23.2,147.9,23.2,147.8,23"/>
<path fill="#4D5594" d="M50.1,48.8c-1.6,0.5-3.1,1-4.7,1.5c-4.7,1.4-8.2,4.3-10.9,8.4c-2,3-3.7,6.1-5,9.4c-0.4,1,0,2,1,2.3
	c0.9,0.3,1.8-0.1,2.2-1.1c0.1-0.1,0.1-0.3,0.1-0.4c1.3-3.3,3-6.3,5-9.2c2.4-3.4,5.6-5.4,9.4-6.5c2.8-0.9,5.7-1.7,8.5-2.6
	c0.7-0.2,1.3-0.5,2-0.8c1.2-0.5,1.9-1.4,2-2.7c0.2-2.2,0.4-4.5,0.6-6.7c0.2-2.9,0.4-5.7,0.7-8.6c0.2-1.7,1-3.1,2.2-4.3
	c2.8-2.8,5.5-5.7,8.7-8.1c1.4-1,2.8-2.1,4.5-2.3c1.4-0.2,2.8,0.5,3,1.9c0.3,1.5,0.5,3.1,0.5,4.6c-0.1,4.7-0.3,9.4-0.5,14.1
	c-0.1,1.8-0.2,3.7-0.3,5.5c-0.5,6.2-2.4,12-5.7,17.2c-6.2,9.9-15.1,16-26.5,18.3C26.5,82.7,5.9,69.4,1.1,49c-1-4.2-1.3-8.4-1-12.7
	c0.3-4.2,0.5-8.4,0.8-12.6c0.2-2.7,0.5-5.4,0.8-8c0.2-1.5,1-2.9,2.1-3.9c1.4-1.3,3.2-1.5,5-0.5c2.1,1.1,3.6,2.9,4.9,4.8
	c3,4,4.7,8.6,5.8,13.4c0.6,2.6,1.5,5.2,2.3,7.8c0.1,0.2,0.1,0.3,0.2,0.5c0.6,2,2,3,4.1,3.2c2.4,0.2,4.8,0.5,7.2,0.7
	c4.6,0.3,9,1.2,12.9,3.7C47.8,46.2,49.2,47.2,50.1,48.8"/>
<path fill="#4D5594" d="M29.7,37.9c-1.1-0.1-2-0.2-2.9-0.4c-0.9-0.1-1.4-0.6-1.7-1.5c-0.8-2.8-1.8-5.6-2.5-8.5
	C21.4,22,19,17,15.3,12.5c-0.4-0.5-0.8-0.9-1.2-1.4c-0.6-0.7-0.7-1.6-0.1-2.2c2.4-2.6,4.9-5.1,7.4-7.6c1.3-1.3,2.9-1.5,4.7-1
	c3.6,1,6.9,2.7,10.1,4.7c3,1.9,5.8,3.9,8.3,6.4c0.8,0.8,1.5,1.8,2.1,2.8c0.1,0.2,0.1,0.6,0.1,0.9c-1.3,4-2.6,7.9-4,11.9
	c-0.3,0.9-0.8,1.8-1.5,2.4c-1.5,1.4-3.2,2.6-4.9,3.9c-1.9,1.5-3.9,3-5.8,4.4C30.2,37.8,29.8,37.9,29.7,37.9"/>
<path fill="#4D5594" d="M35.1,38.3c0.8-0.6,1.4-1,2-1.5c1.8-1.4,3.7-2.7,5.5-4.1c1.7-1.4,2.9-3.1,3.6-5.3c1.8-5.8,3.7-11.6,6.2-17.2
	c0.9-1.9,1.9-3.8,3.1-5.6c0.7-1.2,0.8-1.1,2-0.5c4.7,2.4,8.8,5.6,12.3,9.5c1.2,1.3,1.1,2.2-0.3,3.3c-3.5,2.7-6.6,5.9-9.5,9.2
	c-1.4,1.5-2,3.5-2.3,5.5c-0.3,3.1-0.5,6.3-0.7,9.5c-0.1,1.5-0.2,2.9-0.3,4.4c-0.1,1.1-0.9,1.5-1.8,1.8c-0.8,0.2-1.4,0-1.9-0.7
	c-1.4-1.9-3.2-3.4-5.2-4.5c-3.7-2.1-7.6-3.4-11.8-3.7C35.6,38.4,35.5,38.4,35.1,38.3"/>
</svg>
