<?xml version="1.0" encoding="utf-8"?>
<!-- Generator: Adobe Illustrator 19.2.1, SVG Export Plug-In . SVG Version: 6.00 Build 0)  -->
<svg version="1.1" id="Layer_1" xmlns="http://www.w3.org/2000/svg" xmlns:xlink="http://www.w3.org/1999/xlink" x="0px" y="0px"
	 viewBox="0 0 241.4 94.7" enable-background="new 0 0 241.4 94.7" xml:space="preserve">
<path fill="#D22B2B" d="M48.6,67.9c2.2-1.2,3.7-5.4,2.5-7.2C49,61.6,47.5,65.9,48.6,67.9 M82.9,63.1c-2.2,1.1-3.7,5.4-2.5,7.2
	C82.5,69.4,84,65.2,82.9,63.1 M62.7,64c2.2-1.1,3.7-5.3,2.6-7.2C63.2,57.6,61.6,61.8,62.7,64 M40.2,55.8c2.2-1.1,3.7-5.3,2.6-7.2
	C40.7,49.5,39.2,53.7,40.2,55.8 M95.9,72.4c2.2-1,3.7-5.2,2.6-7.2C96.5,66,94.9,70.2,95.9,72.4 M52.8,51.3c2.2-1.1,3.7-5.3,2.6-7.2
	C53.3,44.9,51.7,49.1,52.8,51.3 M33.4,44.3c2.3-0.9,3.8-5.4,2.6-7.2C34,38.1,32.5,42,33.4,44.3 M23.8,30.9c-2.1,0.8-3.7,5.4-2.5,7.1
	C23.4,37,24.9,32.8,23.8,30.9 M82.8,58.5c2.3-1,3.8-5.5,2.5-7.2C83.3,52.4,81.8,56.3,82.8,58.5 M65,52.1c2.2-0.5,4-5.3,2.6-7.1
	C65.7,45.9,64.3,49.7,65,52.1 M117.1,59.2c-2.2,1.1-3.7,5.3-2.6,7.2C116.6,65.5,118.1,61.3,117.1,59.2 M99,49
	c-2.2,1.1-3.7,5.3-2.6,7.2C98.5,55.3,100,51.1,99,49 M79.3,48.2c2.2-1.2,3.7-5.4,2.5-7.2C79.8,41.9,78.2,46.2,79.3,48.2 M49.8,29.3
	c-2.2,1.1-3.7,5.3-2.6,7.2C49.3,35.7,50.9,31.5,49.8,29.3 M32.7,31.3c2.3-0.9,3.8-5.4,2.6-7.2C33.3,25.1,31.8,29.1,32.7,31.3
	 M27,17.4c-2.3,1-3.8,5.5-2.5,7.2C26.4,23.5,27.9,19.6,27,17.4 M62.8,28.6c-2.3,1-3.8,5.5-2.5,7.2C62.3,34.7,63.8,30.8,62.8,28.6
	 M114.7,45.7c-2.1,0.8-3.7,5.3-2.5,7.1C114.3,51.8,115.8,47.6,114.7,45.7 M44.1,20c-2.2,1.2-3.7,5.4-2.5,7.2
	C43.7,26.2,45.2,22,44.1,20 M20.1,11.3c-2.2,1-3.7,5.3-2.6,7.2C19.5,17.7,21.1,13.5,20.1,11.3 M131.4,49.8c-2.2,1-3.7,5.3-2.6,7.2
	C130.8,56.2,132.4,52,131.4,49.8 M96.6,45.4c2.3-0.9,3.8-5.5,2.6-7.2C97.1,39.2,95.7,43.2,96.6,45.4 M8.1,1.6
	c45.6,16.6,91.1,33,136.6,49.6c-2.3,4.1-5.2,7.7-8.6,10.9c-11.1,10.6-24.6,16.6-39.6,19c-9.7,1.6-19.4,1.2-29-0.9
	C37.9,73.6,14.3,49.3,8.6,21C7.3,14.6,7,8.1,8.1,1.6"/>
<path fill="#D22B2B" d="M2.4,3.8c0.1,0.6,0.1,1.3,0.2,1.9c1.6,17.6,6.7,34.1,16.7,48.8c7.6,11.2,17.4,20,29.6,25.9
	c15.5,7.5,31.8,9.1,48.6,5.4c18-4,33.3-13.1,46.6-25.7c2.3-2.2,4.5-4.5,6.7-6.8c0.1,0.1,0.3,0.2,0.4,0.2c-1.8,3.5-3.4,7.1-5.5,10.4
	c-8.6,13.7-21.2,22.3-36.5,27c-14.1,4.4-28.5,4.7-42.9,1.4c-22-5-40.1-16.1-53.3-34.5C3.7,45.2-1,30.9,0.2,15
	c0.3-3.6,1.2-7.1,1.8-10.6C2,4.2,2.1,4,2.1,3.8C2.2,3.8,2.3,3.8,2.4,3.8"/>
<path fill="#D22B2B" d="M205.1,83.8c0-1.5-0.2-3-1.1-4.2c-1-1.5-2.5-1.5-3.5,0c-1.5,2.1-1.4,6.3,0,8.4c1,1.4,2.4,1.4,3.4,0
	C204.9,86.7,205.1,85.3,205.1,83.8 M177.2,56.7c0.4,1.4,0.6,2.8,1.3,4c0.9,1.8,2.7,1.8,3.7,0c1.4-2.6,1.4-5.3,0-8
	c-1-1.8-2.8-1.8-3.7,0C177.8,53.9,177.6,55.3,177.2,56.7 M206.1,59.6c-0.1,0-0.2-0.1-0.3-0.1c0-1.5-0.2-2.9-1-4.2
	c-1-1.6-2.6-1.7-3.6,0c-1.5,2.7-1.5,5.4,0,8.1c1,1.8,2.7,1.8,3.6,0C205.4,62.3,205.7,60.9,206.1,59.6 M235,59.6
	c0-1.7-0.4-3.2-1.1-4.2c-1-1.5-2.5-1.5-3.5,0c-1.4,2.1-1.4,6.2,0,8.3c1.1,1.6,2.6,1.6,3.6,0C234.8,62.4,235,61,235,59.6 M187.4,72.3
	c0,1.5,0.2,2.9,1,4.2c1,1.5,2.5,1.5,3.5,0c1.4-2.1,1.5-6.2,0-8.4c-1.1-1.6-2.5-1.5-3.5,0C187.6,69.4,187.4,70.8,187.4,72.3
	 M213.7,71.7c0,1.4,0.2,2.8,1.1,4c1,1.6,2.5,1.6,3.5,0c1.4-2.1,1.4-6.2,0-8.3c-1.1-1.6-2.5-1.6-3.5,0
	C213.9,68.7,213.7,70.1,213.7,71.7 M184.1,34.8c-0.2,1.5-0.4,2.9-0.5,4.3c-0.1,3,0.7,5.8,2,8.5c1.5,3.3,3.6,6.1,6.1,8.8
	c6-3.4,11.1-7.7,15.1-13.4c4.7,7.7,12,10.1,20.4,10.6c0.6-5.1,1.5-10.1,0.8-15.3c0.5,0.3,0.8,0.5,1.2,0.7c0.8,0.3,1.6,0.5,2.5,0.7
	c0.5,0.1,1,0.2,1.5,0.5c1.1,0.5,2.3,1.1,3.4,1.8c0.3,0.2,0.7,0.6,0.7,0.9c0.5,5.1,0.6,10.3,0.1,15.5c-0.6,5.9-2.1,11.5-5,16.7
	c-5,9.1-12.7,14.9-22.5,18c-2.6,0.8-5.4,1.4-8.1,1.8c-1.3,0.2-2.7-0.2-4-0.5c-11.9-3-20-10.5-25-21.5c-2.7-6-4.3-12.4-4.9-18.9
	c-0.3-3.7-0.4-7.5-0.6-11.2c-0.1-0.9,0.3-1.3,1.2-1.5c1.4-0.4,2.7-0.7,4.2-0.6c1.5,0.1,3-0.1,4.4-0.4c2.7-0.4,4.7-2.1,6.2-4.3
	C183.6,35.4,183.8,35.1,184.1,34.8"/>
<path fill="#D22B2B" d="M236,28.7c-2.9-4.5-6.9-7.7-11.9-9.5c-3.7-1.3-7.5-1.8-11.3-1.3C221.5,19.3,229.3,22.9,236,28.7 M201.5,17.2
	c-0.2,0-0.2,0-0.3,0c-0.1,0.1-0.3,0.1-0.4,0.2c-2.6,1.7-4.7,3.8-6.4,6.4c-2.3,3.6-3.5,7.7-3.8,11.9c-0.3,2.7-0.2,5.5,0.3,8.2
	C191.3,33.8,194.6,24.8,201.5,17.2 M205.3,19.2c-1.1,8.4,6.4,21.9,13.3,24.4C211.9,36.8,208.2,28.3,205.3,19.2 M170.5,30.3
	c7.9-7.5,17.2-12,28-13.2C187.4,14.7,176.8,21.2,170.5,30.3 M188.2,29.9c-1.4,1.4-3.1,2.7-5.1,3.6c-3.1,1.4-6.5,2-9.9,1.9
	c-3.1-0.1-6.2-0.5-9.5-0.8c0.3-0.7,0.4-1.1,0.6-1.5c3.3-7.1,8.6-12.3,15.4-15.9c5.4-2.8,11.2-4.3,17.3-4.7c1.2-0.1,2.5-0.2,3.7-0.2
	c1.3-4.9,2.3-10,7.9-12.2c0.8,1.8,1.5,3.4,2.1,4.9c-1.1,1-2.2,1.8-3.1,2.8c-1,1.1-1.4,2.5-1.5,4c0,0.7,0.2,0.9,0.9,1
	c6.2,0.8,12.3,2.3,18,5c5.8,2.7,10.8,6.4,14.3,11.9c0.5,0.8,1,1.7,1.4,2.5c0.3,0.5,0.4,1,0.7,1.6c-6.2,2-12,1.5-17.7-1.7
	c0.8,5.6,0.6,11-0.1,16.7c-7.5-0.5-13.1-4-16.8-10.6c-0.7,0.9-1.4,1.8-2.1,2.7c-3.5,4.2-7.6,7.5-12.3,10.3c-0.5,0.3-0.9,0.3-1.3-0.2
	c-3.5-4.1-4.9-8.8-4.2-14C187.2,34.4,187.8,32.1,188.2,29.9"/>
</svg>
