<?xml version="1.0" encoding="utf-8"?>
<!-- Generator: Adobe Illustrator 19.0.0, SVG Export Plug-In . SVG Version: 6.00 Build 0)  -->
<svg version="1.1" id="Layer_1" xmlns="http://www.w3.org/2000/svg" xmlns:xlink="http://www.w3.org/1999/xlink" x="0px" y="0px"
	 viewBox="0 0 612 792" style="enable-background:new 0 0 612 792;" xml:space="preserve">
<style type="text/css">
	.st0{fill:#FFFFFF;}
	.st1{fill:none;stroke:#FFFFFF;stroke-miterlimit:10;}
	.st2{fill:none;}
	.st3{clip-path:url(#XMLID_3_);fill:#FFFFFF;}
	.st4{clip-path:url(#XMLID_3_);fill:none;stroke:#FFFFFF;stroke-miterlimit:10;}
	.st5{clip-path:url(#XMLID_4_);fill:#FFFFFF;}
	.st6{clip-path:url(#XMLID_4_);fill:none;stroke:#FFFFFF;stroke-miterlimit:10;}
</style>
<path id="XMLID_182_" class="st0" d="M140.1,875.2c-0.1,7.8-1.7,15.2-5.7,22c-3.9,6.6-9.5,11.3-16.4,14.4c-5.4,2.4-11.1,3.7-17,4
	c-9.4,0.5-18.3-1.2-26.5-5.8c-10.4-5.9-17.1-14.6-19.4-26.5c-1.2-6.5-1-13,1.8-19.2c1.4-3.2,3.4-6.1,5.9-8.6c3.7-3.6,8-4.2,12.8-2.5
	c3.4,1.2,6.6,2.9,9.3,5.4c4.6,4.2,10.2,5.4,16.2,5c4.2-0.2,7.7-1.8,10.8-4.6c1.6-1.4,2.7-3.1,3.8-4.9c1.1-1.9,2.6-3.3,4.9-3.6
	c1.4-0.2,2.7,0.2,4.1,0.6c5.5,1.7,9.4,5.4,12.2,10.3C139.2,865.6,140.2,870.2,140.1,875.2z"/>
<path id="XMLID_181_" class="st0" d="M102.2,852c0,2.5-0.1,4.2-0.7,5.8c-0.9,2.4-3.1,3.4-5.5,2.6c-2-0.7-2.6-2.3-2.8-4.2
	c-0.2-2,0.1-3.9,0.6-5.8c1-3.7,0.9-7.5,0.2-11.2c-0.2-1.3,0.2-2.1,1.4-2.4c1-0.3,2-0.3,3,0.1c0.7,0.3,1.3,0.8,1.5,1.6
	c0.6,2.9,1.3,5.8,1.8,8.7C102,849,102.1,850.9,102.2,852z"/>
<path id="XMLID_180_" class="st0" d="M104.9,859.6c1.3-3.5,1.2-7,0.9-10.5c0-0.4,0.1-0.7,0.4-1c3.7-3.1,7-6.6,9.6-10.7
	c0.5-0.8,1-1.7,1.6-2.5c-0.4,1.7-0.8,3.4-1.3,5.1c-1.3,4.8-2.9,9.6-5.5,13.9c-1.2,2-2.6,3.8-4.5,5
	C105.7,859.2,105.3,859.4,104.9,859.6z"/>
<path id="XMLID_160_" class="st0" d="M89.5,857.3c-1.4-1.3-2.8-2.5-4.3-3.8c-3.3-2.8-6.9-5.4-11.1-6.7c-1.5-0.5-3.2-0.7-4.7-1.1
	c7.1-0.8,14.1-0.3,20.9,2.8c-0.7,2.9-1.1,5.8-0.6,8.7C89.6,857.3,89.5,857.3,89.5,857.3z"/>
<g id="XMLID_87_">
	<path id="XMLID_203_" class="st0" d="M137.7,964.2l-6.6,37.6h23.4l-1.4,7.9h-32l8-45.5H137.7z"/>
	<path id="XMLID_205_" class="st0" d="M193.2,993.7c-1.6,9.2-9.3,16.7-19.7,16.7s-15.3-7.5-13.7-16.7c1.6-9.2,9.3-16.7,19.5-16.7
		S194.9,984.5,193.2,993.7z M167.8,993.7c-0.9,4.9,1.3,9.4,7,9.4s9.5-4.6,10.4-9.4c0.8-4.8-1.7-9.5-7-9.5
		C172.5,984.2,168.7,988.9,167.8,993.7z"/>
	<path id="XMLID_208_" class="st0" d="M221,986.1c-1.9-2.1-4.4-2.9-7.4-2.9c-3.8,0-6.1,1.2-6.4,3.2c-0.4,2.1,1.3,3.3,5.4,3.5
		c6,0.4,13.4,1.8,11.9,10.3c-1,5.7-6.5,10.5-15.6,10.5c-5.1,0-10-0.8-13.8-5.7l4.9-5.7c1.8,2.5,6.7,4.4,10.3,4.5
		c3,0.1,6-1.5,6.5-3.8c0.4-2.2-1.3-3.1-5.8-3.4c-6-0.5-12.8-2.7-11.5-9.9c1.3-7.4,9.4-10,15.3-10c5,0,8.6,1,11.7,4.2L221,986.1z"/>
	<path id="XMLID_210_" class="st0" d="M275.3,1001.1h-23.8l-5.4,8.6h-9.3l28.4-45.5h9.4l12.4,45.5h-9.4L275.3,1001.1z M268.3,973.7
		l-11.9,19.4h16.9L268.3,973.7z"/>
	<path id="XMLID_213_" class="st0" d="M313.2,1009.7l3-16.8c0.9-4.9-1.2-8.6-6.2-8.6c-4.9,0-8.9,4.1-9.8,9l-2.9,16.4h-7.9l5.7-32.1
		h7.1l-0.2,4.4c3.8-3.2,7.3-4.8,11.4-4.8c7.5,0,12.6,5.7,10.8,15.7l-3,16.8H313.2z"/>
	<path id="XMLID_215_" class="st0" d="M359.3,974.4l5.1,4.4l-4.4,4.6c2,2.8,2.3,6,1.7,9.5c-0.7,4-3.2,9.6-8.9,12
		c4.9,2.7,5.5,6.5,4.8,10.6c-1.6,8.8-9.3,14.3-18.6,14.3c-9.3,0-15.3-5.7-13.7-14.3h7.9c-0.7,4.2,2.6,6.9,7.2,6.9s8.6-2.5,9.3-6.9
		c0.8-4.4-3-6.4-7-6.4c-10,0-15.2-6.1-13.4-16.1c1.8-10,10.1-16.3,19.1-16.3c2.5,0,5.1,0.3,7,1.8L359.3,974.4z M337.2,992.8
		c-1,5.6,2.2,8.9,6.8,8.9c4.5,0,8.9-3.4,9.9-8.9c1-5.5-2.2-9-6.7-9C342.5,983.8,338.2,987.3,337.2,992.8z"/>
	<path id="XMLID_218_" class="st0" d="M372.9,996.5c-0.2,4,2.8,6.8,8.4,6.8c2.9,0,7-1.1,9.1-3l4.2,5c-4,3.5-9.8,5.2-14.7,5.2
		c-11.1,0-16.4-6.8-14.6-17.1c1.7-9.8,9.6-16.8,20-16.8c10.7,0,16.3,6.6,12.7,19.8H372.9z M391.5,989.9c0.2-4.2-2.7-6.2-7.2-6.2
		c-4.3,0-8.2,2.1-10.1,6.2H391.5z"/>
	<path id="XMLID_221_" class="st0" d="M417.6,964.2l-8,45.4h-7.9l8-45.4H417.6z"/>
	<path id="XMLID_223_" class="st0" d="M425.6,996.5c-0.2,4,2.8,6.8,8.4,6.8c2.9,0,7-1.1,9.1-3l4.2,5c-4,3.5-9.8,5.2-14.7,5.2
		c-11.1,0-16.4-6.8-14.6-17.1c1.7-9.8,9.6-16.8,20-16.8c10.7,0,16.3,6.6,12.7,19.8H425.6z M444.2,989.9c0.2-4.2-2.7-6.2-7.2-6.2
		c-4.3,0-8.2,2.1-10.1,6.2H444.2z"/>
	<path id="XMLID_226_" class="st0" d="M479.5,986.1c-1.9-2.1-4.4-2.9-7.4-2.9c-3.8,0-6.1,1.2-6.4,3.2c-0.4,2.1,1.3,3.3,5.4,3.5
		c6,0.4,13.4,1.8,11.9,10.3c-1,5.7-6.5,10.5-15.6,10.5c-5.1,0-10-0.8-13.8-5.7l4.9-5.7c1.8,2.5,6.7,4.4,10.3,4.5
		c3,0.1,6-1.5,6.5-3.8c0.4-2.2-1.3-3.1-5.8-3.4c-6-0.5-12.8-2.7-11.5-9.9c1.3-7.4,9.4-10,15.3-10c5,0,8.6,1,11.7,4.2L479.5,986.1z"
		/>
</g>
<g id="XMLID_198_">
	<defs>
		<rect id="XMLID_199_" x="16.2" y="814.6" width="575.2" height="223.4"/>
	</defs>
	<clipPath id="XMLID_2_">
		<use xlink:href="#XMLID_199_"  style="overflow:visible;"/>
	</clipPath>
</g>
<polygon id="XMLID_197_" class="st0" points="1.7,917.5 1.7,851.6 49.7,851.6 49.7,863.6 14.3,863.6 14.3,881.6 47.8,881.6 
	47.8,893.1 14.3,893.1 14.3,917.5 "/>
<path id="XMLID_177_" class="st0" d="M158.4,885.2c0.3,10.8,6.1,22.4,21.7,22.4c15.5,0,21.4-11.7,21.6-22.5
	c0.2-11.1-6-23.5-21.6-23.5C164.6,861.5,158.2,874.1,158.4,885.2 M213.9,884.9c-0.2,17-10.6,34.1-33.8,34.1s-33.9-16.7-33.9-34
	c0-17.3,11.1-34.7,33.9-34.7C202.8,850.3,214.1,867.7,213.9,884.9"/>
<path id="XMLID_174_" class="st1" d="M158.4,885.2c0.3,10.8,6.1,22.4,21.7,22.4c15.5,0,21.4-11.7,21.6-22.5
	c0.2-11.1-6-23.5-21.6-23.5C164.6,861.5,158.2,874.1,158.4,885.2z M213.9,884.9c-0.2,17-10.6,34.1-33.8,34.1s-33.9-16.7-33.9-34
	c0-17.3,11.1-34.7,33.9-34.7C202.8,850.3,214.1,867.7,213.9,884.9z"/>
<path id="XMLID_171_" class="st0" d="M232.3,905.5h13.6c15,0,21-10.9,20.7-21.7c-0.3-10.3-6.3-20.5-20.7-20.5h-13.6V905.5z
	 M279,883.9c0.3,16.7-9.9,33.5-33.1,33.5h-26v-66h26C268.6,851.5,278.7,867.6,279,883.9"/>
<path id="XMLID_168_" class="st1" d="M232.3,905.5h13.6c15,0,21-10.9,20.7-21.7c-0.3-10.3-6.3-20.5-20.7-20.5h-13.6V905.5z
	 M279,883.9c0.3,16.7-9.9,33.5-33.1,33.5h-26v-66h26C268.6,851.5,278.7,867.6,279,883.9z"/>
<path id="XMLID_165_" class="st0" d="M312.7,885.2c0.3,10.8,6.1,22.4,21.7,22.4c15.5,0,21.4-11.7,21.6-22.5
	c0.2-11.1-6-23.5-21.6-23.5C318.9,861.5,312.5,874.1,312.7,885.2 M368.2,884.9c-0.2,17-10.6,34.1-33.8,34.1
	c-23.2,0-33.9-16.7-33.9-34c0-17.3,11.1-34.7,33.9-34.7C357.1,850.3,368.4,867.7,368.2,884.9"/>
<path id="XMLID_162_" class="st1" d="M312.7,885.2c0.3,10.8,6.1,22.4,21.7,22.4c15.5,0,21.4-11.7,21.6-22.5
	c0.2-11.1-6-23.5-21.6-23.5C318.9,861.5,312.5,874.1,312.7,885.2z M368.2,884.9c-0.2,17-10.6,34.1-33.8,34.1
	c-23.2,0-33.9-16.7-33.9-34c0-17.3,11.1-34.7,33.9-34.7C357.1,850.3,368.4,867.7,368.2,884.9z"/>
<rect id="XMLID_161_" x="16.2" y="814.6" class="st2" width="575.2" height="223.4"/>
<path id="XMLID_157_" class="st0" d="M404.7,865.4l-12.4,28.1h24.8L404.7,865.4z M422.1,905.1h-34.9l-5.7,12.4h-13.6l30-66h13.7
	l30,66h-13.7L422.1,905.1z"/>
<path id="XMLID_154_" class="st1" d="M404.7,865.4l-12.4,28.1h24.8L404.7,865.4z M422.1,905.1h-34.9l-5.7,12.4h-13.6l30-66h13.7
	l30,66h-13.7L422.1,905.1z"/>
<g id="XMLID_148_">
	<defs>
		<rect id="XMLID_149_" x="16.2" y="814.6" width="575.2" height="223.4"/>
	</defs>
	<clipPath id="XMLID_3_">
		<use xlink:href="#XMLID_149_"  style="overflow:visible;"/>
	</clipPath>
	<path id="XMLID_153_" class="st3" d="M484.4,867.5c-2.3-3.8-8.6-7.3-15.8-7.3c-9.3,0-13.8,3.9-13.8,8.7c0,5.7,6.9,7.3,14.8,8.3
		c13.9,1.7,26.8,5.3,26.8,21c0,14.7-13.1,21-28,21c-13.6,0-24.1-4.1-29-16.2l10.5-5.4c3,7.2,10.7,10.4,18.8,10.4
		c7.9,0,15.3-2.7,15.3-9.9c0-6.2-6.6-8.7-15.4-9.7c-13.6-1.6-26.2-5.2-26.2-19.9c0-13.5,13.5-19.1,25.8-19.2
		c10.4,0,21.1,2.9,26.2,13.1L484.4,867.5z"/>
	<path id="XMLID_152_" class="st4" d="M484.4,867.5c-2.3-3.8-8.6-7.3-15.8-7.3c-9.3,0-13.8,3.9-13.8,8.7c0,5.7,6.9,7.3,14.8,8.3
		c13.9,1.7,26.8,5.3,26.8,21c0,14.7-13.1,21-28,21c-13.6,0-24.1-4.1-29-16.2l10.5-5.4c3,7.2,10.7,10.4,18.8,10.4
		c7.9,0,15.3-2.7,15.3-9.9c0-6.2-6.6-8.7-15.4-9.7c-13.6-1.6-26.2-5.2-26.2-19.9c0-13.5,13.5-19.1,25.8-19.2
		c10.4,0,21.1,2.9,26.2,13.1L484.4,867.5z"/>
	<path id="XMLID_151_" class="st3" d="M569.9,867.5c-2.3-3.8-8.6-7.3-15.8-7.3c-9.3,0-13.8,3.9-13.8,8.7c0,5.7,6.9,7.3,14.8,8.3
		c13.9,1.7,26.8,5.3,26.8,21c0,14.7-13.1,21-28,21c-13.6,0-24.1-4.1-29-16.2l10.5-5.4c3,7.2,10.7,10.4,18.8,10.4
		c7.9,0,15.3-2.7,15.3-9.9c0-6.2-6.6-8.7-15.4-9.7c-13.6-1.6-26.2-5.2-26.2-19.9c0-13.5,13.5-19.1,25.8-19.2
		c10.4,0,21.1,2.9,26.2,13.1L569.9,867.5z"/>
	<path id="XMLID_150_" class="st4" d="M569.9,867.5c-2.3-3.8-8.6-7.3-15.8-7.3c-9.3,0-13.8,3.9-13.8,8.7c0,5.7,6.9,7.3,14.8,8.3
		c13.9,1.7,26.8,5.3,26.8,21c0,14.7-13.1,21-28,21c-13.6,0-24.1-4.1-29-16.2l10.5-5.4c3,7.2,10.7,10.4,18.8,10.4
		c7.9,0,15.3-2.7,15.3-9.9c0-6.2-6.6-8.7-15.4-9.7c-13.6-1.6-26.2-5.2-26.2-19.9c0-13.5,13.5-19.1,25.8-19.2
		c10.4,0,21.1,2.9,26.2,13.1L569.9,867.5z"/>
</g>
<rect id="XMLID_147_" x="503.8" y="851.5" class="st0" width="14" height="66"/>
<g id="XMLID_99_">
	<defs>
		<rect id="XMLID_122_" x="16.2" y="814.6" width="575.2" height="223.4"/>
	</defs>
	<clipPath id="XMLID_4_">
		<use xlink:href="#XMLID_122_"  style="overflow:visible;"/>
	</clipPath>
	<path id="XMLID_145_" class="st5" d="M499.6,853.2c0-2.7,1.7-4.6,4.4-4.7c2.8,0,5.5,2.7,5.5,5.5c0,2.5-2,4.5-4.4,4.6
		C502.3,858.6,499.7,856.1,499.6,853.2"/>
	<path id="XMLID_144_" class="st6" d="M499.6,853.2c0-2.7,1.7-4.6,4.4-4.7c2.8,0,5.5,2.7,5.5,5.5c0,2.5-2,4.5-4.4,4.6
		C502.3,858.6,499.7,856.1,499.6,853.2"/>
	<path id="XMLID_143_" class="st5" d="M506.2,850.6c-3,0.5-5.3,1.8-5.8,5.6c-0.3-0.1-0.6-0.3-0.8-0.4c0.4-1.6,0.5-3.4,1.3-4.7
		C501.9,849.1,503.8,849.1,506.2,850.6"/>
	<path id="XMLID_142_" class="st6" d="M506.2,850.6c-3,0.5-5.3,1.8-5.8,5.6c-0.3-0.1-0.6-0.3-0.8-0.4c0.4-1.6,0.5-3.4,1.3-4.7
		C501.9,849.1,503.8,849.1,506.2,850.6"/>
	<path id="XMLID_141_" class="st5" d="M511,856.6c-1.7-2-3.1-3.7-4.6-5.4c0.8-2.1,2.2-3,4.2-2.5c2.3,0.5,3.9,2.5,3.7,4.7
		C514.2,855.4,513.1,856.4,511,856.6"/>
	<path id="XMLID_140_" class="st6" d="M511,856.6c-1.7-2-3.1-3.7-4.6-5.4c0.8-2.1,2.2-3,4.2-2.5c2.3,0.5,3.9,2.5,3.7,4.7
		C514.2,855.4,513.1,856.4,511,856.6"/>
	<path id="XMLID_139_" class="st5" d="M519.6,852.4c14.1-0.2,11.1,9.8,11.6,8.8c4.1-6.6,2.2-15.3-3.4-18.3c-5.6-3-13.1,0.3-16.8,7.4
		C507.4,857.4,516.5,852.4,519.6,852.4"/>
	<path id="XMLID_138_" class="st6" d="M519.6,852.4c14.1-0.2,11.1,9.8,11.6,8.8c4.1-6.6,2.2-15.3-3.4-18.3c-5.6-3-13.1,0.3-16.8,7.4
		C507.4,857.4,516.5,852.4,519.6,852.4"/>
	<path id="XMLID_137_" class="st5" d="M499.7,847.5c-14.6-1.8-14.5,6.9-14.8,6.1c-2.2-6,2.5-13.1,9.2-15c6.7-1.9,13.5,1.7,15.1,8.1
		C510.8,853.1,502.9,847.9,499.7,847.5"/>
	<path id="XMLID_132_" class="st6" d="M499.7,847.5c-14.6-1.8-14.5,6.9-14.8,6.1c-2.2-6,2.5-13.1,9.2-15c6.7-1.9,13.5,1.7,15.1,8.1
		C510.8,853.1,502.9,847.9,499.7,847.5"/>
	<path id="XMLID_128_" class="st5" d="M497.8,838.9c-18.3-11-23,0-23-1.2c0.4-8.8,10.5-14.8,20.5-13.2c9.9,1.6,16.9,10.2,15.5,19.1
		C509.5,852.5,501.9,841.3,497.8,838.9"/>
	<path id="XMLID_127_" class="st6" d="M497.8,838.9c-18.3-11-23,0-23-1.2c0.4-8.8,10.5-14.8,20.5-13.2c9.9,1.6,16.9,10.2,15.5,19.1
		C509.5,852.5,501.9,841.3,497.8,838.9"/>
	<path id="XMLID_126_" class="st5" d="M523.4,842.5c18.3-11,23,0,23-1.2c-0.4-8.8-10.5-14.8-20.5-13.2c-9.9,1.6-16.9,10.2-15.5,19.1
		C511.7,856.1,519.4,844.9,523.4,842.5"/>
	<path id="XMLID_125_" class="st6" d="M523.4,842.5c18.3-11,23,0,23-1.2c-0.4-8.8-10.5-14.8-20.5-13.2c-9.9,1.6-16.9,10.2-15.5,19.1
		C511.7,856.1,519.4,844.9,523.4,842.5"/>
	<path id="XMLID_124_" class="st5" d="M513.2,841c1.8-22.6,13.2-21.4,12.2-22c-7.3-4.1-17.9,2.3-22.3,12.3
		c-4.4,10.1-1.6,20.9,6.3,24.1C517.4,858.7,512.9,845.9,513.2,841"/>
	<path id="XMLID_123_" class="st6" d="M513.2,841c1.8-22.6,13.2-21.4,12.2-22c-7.3-4.1-17.9,2.3-22.3,12.3
		c-4.4,10.1-1.6,20.9,6.3,24.1C517.4,858.7,512.9,845.9,513.2,841"/>
</g>
<rect id="XMLID_201_" x="-2.8" y="937.8" class="st0" width="593.7" height="11.2"/>
</svg>
