<?xml version="1.0" encoding="utf-8"?>
<!-- Generator: Adobe Illustrator 19.2.1, SVG Export Plug-In . SVG Version: 6.00 Build 0)  -->
<svg version="1.1" id="Layer_1" xmlns="http://www.w3.org/2000/svg" xmlns:xlink="http://www.w3.org/1999/xlink" x="0px" y="0px"
	 viewBox="0 0 578.4 225.7" style="enable-background:new 0 0 578.4 225.7;" xml:space="preserve">
<style type="text/css">
	.st0{fill:#010101;}
	.st1{clip-path:url(#SVGID_2_);fill:none;stroke:#FFFFFF;stroke-miterlimit:10;}
	.st2{fill:none;stroke:#FFFFFF;stroke-miterlimit:10;}
	.st3{clip-path:url(#SVGID_4_);fill:#010101;}
	.st4{clip-path:url(#SVGID_6_);fill:none;stroke:#FFFFFF;stroke-miterlimit:10;}
	.st5{clip-path:url(#SVGID_8_);fill:#010101;}
	.st6{clip-path:url(#SVGID_10_);fill:none;stroke:#FFFFFF;stroke-miterlimit:10;}
	.st7{clip-path:url(#SVGID_12_);fill:#010101;}
	.st8{clip-path:url(#SVGID_14_);fill:none;stroke:#FFFFFF;stroke-miterlimit:10;}
	.st9{clip-path:url(#SVGID_18_);fill:none;stroke:#FFFFFF;stroke-miterlimit:10;}
	.st10{fill:none;}
	.st11{clip-path:url(#SVGID_24_);fill:#010101;}
	.st12{clip-path:url(#SVGID_26_);fill:none;stroke:#FFFFFF;stroke-miterlimit:10;}
	.st13{clip-path:url(#SVGID_28_);fill:#010101;}
	.st14{clip-path:url(#SVGID_30_);fill:none;stroke:#FFFFFF;stroke-miterlimit:10;}
	.st15{clip-path:url(#SVGID_32_);fill:#010101;}
	.st16{clip-path:url(#SVGID_34_);fill:none;stroke:#FFFFFF;stroke-miterlimit:10;}
	.st17{clip-path:url(#SVGID_36_);fill:#010101;}
	.st18{clip-path:url(#SVGID_38_);fill:none;stroke:#FFFFFF;stroke-miterlimit:10;}
	.st19{clip-path:url(#SVGID_40_);fill:#010101;}
	.st20{clip-path:url(#SVGID_42_);fill:none;stroke:#FFFFFF;stroke-miterlimit:10;}
	.st21{clip-path:url(#SVGID_44_);fill:#010101;}
	.st22{clip-path:url(#SVGID_46_);fill:none;stroke:#FFFFFF;stroke-miterlimit:10;}
	.st23{clip-path:url(#SVGID_48_);fill:#010101;}
	.st24{clip-path:url(#SVGID_50_);fill:none;stroke:#FFFFFF;stroke-miterlimit:10;}
	.st25{clip-path:url(#SVGID_52_);fill:#010101;}
	.st26{clip-path:url(#SVGID_54_);fill:none;stroke:#FFFFFF;stroke-miterlimit:10;}
	.st27{clip-path:url(#SVGID_56_);fill:#010101;}
	.st28{clip-path:url(#SVGID_58_);fill:none;stroke:#FFFFFF;stroke-miterlimit:10;}
	.st29{clip-path:url(#SVGID_60_);fill:#010101;}
	.st30{clip-path:url(#SVGID_62_);fill:none;stroke:#FFFFFF;stroke-miterlimit:10;}
	.st31{clip-path:url(#SVGID_64_);fill:#010101;}
	.st32{clip-path:url(#SVGID_66_);fill:none;stroke:#FFFFFF;stroke-miterlimit:10;}
	.st33{clip-path:url(#SVGID_68_);fill:#010101;}
	.st34{clip-path:url(#SVGID_70_);fill:none;stroke:#FFFFFF;stroke-miterlimit:10;}
	.st35{clip-path:url(#SVGID_72_);fill:#010101;}
	.st36{clip-path:url(#SVGID_74_);fill:none;stroke:#FFFFFF;stroke-miterlimit:10;}
</style>
<g id="XMLID_87_">
	<path id="XMLID_203_" class="st0" d="M121.5,149.6l-6.6,37.6h23.4l-1.4,7.9h-32l8-45.5H121.5z"/>
	<path id="XMLID_205_" class="st0" d="M177,179.1c-1.6,9.2-9.3,16.7-19.7,16.7s-15.3-7.5-13.7-16.7s9.3-16.7,19.5-16.7
		S178.7,170,177,179.1z M151.6,179.1c-0.9,4.9,1.3,9.4,7,9.4s9.5-4.6,10.4-9.4c0.8-4.8-1.7-9.5-7-9.5
		C156.3,169.6,152.5,174.3,151.6,179.1z"/>
	<path id="XMLID_208_" class="st0" d="M204.8,171.6c-1.9-2.1-4.4-2.9-7.4-2.9c-3.8,0-6.1,1.2-6.4,3.2c-0.4,2.1,1.3,3.3,5.4,3.5
		c6,0.4,13.4,1.8,11.9,10.3c-1,5.7-6.5,10.5-15.6,10.5c-5.1,0-10-0.8-13.8-5.7l4.9-5.7c1.8,2.5,6.7,4.4,10.3,4.5
		c3,0.1,6-1.5,6.5-3.8c0.4-2.2-1.3-3.1-5.8-3.4c-6-0.5-12.8-2.7-11.5-9.9c1.3-7.4,9.4-10,15.3-10c5,0,8.6,1,11.7,4.2L204.8,171.6z"
		/>
	<path id="XMLID_210_" class="st0" d="M259.1,186.5h-23.8l-5.4,8.6h-9.3l28.4-45.5h9.4l12.4,45.5h-9.4L259.1,186.5z M252.1,159.2
		l-11.9,19.4h16.9L252.1,159.2z"/>
	<path id="XMLID_213_" class="st0" d="M297,195.1l3-16.8c0.9-4.9-1.2-8.6-6.2-8.6c-4.9,0-8.9,4.1-9.8,9l-2.9,16.4h-7.9l5.7-32.1h7.1
		l-0.2,4.4c3.8-3.2,7.3-4.8,11.4-4.8c7.5,0,12.6,5.7,10.8,15.7l-3,16.8H297z"/>
	<path id="XMLID_215_" class="st0" d="M343.1,159.8l5.1,4.4l-4.4,4.6c2,2.8,2.3,6,1.7,9.5c-0.7,4-3.2,9.6-8.9,12
		c4.9,2.7,5.5,6.5,4.8,10.6c-1.6,8.8-9.3,14.3-18.6,14.3c-9.3,0-15.3-5.7-13.7-14.3h7.9c-0.7,4.2,2.6,6.9,7.2,6.9s8.6-2.5,9.3-6.9
		c0.8-4.4-3-6.4-7-6.4c-10,0-15.2-6.1-13.4-16.1c1.8-10,10.1-16.3,19.1-16.3c2.5,0,5.1,0.3,7,1.8L343.1,159.8z M321,178.3
		c-1,5.6,2.2,8.9,6.8,8.9c4.5,0,8.9-3.4,9.9-8.9s-2.2-9-6.7-9C326.3,169.2,322,172.7,321,178.3z"/>
	<path id="XMLID_218_" class="st0" d="M356.7,181.9c-0.2,4,2.8,6.8,8.4,6.8c2.9,0,7-1.1,9.1-3l4.2,5c-4,3.5-9.8,5.2-14.7,5.2
		c-11.1,0-16.4-6.8-14.6-17.1c1.7-9.8,9.6-16.8,20-16.8c10.7,0,16.3,6.6,12.7,19.8h-25.1V181.9z M375.3,175.4
		c0.2-4.2-2.7-6.2-7.2-6.2c-4.3,0-8.2,2.1-10.1,6.2H375.3z"/>
	<path id="XMLID_221_" class="st0" d="M401.4,149.7l-8,45.4h-7.9l8-45.4H401.4z"/>
	<path id="XMLID_223_" class="st0" d="M409.4,181.9c-0.2,4,2.8,6.8,8.4,6.8c2.9,0,7-1.1,9.1-3l4.2,5c-4,3.5-9.8,5.2-14.7,5.2
		c-11.1,0-16.4-6.8-14.6-17.1c1.7-9.8,9.6-16.8,20-16.8c10.7,0,16.3,6.6,12.7,19.8h-25.1V181.9z M428,175.4c0.2-4.2-2.7-6.2-7.2-6.2
		c-4.3,0-8.2,2.1-10.1,6.2H428z"/>
	<path id="XMLID_226_" class="st0" d="M463.3,171.6c-1.9-2.1-4.4-2.9-7.4-2.9c-3.8,0-6.1,1.2-6.4,3.2c-0.4,2.1,1.3,3.3,5.4,3.5
		c6,0.4,13.4,1.8,11.9,10.3c-1,5.7-6.5,10.5-15.6,10.5c-5.1,0-10-0.8-13.8-5.7l4.9-5.7c1.8,2.5,6.7,4.4,10.3,4.5
		c3,0.1,6-1.5,6.5-3.8c0.4-2.2-1.3-3.1-5.8-3.4c-6-0.5-12.8-2.7-11.5-9.9c1.3-7.4,9.4-10,15.3-10c5,0,8.6,1,11.7,4.2L463.3,171.6z"
		/>
</g>
<rect id="XMLID_201_" x="0.5" y="123.2" class="st0" width="574.2" height="11.2"/>
<g id="XMLID_198_">
	<g>
		<defs>
			<rect id="SVGID_1_" width="575.2" height="223.4"/>
		</defs>
		<clipPath id="SVGID_2_">
			<use xlink:href="#SVGID_1_"  style="overflow:visible;"/>
		</clipPath>
		<rect id="XMLID_200_" x="0.5" y="123.2" class="st1" width="574.2" height="11.2"/>
	</g>
</g>
<polygon id="XMLID_197_" class="st0" points="5,102.9 5,37.1 53,37.1 53,49 17.6,49 17.6,67 51.1,67 51.1,78.5 17.6,78.5 
	17.6,102.9 "/>
<polygon id="XMLID_196_" class="st2" points="5,102.9 5,37.1 53,37.1 53,49 17.6,49 17.6,67 51.1,67 51.1,78.5 17.6,78.5 
	17.6,102.9 "/>
<g>
	<defs>
		<rect id="SVGID_3_" width="575.2" height="223.4"/>
	</defs>
	<clipPath id="SVGID_4_">
		<use xlink:href="#SVGID_3_"  style="overflow:visible;"/>
	</clipPath>
	<path id="XMLID_195_" class="st3" d="M96.1,29.8c0,1.9-0.1,3.2-0.6,4.4c-0.8,1.8-2.8,2.6-5,1.9c-1.8-0.5-2.3-1.8-2.5-3.2
		c-0.2-1.5,0.1-2.9,0.5-4.4c0.9-2.8,0.8-5.7,0.2-8.5c-0.2-1,0.2-1.6,1.3-1.8c0.9-0.2,1.8-0.2,2.7,0.1c0.7,0.2,1.2,0.6,1.3,1.2
		c0.6,2.2,1.2,4.4,1.6,6.6C95.9,27.5,96,29,96.1,29.8"/>
</g>
<g>
	<defs>
		<rect id="SVGID_5_" width="575.2" height="223.4"/>
	</defs>
	<clipPath id="SVGID_6_">
		<use xlink:href="#SVGID_5_"  style="overflow:visible;"/>
	</clipPath>
	<path id="XMLID_194_" class="st4" d="M96.1,29.8c0,1.9-0.1,3.2-0.6,4.4c-0.8,1.8-2.8,2.6-5,1.9c-1.8-0.5-2.3-1.8-2.5-3.2
		c-0.2-1.5,0.1-2.9,0.5-4.4c0.9-2.8,0.8-5.7,0.2-8.5c-0.2-1,0.2-1.6,1.3-1.8c0.9-0.2,1.8-0.2,2.7,0.1c0.7,0.2,1.2,0.6,1.3,1.2
		c0.6,2.2,1.2,4.4,1.6,6.6C95.9,27.5,96,29,96.1,29.8"/>
</g>
<g>
	<defs>
		<rect id="SVGID_7_" width="575.2" height="223.4"/>
	</defs>
	<clipPath id="SVGID_8_">
		<use xlink:href="#SVGID_7_"  style="overflow:visible;"/>
	</clipPath>
	<path id="XMLID_193_" class="st5" d="M95.9,35.5c1.2-3.1,1.1-6.3,0.8-9.4c0-0.4,0.1-0.6,0.4-0.9c3.4-2.8,6.5-5.9,8.8-9.5
		c0.5-0.8,0.9-1.5,1.5-2.3c-0.4,1.5-0.8,3.1-1.2,4.6c-1.2,4.3-2.7,8.5-5.1,12.4c-1.1,1.8-2.4,3.4-4.2,4.5
		C96.6,35.1,96.3,35.3,95.9,35.5"/>
</g>
<g>
	<defs>
		<rect id="SVGID_9_" width="575.2" height="223.4"/>
	</defs>
	<clipPath id="SVGID_10_">
		<use xlink:href="#SVGID_9_"  style="overflow:visible;"/>
	</clipPath>
	<path id="XMLID_192_" class="st6" d="M95.9,35.5c1.2-3.1,1.1-6.3,0.8-9.4c0-0.4,0.1-0.6,0.4-0.9c3.4-2.8,6.5-5.9,8.8-9.5
		c0.5-0.8,0.9-1.5,1.5-2.3c-0.4,1.5-0.8,3.1-1.2,4.6c-1.2,4.3-2.7,8.5-5.1,12.4c-1.1,1.8-2.4,3.4-4.2,4.5
		C96.6,35.1,96.3,35.3,95.9,35.5"/>
</g>
<g>
	<defs>
		<rect id="SVGID_11_" width="575.2" height="223.4"/>
	</defs>
	<clipPath id="SVGID_12_">
		<use xlink:href="#SVGID_11_"  style="overflow:visible;"/>
	</clipPath>
	<path id="XMLID_191_" class="st7" d="M87.4,34c-1.4-1.1-2.8-2.1-4.3-3.2c-3.4-2.4-6.9-4.5-11.2-5.6c-1.5-0.4-3.2-0.6-4.7-0.9
		c7.1-0.6,14.2-0.2,20.9,2.3c-0.7,2.4-1.1,4.8-0.6,7.3C87.5,34,87.5,34,87.4,34"/>
</g>
<g>
	<defs>
		<rect id="SVGID_13_" width="575.2" height="223.4"/>
	</defs>
	<clipPath id="SVGID_14_">
		<use xlink:href="#SVGID_13_"  style="overflow:visible;"/>
	</clipPath>
	<path id="XMLID_190_" class="st8" d="M87.4,34c-1.4-1.1-2.8-2.1-4.3-3.2c-3.4-2.4-6.9-4.5-11.2-5.6c-1.5-0.4-3.2-0.6-4.7-0.9
		c7.1-0.6,14.2-0.2,20.9,2.3c-0.7,2.4-1.1,4.8-0.6,7.3C87.5,34,87.5,34,87.4,34"/>
</g>
<g>
	<defs>
		<rect id="SVGID_15_" width="575.2" height="223.4"/>
	</defs>
	<clipPath id="SVGID_16_">
		<use xlink:href="#SVGID_15_"  style="overflow:visible;"/>
	</clipPath>
</g>
<g>
	<defs>
		<rect id="SVGID_17_" width="575.2" height="223.4"/>
	</defs>
	<clipPath id="SVGID_18_">
		<use xlink:href="#SVGID_17_"  style="overflow:visible;"/>
	</clipPath>
	<path id="XMLID_188_" class="st9" d="M92.3,100.2c15.8,0,28.7-13.4,28.7-29.9s-12.8-29.9-28.7-29.9S63.6,53.8,63.6,70.3
		S76.4,100.2,92.3,100.2"/>
</g>
<rect x="3.2" y="2.2" class="st10" width="575.2" height="223.4"/>
<path id="XMLID_187_" class="st0" d="M91.4,103c18.1,0,32.9-14.8,32.9-32.9s-14.7-32.9-32.9-32.9S58.6,51.9,58.6,70
	S73.2,103,91.4,103"/>
<g>
	<defs>
		<rect id="SVGID_19_" width="575.2" height="223.4"/>
	</defs>
	<clipPath id="SVGID_20_">
		<use xlink:href="#SVGID_19_"  style="overflow:visible;"/>
	</clipPath>
</g>
<g>
	<defs>
		<rect id="SVGID_21_" width="575.2" height="223.4"/>
	</defs>
	<clipPath id="SVGID_22_">
		<use xlink:href="#SVGID_21_"  style="overflow:visible;"/>
	</clipPath>
</g>
<rect class="st10" width="575.2" height="223.4"/>
<g>
	<defs>
		<rect id="SVGID_23_" width="575.2" height="223.4"/>
	</defs>
	<clipPath id="SVGID_24_">
		<use xlink:href="#SVGID_23_"  style="overflow:visible;"/>
	</clipPath>
	<path id="XMLID_177_" class="st11" d="M142.2,70.6c0.3,10.8,6.1,22.4,21.7,22.4c15.5,0,21.4-11.7,21.6-22.5
		c0.2-11.1-6-23.5-21.6-23.5C148.4,47,141.9,59.5,142.2,70.6 M197.7,70.3c-0.2,17-10.6,34.1-33.8,34.1S130,87.7,130,70.4
		s11.1-34.7,33.9-34.7C186.6,35.7,197.9,53.1,197.7,70.3"/>
</g>
<g>
	<defs>
		<rect id="SVGID_25_" width="575.2" height="223.4"/>
	</defs>
	<clipPath id="SVGID_26_">
		<use xlink:href="#SVGID_25_"  style="overflow:visible;"/>
	</clipPath>
	<path id="XMLID_174_" class="st12" d="M142.2,70.6c0.3,10.8,6.1,22.4,21.7,22.4c15.5,0,21.4-11.7,21.6-22.5
		c0.2-11.1-6-23.5-21.6-23.5C148.4,47,141.9,59.5,142.2,70.6z M197.7,70.3c-0.2,17-10.6,34.1-33.8,34.1S130,87.7,130,70.4
		s11.1-34.7,33.9-34.7C186.6,35.7,197.9,53.1,197.7,70.3z"/>
</g>
<g>
	<defs>
		<rect id="SVGID_27_" width="575.2" height="223.4"/>
	</defs>
	<clipPath id="SVGID_28_">
		<use xlink:href="#SVGID_27_"  style="overflow:visible;"/>
	</clipPath>
	<path id="XMLID_171_" class="st13" d="M216.1,91h13.6c15,0,21-10.9,20.7-21.7c-0.3-10.3-6.3-20.5-20.7-20.5h-13.6V91z M262.8,69.4
		c0.3,16.7-9.9,33.5-33.1,33.5h-26v-66h26C252.4,37,262.5,53.1,262.8,69.4"/>
</g>
<g>
	<defs>
		<rect id="SVGID_29_" width="575.2" height="223.4"/>
	</defs>
	<clipPath id="SVGID_30_">
		<use xlink:href="#SVGID_29_"  style="overflow:visible;"/>
	</clipPath>
	<path id="XMLID_168_" class="st14" d="M216.1,91h13.6c15,0,21-10.9,20.7-21.7c-0.3-10.3-6.3-20.5-20.7-20.5h-13.6V91z M262.8,69.4
		c0.3,16.7-9.9,33.5-33.1,33.5h-26v-66h26C252.4,37,262.5,53.1,262.8,69.4z"/>
</g>
<g>
	<defs>
		<rect id="SVGID_31_" width="575.2" height="223.4"/>
	</defs>
	<clipPath id="SVGID_32_">
		<use xlink:href="#SVGID_31_"  style="overflow:visible;"/>
	</clipPath>
	<path id="XMLID_165_" class="st15" d="M296.5,70.6c0.3,10.8,6.1,22.4,21.7,22.4c15.5,0,21.4-11.7,21.6-22.5
		c0.2-11.1-6-23.5-21.6-23.5C302.6,47,296.2,59.5,296.5,70.6 M352,70.3c-0.2,17-10.6,34.1-33.8,34.1s-33.9-16.7-33.9-34
		s11.1-34.7,33.9-34.7C340.9,35.7,352.2,53.1,352,70.3"/>
</g>
<g>
	<defs>
		<rect id="SVGID_33_" width="575.2" height="223.4"/>
	</defs>
	<clipPath id="SVGID_34_">
		<use xlink:href="#SVGID_33_"  style="overflow:visible;"/>
	</clipPath>
	<path id="XMLID_162_" class="st16" d="M296.5,70.6c0.3,10.8,6.1,22.4,21.7,22.4c15.5,0,21.4-11.7,21.6-22.5
		c0.2-11.1-6-23.5-21.6-23.5C302.6,47,296.2,59.5,296.5,70.6z M352,70.3c-0.2,17-10.6,34.1-33.8,34.1s-33.9-16.7-33.9-34
		s11.1-34.7,33.9-34.7C340.9,35.7,352.2,53.1,352,70.3z"/>
</g>
<path id="XMLID_157_" class="st0" d="M388.5,50.8l-12.4,28.1h24.8L388.5,50.8z M405.9,90.5H371l-5.7,12.4h-13.6l29.9-66h13.7l30,66
	h-13.7L405.9,90.5z"/>
<path id="XMLID_154_" class="st2" d="M388.5,50.8l-12.4,28.1h24.8L388.5,50.8z M405.9,90.5H371l-5.7,12.4h-13.6l29.9-66h13.7l30,66
	h-13.7L405.9,90.5z"/>
<g id="XMLID_148_">
	<g>
		<defs>
			<rect id="SVGID_35_" width="575.2" height="223.4"/>
		</defs>
		<clipPath id="SVGID_36_">
			<use xlink:href="#SVGID_35_"  style="overflow:visible;"/>
		</clipPath>
		<path id="XMLID_153_" class="st17" d="M468.2,52.9c-2.3-3.8-8.6-7.3-15.8-7.3c-9.3,0-13.8,3.9-13.8,8.7c0,5.7,6.9,7.3,14.8,8.3
			c13.9,1.7,26.8,5.3,26.8,21c0,14.7-13.1,21-28,21c-13.6,0-24.1-4.1-29-16.2l10.5-5.4c3,7.2,10.7,10.4,18.8,10.4
			c7.9,0,15.3-2.7,15.3-9.9c0-6.2-6.6-8.7-15.4-9.7c-13.6-1.6-26.2-5.2-26.2-19.9c0-13.5,13.5-19.1,25.8-19.2
			c10.4,0,21.1,2.9,26.2,13.1L468.2,52.9z"/>
	</g>
	<g>
		<defs>
			<rect id="SVGID_37_" width="575.2" height="223.4"/>
		</defs>
		<clipPath id="SVGID_38_">
			<use xlink:href="#SVGID_37_"  style="overflow:visible;"/>
		</clipPath>
		<path id="XMLID_152_" class="st18" d="M468.2,52.9c-2.3-3.8-8.6-7.3-15.8-7.3c-9.3,0-13.8,3.9-13.8,8.7c0,5.7,6.9,7.3,14.8,8.3
			c13.9,1.7,26.8,5.3,26.8,21c0,14.7-13.1,21-28,21c-13.6,0-24.1-4.1-29-16.2l10.5-5.4c3,7.2,10.7,10.4,18.8,10.4
			c7.9,0,15.3-2.7,15.3-9.9c0-6.2-6.6-8.7-15.4-9.7c-13.6-1.6-26.2-5.2-26.2-19.9c0-13.5,13.5-19.1,25.8-19.2
			c10.4,0,21.1,2.9,26.2,13.1L468.2,52.9z"/>
	</g>
	<g>
		<defs>
			<rect id="SVGID_39_" width="575.2" height="223.4"/>
		</defs>
		<clipPath id="SVGID_40_">
			<use xlink:href="#SVGID_39_"  style="overflow:visible;"/>
		</clipPath>
		<path id="XMLID_151_" class="st19" d="M553.7,52.9c-2.3-3.8-8.6-7.3-15.8-7.3c-9.3,0-13.8,3.9-13.8,8.7c0,5.7,6.9,7.3,14.8,8.3
			c13.9,1.7,26.8,5.3,26.8,21c0,14.7-13.1,21-28,21c-13.6,0-24.1-4.1-29-16.2l10.5-5.4c3,7.2,10.7,10.4,18.8,10.4
			c7.9,0,15.3-2.7,15.3-9.9c0-6.2-6.6-8.7-15.4-9.7c-13.6-1.6-26.2-5.2-26.2-19.9c0-13.5,13.5-19.1,25.8-19.2
			c10.4,0,21.1,2.9,26.2,13.1L553.7,52.9z"/>
	</g>
	<g>
		<defs>
			<rect id="SVGID_41_" width="575.2" height="223.4"/>
		</defs>
		<clipPath id="SVGID_42_">
			<use xlink:href="#SVGID_41_"  style="overflow:visible;"/>
		</clipPath>
		<path id="XMLID_150_" class="st20" d="M553.7,52.9c-2.3-3.8-8.6-7.3-15.8-7.3c-9.3,0-13.8,3.9-13.8,8.7c0,5.7,6.9,7.3,14.8,8.3
			c13.9,1.7,26.8,5.3,26.8,21c0,14.7-13.1,21-28,21c-13.6,0-24.1-4.1-29-16.2l10.5-5.4c3,7.2,10.7,10.4,18.8,10.4
			c7.9,0,15.3-2.7,15.3-9.9c0-6.2-6.6-8.7-15.4-9.7c-13.6-1.6-26.2-5.2-26.2-19.9c0-13.5,13.5-19.1,25.8-19.2
			c10.4,0,21.1,2.9,26.2,13.1L553.7,52.9z"/>
	</g>
</g>
<rect id="XMLID_147_" x="487.6" y="37" class="st0" width="14" height="66"/>
<g id="XMLID_99_">
	<g>
		<defs>
			<rect id="SVGID_43_" width="575.2" height="223.4"/>
		</defs>
		<clipPath id="SVGID_44_">
			<use xlink:href="#SVGID_43_"  style="overflow:visible;"/>
		</clipPath>
		<path id="XMLID_145_" class="st21" d="M483.4,38.6c0-2.7,1.7-4.6,4.4-4.7c2.8,0,5.5,2.7,5.5,5.5c0,2.5-2,4.5-4.4,4.6
			C486.1,44.1,483.4,41.5,483.4,38.6"/>
	</g>
	<g>
		<defs>
			<rect id="SVGID_45_" width="575.2" height="223.4"/>
		</defs>
		<clipPath id="SVGID_46_">
			<use xlink:href="#SVGID_45_"  style="overflow:visible;"/>
		</clipPath>
		<path id="XMLID_144_" class="st22" d="M483.4,38.6c0-2.7,1.7-4.6,4.4-4.7c2.8,0,5.5,2.7,5.5,5.5c0,2.5-2,4.5-4.4,4.6
			C486.1,44.1,483.4,41.5,483.4,38.6"/>
	</g>
	<g>
		<defs>
			<rect id="SVGID_47_" width="575.2" height="223.4"/>
		</defs>
		<clipPath id="SVGID_48_">
			<use xlink:href="#SVGID_47_"  style="overflow:visible;"/>
		</clipPath>
		<path id="XMLID_143_" class="st23" d="M488.6,33.4c-3,0.5-5.3,1.8-5.8,5.6c-0.3-0.2-0.6-0.3-0.8-0.4c0.4-1.6,0.5-3.4,1.3-4.7
			C484.4,31.9,486.2,31.9,488.6,33.4"/>
	</g>
	<g>
		<defs>
			<rect id="SVGID_49_" width="575.2" height="223.4"/>
		</defs>
		<clipPath id="SVGID_50_">
			<use xlink:href="#SVGID_49_"  style="overflow:visible;"/>
		</clipPath>
		<path id="XMLID_142_" class="st24" d="M488.6,33.4c-3,0.5-5.3,1.8-5.8,5.6c-0.3-0.2-0.6-0.3-0.8-0.4c0.4-1.6,0.5-3.4,1.3-4.7
			C484.4,31.9,486.2,31.9,488.6,33.4"/>
	</g>
	<g>
		<defs>
			<rect id="SVGID_51_" width="575.2" height="223.4"/>
		</defs>
		<clipPath id="SVGID_52_">
			<use xlink:href="#SVGID_51_"  style="overflow:visible;"/>
		</clipPath>
		<path id="XMLID_141_" class="st25" d="M493.5,39.4c-1.7-2-3.1-3.7-4.6-5.4c0.8-2.1,2.2-3,4.2-2.5c2.3,0.5,3.9,2.5,3.7,4.7
			C496.7,38.1,495.5,39.1,493.5,39.4"/>
	</g>
	<g>
		<defs>
			<rect id="SVGID_53_" width="575.2" height="223.4"/>
		</defs>
		<clipPath id="SVGID_54_">
			<use xlink:href="#SVGID_53_"  style="overflow:visible;"/>
		</clipPath>
		<path id="XMLID_140_" class="st26" d="M493.5,39.4c-1.7-2-3.1-3.7-4.6-5.4c0.8-2.1,2.2-3,4.2-2.5c2.3,0.5,3.9,2.5,3.7,4.7
			C496.7,38.1,495.5,39.1,493.5,39.4"/>
	</g>
	<g>
		<defs>
			<rect id="SVGID_55_" width="575.2" height="223.4"/>
		</defs>
		<clipPath id="SVGID_56_">
			<use xlink:href="#SVGID_55_"  style="overflow:visible;"/>
		</clipPath>
		<path id="XMLID_139_" class="st27" d="M502.1,35.2c14.1-0.2,11.1,9.8,11.6,8.8c4.1-6.6,2.2-15.3-3.4-18.3
			c-5.6-3-13.1,0.3-16.8,7.4C489.8,40.1,499,35.2,502.1,35.2"/>
	</g>
	<g>
		<defs>
			<rect id="SVGID_57_" width="575.2" height="223.4"/>
		</defs>
		<clipPath id="SVGID_58_">
			<use xlink:href="#SVGID_57_"  style="overflow:visible;"/>
		</clipPath>
		<path id="XMLID_138_" class="st28" d="M502.1,35.2c14.1-0.2,11.1,9.8,11.6,8.8c4.1-6.6,2.2-15.3-3.4-18.3
			c-5.6-3-13.1,0.3-16.8,7.4C489.8,40.1,499,35.2,502.1,35.2"/>
	</g>
	<g>
		<defs>
			<rect id="SVGID_59_" width="575.2" height="223.4"/>
		</defs>
		<clipPath id="SVGID_60_">
			<use xlink:href="#SVGID_59_"  style="overflow:visible;"/>
		</clipPath>
		<path id="XMLID_137_" class="st29" d="M482.1,30.3c-14.6-1.8-14.5,6.9-14.8,6.1c-2.2-6,2.5-13.1,9.2-15s13.5,1.7,15.1,8.1
			C493.2,35.9,485.3,30.7,482.1,30.3"/>
	</g>
	<g>
		<defs>
			<rect id="SVGID_61_" width="575.2" height="223.4"/>
		</defs>
		<clipPath id="SVGID_62_">
			<use xlink:href="#SVGID_61_"  style="overflow:visible;"/>
		</clipPath>
		<path id="XMLID_132_" class="st30" d="M482.1,30.3c-14.6-1.8-14.5,6.9-14.8,6.1c-2.2-6,2.5-13.1,9.2-15s13.5,1.7,15.1,8.1
			C493.2,35.9,485.3,30.7,482.1,30.3"/>
	</g>
	<g>
		<defs>
			<rect id="SVGID_63_" width="575.2" height="223.4"/>
		</defs>
		<clipPath id="SVGID_64_">
			<use xlink:href="#SVGID_63_"  style="overflow:visible;"/>
		</clipPath>
		<path id="XMLID_128_" class="st31" d="M480.3,21.6c-18.3-11-23,0-23-1.2c0.4-8.8,10.5-14.8,20.5-13.2c9.9,1.6,16.9,10.2,15.5,19.1
			C492,35.3,484.3,24.1,480.3,21.6"/>
	</g>
	<g>
		<defs>
			<rect id="SVGID_65_" width="575.2" height="223.4"/>
		</defs>
		<clipPath id="SVGID_66_">
			<use xlink:href="#SVGID_65_"  style="overflow:visible;"/>
		</clipPath>
		<path id="XMLID_127_" class="st32" d="M480.3,21.6c-18.3-11-23,0-23-1.2c0.4-8.8,10.5-14.8,20.5-13.2c9.9,1.6,16.9,10.2,15.5,19.1
			C492,35.3,484.3,24.1,480.3,21.6"/>
	</g>
	<g>
		<defs>
			<rect id="SVGID_67_" width="575.2" height="223.4"/>
		</defs>
		<clipPath id="SVGID_68_">
			<use xlink:href="#SVGID_67_"  style="overflow:visible;"/>
		</clipPath>
		<path id="XMLID_126_" class="st33" d="M505.9,25.3c18.3-11,23,0,23-1.2c-0.4-8.8-10.5-14.8-20.5-13.2
			c-9.9,1.6-16.9,10.2-15.5,19.1C494.2,38.9,501.8,27.7,505.9,25.3"/>
	</g>
	<g>
		<defs>
			<rect id="SVGID_69_" width="575.2" height="223.4"/>
		</defs>
		<clipPath id="SVGID_70_">
			<use xlink:href="#SVGID_69_"  style="overflow:visible;"/>
		</clipPath>
		<path id="XMLID_125_" class="st34" d="M505.9,25.3c18.3-11,23,0,23-1.2c-0.4-8.8-10.5-14.8-20.5-13.2
			c-9.9,1.6-16.9,10.2-15.5,19.1C494.2,38.9,501.8,27.7,505.9,25.3"/>
	</g>
	<g>
		<defs>
			<rect id="SVGID_71_" width="575.2" height="223.4"/>
		</defs>
		<clipPath id="SVGID_72_">
			<use xlink:href="#SVGID_71_"  style="overflow:visible;"/>
		</clipPath>
		<path id="XMLID_124_" class="st35" d="M495.7,23.7c1.8-22.6,13.2-21.4,12.2-22C500.6-2.4,490,4,485.6,14
			c-4.4,10.1-1.6,20.9,6.3,24.1C499.9,41.5,495.3,28.7,495.7,23.7"/>
	</g>
	<g>
		<defs>
			<rect id="SVGID_73_" width="575.2" height="223.4"/>
		</defs>
		<clipPath id="SVGID_74_">
			<use xlink:href="#SVGID_73_"  style="overflow:visible;"/>
		</clipPath>
		<path id="XMLID_123_" class="st36" d="M495.7,23.7c1.8-22.6,13.2-21.4,12.2-22C500.6-2.4,490,4,485.6,14
			c-4.4,10.1-1.6,20.9,6.3,24.1C499.9,41.5,495.3,28.7,495.7,23.7"/>
	</g>
</g>
</svg>
