<?xml version="1.0" encoding="utf-8"?>
<!-- Generator: Adobe Illustrator 19.0.0, SVG Export Plug-In . SVG Version: 6.00 Build 0)  -->
<svg version="1.1" id="Layer_1" xmlns="http://www.w3.org/2000/svg" xmlns:xlink="http://www.w3.org/1999/xlink" x="0px" y="0px"
	 viewBox="0 0 612 792" style="enable-background:new 0 0 612 792;" xml:space="preserve">
<style type="text/css">
	.st0{fill:#33348E;}
	.st1{fill:#FFFFFF;}
</style>
<path id="XMLID_1_" class="st0" d="M354.1,513.9h-79c-28.2,0-51-22.8-51-51v-79c0-28.2,22.8-51,51-51h79c28.2,0,51,22.8,51,51v79
	C405.1,491.1,382.3,513.9,354.1,513.9z"/>
<path id="XMLID_276_" class="st1" d="M376.2,387.9c0,1.4-0.4,2.5-1.3,3.5c-0.3,0.3-0.5,0.6-0.8,0.8c-26.4,26.4-52.9,52.9-79.3,79.3
	c-1.6,1.6-3.4,2.4-5.6,1.7c-0.8-0.3-1.6-0.8-2.2-1.4c-10.8-10.7-21.5-21.5-32.3-32.2c-2.2-2.2-2.1-5.2,0.1-7.4
	c3.1-3.1,6.1-6.2,9.2-9.2c2.3-2.3,5.3-2.3,7.7,0c5,5,9.9,9.9,14.9,14.9c2.7,2.7,5.5,2.7,8.2,0c20.9-20.9,41.8-41.8,62.7-62.7
	c1.6-1.6,3.4-2.4,5.6-1.6c0.8,0.3,1.5,0.8,2.1,1.4c3.2,3.1,6.3,6.2,9.4,9.4C375.7,385.3,376.2,386.5,376.2,387.9z"/>
</svg>
