<?xml version="1.0" encoding="utf-8"?>
<!-- Generator: Adobe Illustrator 19.2.1, SVG Export Plug-In . SVG Version: 6.00 Build 0)  -->
<svg version="1.1" xmlns="http://www.w3.org/2000/svg" xmlns:xlink="http://www.w3.org/1999/xlink" x="0px" y="0px"
	 viewBox="0 0 41.3 55" style="enable-background:new 0 0 41.3 55;" xml:space="preserve">
<g id="Layer_4">
	<path id="XMLID_1_" fill="#FFFFFF" d="M20.7,8c6.8,0,12.5,5.6,12.5,12.5c0,6.9-5.7,12.5-12.5,12.5c-6.9,0-12.5-5.7-12.5-12.5
		C8.2,13.7,13.8,8,20.7,8z"/>
</g>
<g id="Layer_1">
	<g>
		<g id="XMLID_336_">
			<path id="XMLID_577_" fill="#F9C058" d="M26.3,16.4c0,1-0.2,2-0.7,2.9c-0.5,0.9-1.2,1.5-2,1.9c-0.7,0.3-1.4,0.5-2.1,0.5
				c-1.2,0.1-2.3-0.2-3.3-0.8c-1.3-0.8-2.1-1.9-2.4-3.5c-0.2-0.9-0.1-1.7,0.2-2.6c0.2-0.4,0.4-0.8,0.7-1.2c0.5-0.5,1-0.6,1.6-0.3
				c0.4,0.2,0.8,0.4,1.1,0.7c0.6,0.6,1.3,0.7,2,0.7c0.5,0,1-0.2,1.3-0.6c0.2-0.2,0.3-0.4,0.5-0.7c0.1-0.3,0.3-0.4,0.6-0.5
				c0.2,0,0.3,0,0.5,0.1c0.7,0.2,1.2,0.7,1.5,1.4C26.2,15.2,26.3,15.8,26.3,16.4z"/>
			<path id="XMLID_576_" fill="#F9C058" d="M21.6,13.4c0,0.3,0,0.6-0.1,0.8c-0.1,0.3-0.4,0.5-0.7,0.3c-0.2-0.1-0.3-0.3-0.3-0.6
				c0-0.3,0-0.5,0.1-0.8c0.1-0.5,0.1-1,0-1.5c0-0.2,0-0.3,0.2-0.3c0.1,0,0.2,0,0.4,0c0.1,0,0.2,0.1,0.2,0.2c0.1,0.4,0.2,0.8,0.2,1.2
				C21.6,13,21.6,13.2,21.6,13.4z"/>
			<path id="XMLID_575_" fill="#F9C058" d="M22,14.4c0.2-0.5,0.1-0.9,0.1-1.4c0-0.1,0-0.1,0-0.1c0.5-0.4,0.9-0.9,1.2-1.4
				c0.1-0.1,0.1-0.2,0.2-0.3c-0.1,0.2-0.1,0.5-0.2,0.7c-0.2,0.6-0.4,1.3-0.7,1.8c-0.1,0.3-0.3,0.5-0.6,0.7
				C22.1,14.3,22,14.3,22,14.4z"/>
			<path id="XMLID_574_" fill="#F9C058" d="M20.1,14.1c-0.2-0.2-0.3-0.3-0.5-0.5c-0.4-0.4-0.9-0.7-1.4-0.9c-0.2-0.1-0.4-0.1-0.6-0.1
				c0.9-0.1,1.7,0,2.6,0.4C20.1,13.3,20,13.7,20.1,14.1C20.1,14.1,20.1,14.1,20.1,14.1z"/>
			<path id="XMLID_345_" fill="#F9C058" d="M27.3,20.2c0.2,0,0.4,0,0.5,0c0.5,0,0.9-0.1,1.3-0.3c0.1-0.1,0.2-0.1,0.3-0.2
				c0,0,0.1,0,0.1,0c0.1,0,0.2,0.1,0.2,0.3c0,0.2,0,0.5,0,0.7c0,0,0,0,0,0.1c0.1,0.1,0.2,0.2,0.4,0.3c0,0,0,0,0.1,0
				c0.6,0.2,1,0.6,1.2,1.3c0.1,0.5,0.2,1,0.1,1.5c-0.2,1.6-1,2.7-2.1,3.6c-0.6,0.4-1.2,0.7-1.9,0.9c-0.6,0.2-1.2,0.1-1.8-0.2
				c-0.2-0.1-0.4-0.2-0.5-0.4c0,0-0.1-0.1,0-0.1c0-0.2,0-0.3,0.1-0.5c0,0,0-0.1,0-0.1c0.4-0.2,0.9-0.5,1.3-0.7
				c0.3-0.1,0.6-0.2,0.9-0.3c1.1-0.5,1.8-1.4,2-2.7c0-0.2,0-0.4,0.1-0.6c0-0.3,0-0.7,0-1c0-0.3-0.1-0.6-0.3-0.8c0,0-0.1,0-0.1,0
				c-0.1-0.1-0.2-0.1-0.2-0.2c-0.1,0-0.1,0-0.2,0c0,0,0,0,0,0c0,0,0.1,0.1,0.1,0.1c0.1,0,0.1,0.2,0.2,0.2c0,0.1,0.1,0.1,0.1,0.2
				c0,0.1,0.1,0.2,0.2,0.2c0.1,0,0.1,0.1,0.1,0.2c0,0.2,0,0.3,0,0.5c0,0.3,0,0.7,0,1c-0.2,1.3-0.8,2.3-2,2.9
				c-0.3,0.1-0.6,0.2-0.9,0.3c-0.4,0.1-0.7,0.2-1.1,0.4c0,0-0.1,0-0.1,0c-0.6,0-1.2-0.1-1.7-0.4c-0.5-0.3-0.9-0.6-1.1-1.2
				c0-0.1,0-0.1,0-0.2c0.1-0.1,0.1-0.2,0.2-0.3c0,0,0.1-0.1,0.1-0.1c0.3,0,0.6,0,0.8,0c0.3,0,0.7,0,1,0.1c1.2,0.2,2.2-0.3,3-1.3
				c0.2-0.2,0.3-0.4,0.4-0.6c0.1-0.3,0.3-0.6,0.4-0.9c0.1-0.3,0.1-0.5,0.1-0.8c0-0.1-0.1-0.2-0.2-0.3c0,0-0.1,0-0.1,0
				c-0.1,0-0.1,0-0.2,0c0,0.2,0,0.4,0.2,0.6c0,0,0,0,0,0c0.2,0.2,0.2,0.3,0.1,0.6c-0.2,0.3-0.4,0.7-0.5,1c-0.2,0.4-0.5,0.7-0.9,1
				c-0.6,0.5-1.3,0.6-2.1,0.6c-0.3,0-0.5-0.1-0.8-0.1c-0.2,0-0.5,0-0.7-0.1c0,0-0.1,0-0.1,0c-0.4-0.3-0.7-0.7-0.8-1.2
				c0-0.1,0-0.1,0-0.1c0.1-0.1,0.1-0.2,0.2-0.2c0,0,0.1,0,0.1,0c0.4,0.1,0.9,0.1,1.3,0.3c0.2,0.1,0.5,0.1,0.7,0.2
				c0.6,0.1,1.1-0.1,1.6-0.4c0.3-0.2,0.5-0.4,0.7-0.7c0.1-0.2,0.3-0.4,0.4-0.6c0.1-0.2,0.2-0.4,0.2-0.7c0-0.1-0.1-0.2-0.1-0.3
				c0,0,0-0.1,0-0.1C27.3,20.5,27.3,20.4,27.3,20.2z M30,21.8c-0.1,0.1-0.1,0.3-0.1,0.4c0.2,0.6,0.2,1.2,0,1.7
				c-0.3,0.9-0.8,1.7-1.5,2.3c-0.6,0.6-1.4,0.9-2.2,1.1c-0.2,0.1-0.4,0.1-0.6,0.1c0.2,0,0.4,0,0.5,0c0.6,0,1.1-0.2,1.6-0.4
				c1.1-0.6,1.8-1.5,2.3-2.6c0.1-0.4,0.3-0.7,0.3-1.1c0-0.5-0.1-0.9-0.2-1.4C30,21.9,30,21.8,30,21.8z M22.9,25.2
				C22.9,25.2,22.9,25.2,22.9,25.2c0.2,0.1,0.3,0.1,0.4,0.2c0.7,0.3,1.4,0.4,2.2,0.2c1.1-0.2,1.9-0.8,2.7-1.6c0.2-0.3,0.5-0.6,0.5-1
				c0-0.3,0.1-0.5,0.1-0.8c0,0,0-0.1,0-0.1c-0.2,0.1-0.2,0.2-0.2,0.3c0,0.5-0.2,1-0.5,1.4c-0.8,1-1.8,1.5-3,1.6
				c-0.6,0.1-1.1,0-1.7-0.1C23.2,25.2,23.1,25.2,22.9,25.2z M22.7,23.3C22.7,23.3,22.7,23.3,22.7,23.3c0.1,0.1,0.3,0.2,0.4,0.3
				c0.6,0.4,1.2,0.5,1.9,0.4c0.7-0.1,1.3-0.3,1.8-0.8c0.4-0.3,0.7-0.8,0.8-1.3c0,0,0-0.1,0-0.2c-0.1,0-0.2,0.1-0.2,0.2
				c-0.1,0.4-0.3,0.8-0.6,1c-0.7,0.6-1.6,0.8-2.5,0.8C23.8,23.8,23.3,23.6,22.7,23.3C22.8,23.3,22.8,23.3,22.7,23.3z"/>
			<path id="XMLID_260_" fill="#F9C058" d="M30,21.8c0,0.1,0.1,0.1,0.1,0.1c0.2,0.4,0.3,0.9,0.2,1.4c0,0.4-0.2,0.8-0.3,1.1
				c-0.5,1.2-1.2,2.1-2.3,2.6c-0.5,0.3-1,0.4-1.6,0.4c-0.2,0-0.4,0-0.5,0c0.2,0,0.4-0.1,0.6-0.1c0.8-0.2,1.5-0.5,2.2-1.1
				c0.7-0.6,1.2-1.4,1.5-2.3c0.2-0.6,0.2-1.2,0-1.7C29.8,22.1,29.8,21.9,30,21.8z"/>
			<path id="XMLID_259_" fill="#F9C058" d="M22.9,25.2c0.1,0,0.3,0.1,0.4,0.1c0.6,0.1,1.1,0.2,1.7,0.1c1.2-0.1,2.2-0.6,3-1.6
				c0.3-0.4,0.5-0.8,0.5-1.4c0-0.1,0.1-0.3,0.2-0.3c0,0,0,0.1,0,0.1c0,0.3,0,0.5-0.1,0.8c-0.1,0.4-0.3,0.7-0.5,1
				c-0.7,0.9-1.6,1.4-2.7,1.6c-0.7,0.1-1.5,0-2.2-0.2C23.2,25.3,23.1,25.2,22.9,25.2C22.9,25.2,22.9,25.2,22.9,25.2z"/>
			<path id="XMLID_258_" fill="#F9C058" d="M22.7,23.3C22.8,23.3,22.8,23.3,22.7,23.3c0.6,0.3,1,0.4,1.6,0.5c0.9,0.1,1.7-0.1,2.5-0.8
				c0.3-0.3,0.5-0.6,0.6-1c0-0.1,0.1-0.2,0.2-0.2c0,0.1,0,0.1,0,0.2c-0.1,0.6-0.3,1-0.8,1.3c-0.5,0.4-1.1,0.7-1.8,0.8
				c-0.7,0.1-1.3-0.1-1.9-0.4C23,23.5,22.9,23.4,22.7,23.3C22.7,23.3,22.7,23.3,22.7,23.3z"/>
			<path id="XMLID_408_" fill="#F9C058" d="M12.7,18.8c0.3,0,0.6,0,0.8-0.1c0.1,0,0.1,0,0.2,0c0.2,0.2,0.5,0.5,0.7,0.7
				c0.7,0.8,1.4,1.4,2.3,1.9c0.6,0.3,1.1,0.6,1.7,0.9c0.3,0.1,0.5,0.3,0.8,0.4c0.4,0.2,0.7,0.6,0.9,1c0.2,0.5,0.2,1,0.1,1.6
				c-0.1,0.5-0.4,0.9-0.7,1.3c-0.3,0.4-0.7,0.6-1.1,0.8c-0.7,0.3-1.4,0.3-2.1,0.1c-1.2-0.3-2.3-0.9-3.1-1.8c-0.6-0.6-1-1.3-1.3-2
				c-0.4-0.9-0.7-1.9-1.1-2.9c0,0,0-0.1,0-0.1c0.2-0.2,0.3-0.4,0.4-0.7c0,0,0,0,0-0.1c0.4,0.3,0.7,0.4,1.2,0.5c0.1,0,0.2,0,0.3-0.2
				c0.1-0.3,0.1-0.6,0.1-0.9C12.7,19.1,12.7,18.9,12.7,18.8C12.7,18.8,12.7,18.8,12.7,18.8z M13.4,19.6c0.6,0.8,1.3,1.5,2.1,2.1
				c0.8,0.7,1.8,1.2,2.8,1.6c0.1,0,0.2,0.1,0.3,0.1c0.1,0,0.2,0,0.3-0.2c0-0.1,0-0.2-0.2-0.3c-0.3-0.1-0.6-0.2-1-0.4
				c-0.8-0.4-1.6-0.9-2.3-1.6c-0.6-0.5-1.1-1.1-1.6-1.7c-0.1-0.1-0.2-0.1-0.2-0.1c-0.1,0-0.1,0.1-0.1,0.2
				C13.3,19.5,13.3,19.5,13.4,19.6z"/>
			<path id="XMLID_407_" fill="#F9C058" d="M12.2,18.4c0.5,0.2,1,0.2,1.5-0.1c-0.1-0.1-0.3-0.3-0.4-0.4c-0.3-0.3-0.6-0.5-1-0.6
				c-0.2,0-0.4,0-0.5-0.1c-0.3-0.1-0.6-0.2-0.9-0.5c-0.1-0.1-0.1-0.2-0.1-0.2c-0.2,0.1-0.4,0.3-0.7,0.4c0.3,0.4,0.3,0.8,0.1,1.3
				c0,0.1-0.1,0.3-0.2,0.4c-0.3,0.7-0.2,1.5,0.3,2c0,0,0,0,0,0c0.3-0.2,0.7-0.8,0.7-1.4c0.3,0.6,0.8,0.8,1.4,0.9
				c0.1-0.3,0.1-0.6,0.1-0.9C12.5,19,12.4,18.7,12.2,18.4z"/>
		</g>
		<g id="XMLID_339_">
			<path id="XMLID_340_" fill="#F9C058" d="M0.7,20.4C0.8,11.4,6.8,3.5,15.7,1.2c11.4-2.9,22.6,4.5,24.6,15.7
				c0.9,5.3-0.1,10.3-3.1,14.7c-4.9,7.3-9.9,14.5-14.8,21.7c-1,1.4-2.6,1.4-3.5,0C13.9,46.2,9,38.9,4.1,31.7
				C1.8,28.4,0.7,24.6,0.7,20.4z M20.7,32.8c6.8,0,12.2-5.4,12.3-12.2c0-6.8-5.4-12.3-12.2-12.3C14,8.3,8.5,13.7,8.5,20.5
				C8.5,27.3,13.9,32.7,20.7,32.8z"/>
		</g>
	</g>
</g>
<!--
<g id="Layer_2" class="st2">
	<path id="XMLID_33_" fill="#90C246" d="M0.7,20.4C0.8,11.4,6.8,3.5,15.7,1.2c11.4-2.9,22.6,4.5,24.6,15.7c0.9,5.3-0.1,10.3-3.1,14.7
		c-4.9,7.3-9.9,14.5-14.8,21.7c-1,1.4-2.6,1.4-3.5,0C13.9,46.2,9,38.9,4.1,31.7C1.8,28.4,0.7,24.6,0.7,20.4z M20.7,32.8
		c6.8,0,12.2-5.4,12.3-12.2c0-6.8-5.4-12.3-12.2-12.3C14,8.3,8.5,13.7,8.5,20.5C8.5,27.3,13.9,32.7,20.7,32.8z"/>
	<path id="XMLID_32_" fill="#FFFFFF" d="M20.7,8c6.8,0,12.5,5.6,12.5,12.5c0,6.9-5.7,12.5-12.5,12.5c-6.9,0-12.5-5.7-12.5-12.5
		C8.2,13.7,13.8,8,20.7,8z"/>
	<g id="XMLID_36_" class="st5">
		<g id="XMLID_30_">
			<path id="XMLID_456_" fill="#90C246" d="M22.4,19.4c0.4,0.4,0.8,0.9,1.3,1.3c0.2,0.2,0.2,0.4,0.2,0.6c-0.1,0.2-0.2,0.4-0.5,0.4
				c-0.2,0-0.4,0-0.5-0.2c-0.5-0.5-1.1-1.1-1.6-1.6c-0.2-0.2-0.2-0.5-0.1-0.7c0.3-0.4,0.6-0.8,0.9-1.3c-0.2,0-0.4-0.1-0.6-0.1
				c-0.8,0-1.6,0.6-1.8,1.4c0,0.1,0,0.2,0,0.4c0,1.4,0,2.7,0,4.1c0,0.5-0.2,0.8-0.6,0.9c-0.6,0.2-1.3-0.2-1.3-0.9c0-1.6,0-3.3,0-4.9
				c0-1.3,0.6-2.3,1.7-2.9c0.6-0.4,1.3-0.6,2.1-0.6c0.7,0,1.4,0.3,1.9,0.7c0.5,0.4,0.6,1.1,0.2,1.6c-0.4,0.6-0.8,1.1-1.2,1.7
				C22.5,19.3,22.4,19.3,22.4,19.4z"/>
			<path id="XMLID_455_" fill="#90C246" d="M16.2,18.5c0,0.1,0,0.1,0,0.2c0,0.6,0,1.2,0,1.8c0,1-0.7,1.6-1.5,1.9c-0.1,0-0.1,0-0.2,0
				c-0.9-0.3-1.4-1-1.4-1.9c0-0.6,0-1.1,0-1.7c0-0.1,0-0.1,0-0.2c0.4,0,0.8,0,1.2,0c0-0.1,0-0.1,0-0.2c0-1.9,0-3.9,0-5.8
				c0-0.2,0.1-0.4,0.3-0.4c0.2,0,0.3,0.1,0.3,0.3c0,0.1,0,0.1,0,0.2c0,1.9,0,3.8,0,5.7c0,0.1,0,0.1,0,0.2
				C15.4,18.5,15.8,18.5,16.2,18.5z"/>
			<path id="XMLID_454_" fill="#90C246" d="M29.3,27.5c0,0-0.1-0.1-0.2-0.1c-1-1.1-2.1-2.2-3.1-3.2c-0.4-0.4-0.8-0.8-1.2-1.2
				c-0.2-0.2-0.1-0.5,0.1-0.5c0.1,0,0.2,0,0.3,0.1c0.2,0.2,0.4,0.5,0.7,0.7c1.2,1.3,2.4,2.5,3.6,3.8c0.1,0.1,0.2,0.2,0.1,0.4
				C29.6,27.4,29.5,27.5,29.3,27.5z"/>
			<path id="XMLID_453_" fill="#90C246" d="M12,27.5c-0.1-0.1-0.2-0.1-0.3-0.2c-0.1-0.1-0.1-0.2,0-0.3c0,0,0.1-0.1,0.1-0.1
				c1.4-1.5,2.8-3,4.2-4.5c0.1-0.1,0.3-0.2,0.4-0.1c0.1,0.1,0.2,0.2,0.1,0.4c0,0.1-0.1,0.1-0.1,0.2c-1.4,1.5-2.8,3-4.3,4.5
				C12.2,27.4,12.1,27.4,12,27.5z"/>
			<path id="XMLID_452_" fill="#90C246" d="M26.8,27.1c0,0.2-0.1,0.3-0.2,0.3c-0.1,0.1-0.3,0-0.4-0.1c-0.2-0.2-0.3-0.5-0.5-0.7
				c-0.8-1.2-1.7-2.5-2.5-3.7c0,0-0.1-0.1-0.1-0.1c-0.1-0.1,0-0.3,0.1-0.4c0.1-0.1,0.3-0.1,0.4,0.1c0.1,0.1,0.1,0.2,0.2,0.3
				c0.9,1.4,1.9,2.8,2.8,4.2C26.7,27,26.8,27.1,26.8,27.1z"/>
			<path id="XMLID_451_" fill="#90C246" d="M23.6,27.5c-0.2,0-0.2-0.1-0.3-0.3c-0.3-1-0.7-1.9-1-2.9c-0.2-0.5-0.4-1-0.6-1.5
				c-0.1-0.1,0-0.3,0.1-0.4c0.1-0.1,0.2-0.1,0.3,0c0.1,0.1,0.1,0.2,0.2,0.2c0.4,1.2,0.8,2.3,1.3,3.5c0.1,0.3,0.2,0.6,0.3,0.9
				C24,27.3,23.9,27.5,23.6,27.5z"/>
			<path id="XMLID_441_" fill="#90C246" d="M26.3,17.1c0.1,0.3,0.3,0.6,0.4,0.8c-0.1,0.1-0.2,0.1-0.3,0.2c-0.5-1-1-2-1.4-2.9
				c0.6-0.4,1.3-0.3,1.7,0.2C27,15.8,27.1,16.6,26.3,17.1z"/>
			<path id="XMLID_440_" fill="#90C246" d="M21,24.9c0,0.7,0,1.5,0,2.2c0,0.1-0.1,0.2-0.2,0.3c-0.1,0-0.3,0-0.3-0.1
				c-0.1-0.1-0.1-0.2-0.1-0.3c0-1.3,0-2.6,0-4c0-0.1,0-0.3,0-0.4c0-0.2,0.1-0.3,0.3-0.3c0.2,0,0.3,0.1,0.3,0.3
				C21,23.4,21,24.2,21,24.9z"/>
			<path id="XMLID_439_" fill="#90C246" d="M17.3,23.1c0,0.2,0,0.5,0,0.7c0,0.2,0,0.4-0.2,0.5c-0.7,1-1.3,1.9-1.9,2.9
				c-0.1,0.1-0.2,0.2-0.2,0.2c-0.1,0-0.2,0-0.3-0.1c-0.1-0.1-0.1-0.2,0-0.4c0.3-0.5,0.7-1,1-1.5c0.5-0.7,1-1.5,1.5-2.2
				C17.2,23.1,17.2,23.1,17.3,23.1C17.3,23.1,17.3,23.1,17.3,23.1z"/>
			<path id="XMLID_438_" fill="#90C246" d="M24.7,15.3c0.3,0.7,0.7,1.4,1,2.1c-0.5,0.3-1.2,0.1-1.5-0.5C23.9,16.3,24.1,15.6,24.7,15.3z
				"/>
		</g>
		<path id="XMLID_437_" fill="#90C246" d="M18.8,25.1C18.8,25.1,18.8,25.1,18.8,25.1c-0.3,0.8-0.5,1.5-0.8,2.1
			c-0.1,0.2-0.2,0.3-0.3,0.2c-0.1,0-0.3-0.1-0.3-0.3c0-0.1,0-0.1,0-0.2c0.2-0.6,0.5-1.3,0.7-1.9c0-0.1,0.1-0.1,0.2-0.1
			C18.5,25,18.6,25.1,18.8,25.1z"/>
	</g>
</g>
-->
<!--
<g id="Layer_3" class="st2">
	<g class="st5">
		<g id="XMLID_27_">
			<g>
				<path id="XMLID_141_" fill="#F37568" d="M19.2,21.4c0-0.1,0-0.2,0-0.2c0-1.5,0-3.1,0-4.6c0-0.4,0.2-0.5,0.5-0.5c0.2,0,0.5,0,0.7,0
					c0.3,0,0.5,0.2,0.5,0.5c0,0.1,0,0.1,0,0.2c0,1.5,0,3,0,4.5c0,0.1,0,0.1,0,0.2c0.1,0,0.2,0,0.2,0c2,0,3.9,0,5.9,0
					c0.2,0,0.2,0,0.2,0.2c0,1.3,0,2.5,0,3.8c0,0.6-0.1,1.2-0.4,1.7c-0.2,0.4-0.5,0.8-1,1.1c-0.9,0.6-1.9,0.8-3,0.8
					c-1.9,0-3.8,0-5.8,0c-1,0-2-0.3-2.9-0.8c-0.7-0.4-1.1-1.1-1.2-1.8c-0.1-0.5-0.2-1-0.2-1.5c0-1.1,0-2.2,0-3.2
					c0-0.2,0.1-0.2,0.2-0.2c2,0,4,0,6,0C19,21.4,19.1,21.4,19.2,21.4z"/>
				<path id="XMLID_137_" fill="#F37568" d="M18.7,21.1c-0.6,0-1.2,0-1.8,0c0,0-0.1-0.1-0.1-0.1c-0.3-0.9-0.7-1.7-0.9-2.6
					c-0.3-1-0.6-2.1-0.8-3.1c-0.1-0.5-0.1-0.9-0.1-1.4c0-0.1,0-0.1,0.1-0.2c0.1-0.2,0.3-0.3,0.5-0.2c0.3,0.2,0.5,0.4,0.7,0.7
					c0.7,0.8,1.2,1.8,1.7,2.8c0.2,0.5,0.6,1,0.7,1.5c0.1,0.5,0,1,0,1.5C18.7,20.3,18.7,20.7,18.7,21.1z M17.8,17.6
					C17.8,17.6,17.8,17.6,17.8,17.6c-0.1,0.1-0.2,0.1-0.2,0.2c-0.3,0.8-0.5,1.7-0.5,2.6c0,0.1,0.1,0.2,0.1,0.3
					c0.1-0.1,0.2-0.2,0.2-0.2c0.3-0.8,0.5-1.7,0.4-2.6C17.9,17.7,17.8,17.7,17.8,17.6z M16.8,15.4C16.8,15.4,16.7,15.4,16.8,15.4
					c-0.1,0.1-0.2,0.1-0.2,0.2c-0.3,0.7-0.4,1.5-0.4,2.3c0,0.1,0.1,0.2,0.1,0.3c0.1-0.1,0.2-0.2,0.2-0.3c0.3-0.8,0.4-1.5,0.4-2.3
					C16.8,15.5,16.8,15.5,16.8,15.4z"/>
				<path id="XMLID_136_" fill="#F37568" d="M24.4,21.1c0.4-2.7,0.5-5.4,0.7-8.1c0.5,0,1.1,0,1.6,0.1c-0.2,2.7-0.7,5.4-1.4,8.1
					C25,21.1,24.7,21.1,24.4,21.1z"/>
				<path id="XMLID_135_" fill="#F37568" d="M28.3,13.2c0.4,0.2,0.7,0.4,1.1,0.6c0,0.1,0,0.1-0.1,0.1c-1.1,2.4-2.2,4.7-3.5,7
					c0,0.1-0.1,0.1-0.2,0.1c-0.1,0-0.2,0-0.3,0c0.2-0.7,0.2-1.3,0.5-1.9c0.6-1.2,1.1-2.6,1.5-3.9c0.2-0.6,0.5-1.2,0.7-1.8
					C28.3,13.4,28.3,13.3,28.3,13.2z"/>
				<path id="XMLID_134_" fill="#F37568" d="M29.7,16.1c0.2,0.2,0.3,0.3,0.4,0.5c0.1,0.2,0.2,0.4,0.3,0.6c0.1,0.2,0.1,0.2-0.1,0.4
					c-1.2,0.9-2.1,2.1-3,3.3c-0.1,0.1-0.2,0.2-0.3,0.2c-0.3,0-0.6,0-0.9,0C27.1,19.3,28.5,17.8,29.7,16.1z"/>
				<path id="XMLID_133_" fill="#F37568" d="M24.1,21.1c-0.4,0-0.9,0-1.3,0c0-0.1,0-0.3,0-0.4c0-0.7-0.1-1.5-0.1-2.2
					c0-0.3,0.1-0.6,0.2-0.8c0.1-0.3,0.4-0.5,0.7-0.5c0.3,0,0.5,0.2,0.7,0.5c0.1,0.4,0.1,0.8,0.1,1.2c-0.1,0.7-0.1,1.3-0.2,2
					C24.1,20.9,24.1,21,24.1,21.1z"/>
				<path id="XMLID_132_" fill="#F37568" d="M12.9,21.1c0-1,0.8-1.7,1.8-1.7c0.9,0,1.7,0.8,1.7,1.7C15.2,21.1,14,21.1,12.9,21.1z"/>
				<path id="XMLID_131_" fill="#F37568" d="M13.6,19.4c-1.2-0.9-1.1-2.7,0-3.5C14.7,16.7,14.8,18.5,13.6,19.4z"/>
				<path id="XMLID_130_" fill="#F37568" d="M21.3,21.1c0-0.1,0-0.2,0-0.3c0-0.8,0-1.6,0-2.4c0-0.1,0.1-0.2,0.2-0.2
					c0.4-0.1,0.8,0.2,0.8,0.6c0,0.4,0,0.8-0.1,1.2c0,0.3-0.1,0.5-0.1,0.8c0,0.1,0,0.1,0,0.2C21.8,21.1,21.6,21.1,21.3,21.1z"/>
				<path id="XMLID_129_" fill="#F37568" d="M10.3,19c0.9-0.6,2.4-0.3,3,0.6C12.4,20.2,11,20,10.3,19z"/>
				<path id="XMLID_128_" fill="#F37568" d="M22.6,14.1c0.1,0.2,0.2,0.3,0.3,0.5c0-0.5,0.1-0.9,0.1-1.3c0,0,0,0,0,0
					c0.1,0.6,0.2,1.2,0.3,1.8c0.1-0.2,0.3-0.4,0.4-0.6c0,0,0,0,0,0c-0.1,0.4-0.1,0.7-0.2,1.2c0.1-0.1,0.3-0.3,0.4-0.4c0,0,0,0,0,0
					c-0.1,0.6-0.3,1.1-0.4,1.7c0,0,0,0-0.1,0c-0.3,0-0.3,0-0.4-0.3c-0.2-0.8-0.4-1.6-0.6-2.4C22.6,14.2,22.6,14.2,22.6,14.1z"/>
				<path id="XMLID_127_" fill="#F37568" d="M26,18.5c0.1-0.5,0.2-1.1,0.4-1.6c0.3-1,0.6-1.9,1-2.9c0.1-0.2,0.1-0.3,0.2-0.5
					c0-0.1,0.1-0.1,0.2-0.1c0.2,0.1,0.3,0.1,0.2,0.4c-0.5,1.4-1.1,2.8-1.6,4.3C26.2,18.3,26.2,18.4,26,18.5
					C26.1,18.5,26,18.5,26,18.5z"/>
				<path id="XMLID_126_" fill="#F37568" d="M22.1,16.6c-0.1,0.2-0.2,0.5-0.4,0.7c0.2-0.1,0.3-0.1,0.4-0.2c0,0,0,0,0,0
					c-0.2,0.3-0.4,0.6-0.6,0.8c0,0-0.1,0-0.2,0c-0.1,0-0.1,0-0.2,0c0-0.9,0-1.8,0-2.7c0,0,0,0,0,0c0.1,0.4,0.1,0.8,0.2,1.2
					c0.1-0.2,0.2-0.4,0.3-0.6c0,0,0,0,0,0c0,0.3-0.1,0.5-0.1,0.9C21.9,16.8,22,16.7,22.1,16.6C22.1,16.6,22.1,16.6,22.1,16.6z"/>
			</g>
		</g>
		<g id="XMLID_578_">
			<g>
				<path id="XMLID_23_" fill="#F37568" d="M0.7,20.4C0.8,11.4,6.8,3.5,15.7,1.2c11.4-2.9,22.6,4.5,24.6,15.7
					c0.9,5.3-0.1,10.3-3.1,14.7c-4.9,7.3-9.9,14.5-14.8,21.7c-1,1.4-2.6,1.4-3.5,0C13.9,46.2,9,38.9,4.1,31.7
					C1.8,28.4,0.7,24.6,0.7,20.4z M20.7,32.8c6.8,0,12.2-5.4,12.3-12.2c0-6.8-5.4-12.3-12.2-12.3C14,8.3,8.5,13.7,8.5,20.5
					C8.5,27.3,13.9,32.7,20.7,32.8z"/>
			</g>
		</g>
	</g>
</g>
-->
</svg>
