<?xml version="1.0" encoding="utf-8"?>
<!-- Generator: Adobe Illustrator 19.2.1, SVG Export Plug-In . SVG Version: 6.00 Build 0)  -->
<svg version="1.1" xmlns="http://www.w3.org/2000/svg" xmlns:xlink="http://www.w3.org/1999/xlink" x="0px" y="0px"
	 viewBox="0 0 41.3 55" style="enable-background:new 0 0 41.3 55;" xml:space="preserve">
<g id="Layer_4">
	<path id="XMLID_1_" fill="#FFFFFF" d="M20.7,8c6.8,0,12.5,5.6,12.5,12.5c0,6.9-5.7,12.5-12.5,12.5c-6.9,0-12.5-5.7-12.5-12.5
		C8.2,13.7,13.8,8,20.7,8z"/>
	<g>
		<g id="XMLID_586_">
			<path id="XMLID_640_" fill="#F37568" d="M0.7,20.4C0.8,11.4,6.8,3.5,15.7,1.2c11.4-2.9,22.6,4.5,24.6,15.7
				c0.9,5.3-0.1,10.3-3.1,14.7c-4.9,7.3-9.9,14.5-14.8,21.7c-1,1.4-2.6,1.4-3.5,0C13.9,46.2,9,38.9,4.1,31.7
				C1.8,28.4,0.7,24.6,0.7,20.4z M20.7,32.8c6.8,0,12.2-5.4,12.3-12.2c0-6.8-5.4-12.3-12.2-12.3C14,8.3,8.5,13.7,8.5,20.5
				C8.5,27.3,13.9,32.7,20.7,32.8z"/>
		</g>
		<path id="XMLID_55_" fill="#F37568" d="M17.4,18.2c2.3,0,4.6,0,6.9,0c0-0.1-0.1-0.1-0.1-0.2c-0.9-1.4-1.9-2.8-2.8-4.2
			c-0.1-0.1-0.1-0.2-0.1-0.3c0-0.2,0.1-0.4,0.3-0.5c0.2-0.1,0.4,0,0.6,0.2c0.2,0.3,0.4,0.5,0.5,0.8c0.9,1.4,1.8,2.7,2.7,4.1
			c0.1,0.1,0.1,0.1,0.3,0.1c1,0,2.1,0,3.1,0c0.5,0,0.8,0.4,0.6,0.9c-1.2,2.3-2.3,4.7-3.5,7c-0.1,0.2-0.3,0.4-0.6,0.4
			c-2.9,0-5.8,0-8.7,0c-0.3,0-0.5-0.1-0.6-0.4c-1.2-2.3-2.3-4.7-3.5-7c-0.2-0.5,0-0.9,0.6-0.9c1,0,2.1,0,3.1,0c0.1,0,0.2,0,0.3-0.2
			c1.1-1.6,2.1-3.2,3.2-4.8c0.1-0.2,0.2-0.3,0.4-0.3c0.2,0,0.4,0.1,0.5,0.2c0.1,0.2,0.1,0.3,0,0.5c-0.1,0.2-0.2,0.4-0.4,0.6
			c-0.8,1.3-1.7,2.5-2.5,3.8C17.5,18.1,17.5,18.2,17.4,18.2z M19.9,20.9c0,0.4,0.1,0.8,0.1,1.2c0.6,0,1.2,0,1.8,0
			c0-0.4,0.1-0.8,0.1-1.2C21.2,20.9,20.5,20.9,19.9,20.9z M14.6,20.9c0.2,0.4,0.4,0.8,0.6,1.1c0,0,0.1,0.1,0.1,0.1
			c0.3,0,0.6,0,0.9,0c0.2,0,0.5,0,0.8,0c-0.1-0.3-0.1-0.5-0.2-0.8c0-0.1,0-0.3-0.1-0.4c-0.1-0.1-0.3,0-0.4,0
			C15.7,20.9,15.1,20.9,14.6,20.9z M19.4,22.1c0-0.4-0.1-0.8-0.1-1.2c-0.7,0-1.3,0-2,0c0.1,0.4,0.2,0.8,0.3,1.2
			C18.2,22.1,18.7,22.1,19.4,22.1z M22.4,22.1c0.6,0,1.2,0,1.8,0c0.1-0.4,0.2-0.8,0.3-1.2c-0.7,0-1.3,0-2,0
			C22.4,21.3,22.4,21.7,22.4,22.1z M24.8,22c0.1,0,0.1,0,0.1,0c0.5,0,1,0,1.5,0c0.1,0,0.2,0,0.2-0.1c0.1-0.2,0.2-0.4,0.3-0.6
			c0.1-0.1,0.1-0.3,0.2-0.4c-0.7,0-1.3,0-2,0c0,0-0.1,0-0.1,0.1C25,21.3,24.9,21.7,24.8,22z M16.5,20.3c-0.1-0.3-0.1-0.6-0.2-0.9
			c-0.8,0-1.6,0-2.4,0c0.1,0.3,0.3,0.6,0.4,0.8c0,0,0.1,0,0.1,0C15.1,20.3,15.8,20.3,16.5,20.3z M27.9,19.4c-0.8,0-1.6,0-2.4,0
			c0,0-0.1,0-0.1,0.1c-0.1,0.3-0.1,0.5-0.2,0.8c0.7,0,1.4,0,2.1,0c0,0,0.1,0,0.1-0.1C27.6,20,27.7,19.7,27.9,19.4z M19.8,20.3
			c0.7,0,1.4,0,2.1,0c0-0.3,0-0.6,0.1-0.9c-0.8,0-1.5,0-2.2,0C19.8,19.7,19.8,20,19.8,20.3z M19.1,19.4c-0.8,0-1.5,0-2.2,0
			c0.1,0.3,0.1,0.5,0.2,0.8c0,0.1,0.1,0.1,0.2,0.1c0.5,0,0.9,0,1.4,0c0.2,0,0.4,0,0.6,0C19.2,20,19.2,19.7,19.1,19.4z M24.8,19.4
			c-0.7,0-1.5,0-2.2,0c0,0.3,0,0.6-0.1,0.9c0.7,0,1.3,0,2,0c0,0,0.1,0,0.1-0.1C24.7,19.9,24.8,19.7,24.8,19.4z M21.6,23.8
			c0-0.4,0.1-0.8,0.1-1.2c-0.6,0-1.1,0-1.7,0c0,0.4,0.1,0.8,0.1,1.2C20.6,23.8,21.1,23.8,21.6,23.8z M24,22.7c-0.6,0-1.1,0-1.7,0
			c0,0.4-0.1,0.8-0.1,1.2c0.5,0,1,0,1.4,0c0,0,0.1,0,0.1-0.1C23.8,23.4,23.9,23,24,22.7z M19.4,22.7c-0.6,0-1.1,0-1.7,0
			c0.1,0.4,0.2,0.7,0.3,1.1c0,0,0.1,0.1,0.1,0.1c0.5,0,0.9,0,1.4,0C19.5,23.4,19.4,23,19.4,22.7z M15.5,22.7
			c0.2,0.4,0.4,0.8,0.6,1.1c0,0,0,0.1,0.1,0.1c0.4,0,0.8,0,1.3,0c-0.1-0.4-0.2-0.8-0.3-1.2C16.6,22.7,16,22.7,15.5,22.7z M26.2,22.7
			c-0.5,0-1.1,0-1.6,0c-0.1,0.4-0.2,0.8-0.3,1.2c0.4,0,0.8,0,1.2,0c0,0,0.1,0,0.1-0.1C25.9,23.4,26,23,26.2,22.7z M20.2,24.4
			c0,0.3,0,0.6,0.1,0.9c0.4,0,0.8,0,1.3,0c0-0.3,0-0.6,0.1-0.9C21.1,24.4,20.6,24.4,20.2,24.4z M22.1,25.3c0.4,0,0.8,0,1.2,0
			c0,0,0.1,0,0.1-0.1c0.1-0.3,0.1-0.5,0.2-0.8c-0.5,0-0.9,0-1.4,0C22.1,24.7,22.1,25,22.1,25.3z M19.5,24.4c-0.5,0-0.9,0-1.4,0
			c0.1,0.3,0.1,0.6,0.2,0.9c0.4,0,0.8,0,1.3,0C19.6,25,19.6,24.7,19.5,24.4z M17.7,25.3c0-0.2-0.1-0.4-0.1-0.6
			c-0.1-0.3-0.1-0.3-0.4-0.3c-0.3,0-0.5,0-0.8,0c0.1,0.3,0.3,0.6,0.4,0.8c0,0,0.1,0.1,0.1,0.1C17.2,25.3,17.4,25.3,17.7,25.3z
			 M25.4,24.4c-0.4,0-0.7,0-1.1,0c0,0-0.1,0-0.1,0.1C24.1,24.8,24,25,24,25.3c0.3,0,0.6,0,0.9,0c0,0,0.1,0,0.1-0.1
			C25.1,25,25.2,24.7,25.4,24.4z M25.1,19.2c0.2,0,0.4-0.2,0.4-0.4c0-0.2-0.2-0.4-0.4-0.4c-0.2,0-0.4,0.2-0.4,0.4
			C24.7,19,24.9,19.2,25.1,19.2z M17,18.8c0-0.2-0.2-0.4-0.4-0.4c-0.2,0-0.4,0.2-0.4,0.4c0,0.2,0.2,0.4,0.4,0.4
			C16.8,19.2,17,19,17,18.8z"/>
	</g>
</g>
</svg>
