<?xml version="1.0" encoding="utf-8"?>
<!-- Generator: Adobe Illustrator 19.2.1, SVG Export Plug-In . SVG Version: 6.00 Build 0)  -->
<svg version="1.1" id="Layer_1" xmlns="http://www.w3.org/2000/svg" xmlns:xlink="http://www.w3.org/1999/xlink" x="0px" y="0px"
	 viewBox="0 0 24 24" enable-background="new 0 0 24 24" xml:space="preserve">
<g id="XMLID_36_">
	<g id="XMLID_30_">
		<path id="XMLID_456_" fill="white" d="M13.8,11.6c0.4,0.4,0.8,0.9,1.3,1.3c0.2,0.2,0.2,0.4,0.2,0.6c-0.1,0.2-0.2,0.4-0.5,0.4
			c-0.2,0-0.4,0-0.5-0.2c-0.5-0.5-1.1-1.1-1.6-1.6c-0.2-0.2-0.2-0.5-0.1-0.7c0.3-0.4,0.6-0.8,0.9-1.3c-0.2,0-0.4-0.1-0.6-0.1
			c-0.8,0-1.6,0.6-1.8,1.4c0,0.1,0,0.2,0,0.4c0,1.4,0,2.7,0,4.1c0,0.5-0.2,0.8-0.6,0.9c-0.6,0.2-1.3-0.2-1.3-0.9c0-1.6,0-3.3,0-4.9
			c0-1.3,0.6-2.3,1.7-2.9c0.6-0.4,1.3-0.6,2.1-0.6c0.7,0,1.4,0.3,1.9,0.7c0.5,0.4,0.6,1.1,0.2,1.6c-0.4,0.6-0.8,1.1-1.2,1.7
			C13.9,11.5,13.8,11.5,13.8,11.6z"/>
		<path id="XMLID_455_" fill="white" d="M7.6,10.7c0,0.1,0,0.1,0,0.2c0,0.6,0,1.2,0,1.8c0,1-0.7,1.6-1.5,1.9c-0.1,0-0.1,0-0.2,0
			c-0.9-0.3-1.4-1-1.4-1.9c0-0.6,0-1.1,0-1.7c0-0.1,0-0.1,0-0.2c0.4,0,0.8,0,1.2,0c0-0.1,0-0.1,0-0.2c0-1.9,0-3.9,0-5.8
			c0-0.2,0.1-0.4,0.3-0.4s0.3,0.1,0.3,0.3c0,0.1,0,0.1,0,0.2c0,1.9,0,3.8,0,5.7c0,0.1,0,0.1,0,0.2C6.8,10.7,7.2,10.7,7.6,10.7z"/>
		<path id="XMLID_454_" fill="white" d="M20.7,19.7c0,0-0.1-0.1-0.2-0.1c-1-1.1-2.1-2.2-3.1-3.2c-0.4-0.4-0.8-0.8-1.2-1.2
			c-0.2-0.2-0.1-0.5,0.1-0.5c0.1,0,0.2,0,0.3,0.1c0.2,0.2,0.4,0.5,0.7,0.7c1.2,1.3,2.4,2.5,3.6,3.8c0.1,0.1,0.2,0.2,0.1,0.4
			C21,19.6,20.9,19.7,20.7,19.7z"/>
		<path id="XMLID_453_" fill="white" d="M3.4,19.7c-0.1-0.1-0.2-0.1-0.3-0.2s-0.1-0.2,0-0.3l0.1-0.1c1.4-1.5,2.8-3,4.2-4.5
			c0.1-0.1,0.3-0.2,0.4-0.1s0.2,0.2,0.1,0.4c0,0.1-0.1,0.1-0.1,0.2c-1.4,1.5-2.8,3-4.3,4.5C3.6,19.6,3.5,19.6,3.4,19.7z"/>
		<path id="XMLID_452_" fill="white" d="M18.2,19.3c0,0.2-0.1,0.3-0.2,0.3c-0.1,0.1-0.3,0-0.4-0.1c-0.2-0.2-0.3-0.5-0.5-0.7
			c-0.8-1.2-1.7-2.5-2.5-3.7l-0.1-0.1c-0.1-0.1,0-0.3,0.1-0.4s0.3-0.1,0.4,0.1c0.1,0.1,0.1,0.2,0.2,0.3c0.9,1.4,1.9,2.8,2.8,4.2
			C18.1,19.2,18.2,19.3,18.2,19.3z"/>
		<path id="XMLID_451_" fill="white" d="M15,19.7c-0.2,0-0.2-0.1-0.3-0.3c-0.3-1-0.7-1.9-1-2.9c-0.2-0.5-0.4-1-0.6-1.5
			c-0.1-0.1,0-0.3,0.1-0.4s0.2-0.1,0.3,0c0.1,0.1,0.1,0.2,0.2,0.2c0.4,1.2,0.8,2.3,1.3,3.5c0.1,0.3,0.2,0.6,0.3,0.9
			C15.4,19.5,15.3,19.7,15,19.7z"/>
		<path id="XMLID_441_" fill="white" d="M17.7,9.3c0.1,0.3,0.3,0.6,0.4,0.8c-0.1,0.1-0.2,0.1-0.3,0.2c-0.5-1-1-2-1.4-2.9
			C17,7,17.7,7.1,18.1,7.6C18.4,8,18.5,8.8,17.7,9.3z"/>
		<path id="XMLID_440_" fill="white" d="M12.4,17.1c0,0.7,0,1.5,0,2.2c0,0.1-0.1,0.2-0.2,0.3c-0.1,0-0.3,0-0.3-0.1
			c-0.1-0.1-0.1-0.2-0.1-0.3c0-1.3,0-2.6,0-4c0-0.1,0-0.3,0-0.4c0-0.2,0.1-0.3,0.3-0.3c0.2,0,0.3,0.1,0.3,0.3
			C12.4,15.6,12.4,16.4,12.4,17.1z"/>
		<path id="XMLID_439_" fill="white" d="M8.7,15.3c0,0.2,0,0.5,0,0.7s0,0.4-0.2,0.5c-0.7,1-1.3,1.9-1.9,2.9
			c-0.1,0.1-0.2,0.2-0.2,0.2c-0.1,0-0.2,0-0.3-0.1s-0.1-0.2,0-0.4c0.3-0.5,0.7-1,1-1.5c0.5-0.7,1-1.5,1.5-2.2
			C8.6,15.3,8.6,15.3,8.7,15.3L8.7,15.3z"/>
		<path id="XMLID_438_" fill="white" d="M16.1,7.5c0.3,0.7,0.7,1.4,1,2.1c-0.5,0.3-1.2,0.1-1.5-0.5C15.3,8.5,15.5,7.8,16.1,7.5z"
			/>
	</g>
	<path id="XMLID_437_" fill="white" d="M10.2,17.3L10.2,17.3c-0.3,0.8-0.5,1.5-0.8,2.1c-0.1,0.2-0.2,0.3-0.3,0.2
		c-0.1,0-0.3-0.1-0.3-0.3c0-0.1,0-0.1,0-0.2c0.2-0.6,0.5-1.3,0.7-1.9c0-0.1,0.1-0.1,0.2-0.1C9.9,17.2,10,17.3,10.2,17.3z"/>
</g>
</svg>
