<?xml version="1.0" encoding="utf-8"?>
<!-- Generator: Adobe Illustrator 19.2.1, SVG Export Plug-In . SVG Version: 6.00 Build 0)  -->
<svg version="1.1" id="Layer_1" xmlns="http://www.w3.org/2000/svg" xmlns:xlink="http://www.w3.org/1999/xlink" x="0px" y="0px"
	 viewBox="0 0 24 24" style="enable-background:new 0 0 24 24;" xml:space="preserve">
<style type="text/css">
	.st0{fill:#FFFFFF;}
</style>
<g id="XMLID_36_">
	<g id="XMLID_30_">
		<path id="XMLID_456_" class="st0" d="M14.1,11.5c0.5,0.5,1,1.1,1.6,1.6c0.2,0.2,0.2,0.5,0.2,0.7c-0.1,0.2-0.2,0.5-0.6,0.5
			c-0.2,0-0.5,0-0.6-0.2c-0.6-0.6-1.3-1.3-1.9-1.9c-0.2-0.2-0.2-0.6-0.1-0.8c0.4-0.5,0.7-1,1.1-1.6c-0.2,0-0.5-0.1-0.7-0.1
			c-1,0-1.9,0.7-2.2,1.7c0,0.1,0,0.2,0,0.5c0,1.7,0,3.2,0,4.9c0,0.6-0.2,1-0.7,1.1c-0.7,0.2-1.6-0.2-1.6-1.1c0-1.9,0-3.9,0-5.9
			c0-1.6,0.7-2.8,2-3.5c0.7-0.5,1.6-0.7,2.5-0.7c0.8,0,1.7,0.4,2.3,0.8c0.6,0.5,0.7,1.3,0.2,1.9c-0.5,0.7-1,1.3-1.4,2
			C14.2,11.3,14.1,11.3,14.1,11.5z"/>
		<path id="XMLID_455_" class="st0" d="M6.7,10.4c0,0.1,0,0.1,0,0.2c0,0.7,0,1.4,0,2.2c0,1.2-0.8,1.9-1.8,2.3c-0.1,0-0.1,0-0.2,0
			C3.6,14.7,3,13.9,3,12.8c0-0.7,0-1.3,0-2c0-0.1,0-0.1,0-0.2c0.5,0,1,0,1.4,0c0-0.1,0-0.1,0-0.2c0-2.3,0-4.7,0-6.9
			c0-0.2,0.1-0.5,0.4-0.5C5,2.8,5.1,3,5.1,3.2c0,0.1,0,0.1,0,0.2c0,2.3,0,4.5,0,6.8c0,0.1,0,0.1,0,0.2C5.7,10.4,6.2,10.4,6.7,10.4z"
			/>
		<path id="XMLID_454_" class="st0" d="M22.4,21.1c0,0-0.1-0.1-0.2-0.1c-1.2-1.3-2.5-2.6-3.7-3.8c-0.5-0.5-1-1-1.4-1.4
			c-0.2-0.2-0.1-0.6,0.1-0.6c0.1,0,0.2,0,0.4,0.1c0.2,0.2,0.5,0.6,0.8,0.8c1.4,1.6,2.9,3,4.3,4.5c0.1,0.1,0.2,0.2,0.1,0.5
			C22.7,21,22.6,21.1,22.4,21.1z"/>
		<path id="XMLID_453_" class="st0" d="M1.7,21.1C1.6,21,1.4,21,1.3,20.9s-0.1-0.2,0-0.4l0.1-0.1c1.7-1.8,3.3-3.6,5-5.4
			c0.1-0.1,0.4-0.2,0.5-0.1c0.1,0.1,0.2,0.2,0.1,0.5c0,0.1-0.1,0.1-0.1,0.2c-1.7,1.8-3.3,3.6-5.1,5.4C1.9,21,1.8,21,1.7,21.1z"/>
		<path id="XMLID_452_" class="st0" d="M19.4,20.7c0,0.2-0.1,0.4-0.2,0.4c-0.1,0.1-0.4,0-0.5-0.1c-0.2-0.2-0.4-0.6-0.6-0.8
			c-1-1.4-2-3-3-4.4L15,15.5c-0.1-0.1,0-0.4,0.1-0.5c0.1-0.1,0.4-0.1,0.5,0.1c0.1,0.1,0.1,0.2,0.2,0.4c1.1,1.7,2.3,3.3,3.3,5
			C19.3,20.6,19.4,20.7,19.4,20.7z"/>
		<path id="XMLID_451_" class="st0" d="M15.5,21.1c-0.2,0-0.2-0.1-0.4-0.4c-0.4-1.2-0.8-2.3-1.2-3.5c-0.2-0.6-0.5-1.2-0.7-1.8
			c-0.1-0.1,0-0.4,0.1-0.5c0.1-0.1,0.2-0.1,0.4,0c0.1,0.1,0.1,0.2,0.2,0.2c0.5,1.4,1,2.8,1.6,4.2c0.1,0.4,0.2,0.7,0.4,1.1
			C16,20.9,15.9,21.1,15.5,21.1z"/>
		<path id="XMLID_441_" class="st0" d="M18.8,8.7c0.1,0.4,0.4,0.7,0.5,1c-0.1,0.1-0.2,0.1-0.4,0.2c-0.6-1.2-1.2-2.4-1.7-3.5
			c0.7-0.5,1.6-0.4,2,0.2C19.6,7.2,19.7,8.1,18.8,8.7z"/>
		<path id="XMLID_440_" class="st0" d="M12.4,18c0,0.8,0,1.8,0,2.6c0,0.1-0.1,0.2-0.2,0.4c-0.1,0-0.4,0-0.4-0.1
			c-0.1-0.1-0.1-0.2-0.1-0.4c0-1.6,0-3.1,0-4.8c0-0.1,0-0.4,0-0.5c0-0.2,0.1-0.4,0.4-0.4c0.2,0,0.4,0.1,0.4,0.4
			C12.4,16.2,12.4,17.2,12.4,18z"/>
		<path id="XMLID_439_" class="st0" d="M8,15.9c0,0.2,0,0.6,0,0.8s0,0.5-0.2,0.6c-0.8,1.2-1.6,2.3-2.3,3.5C5.4,20.9,5.3,21,5.3,21
			c-0.1,0-0.2,0-0.4-0.1c-0.1-0.1-0.1-0.2,0-0.5c0.4-0.6,0.8-1.2,1.2-1.8c0.6-0.8,1.2-1.8,1.8-2.6C7.9,15.9,7.9,15.9,8,15.9L8,15.9z
			"/>
		<path id="XMLID_438_" class="st0" d="M16.9,6.6c0.4,0.8,0.8,1.7,1.2,2.5c-0.6,0.4-1.4,0.1-1.8-0.6C15.9,7.8,16.1,6.9,16.9,6.6z"/>
	</g>
	<path id="XMLID_437_" class="st0" d="M9.8,18.3L9.8,18.3c-0.4,1-0.6,1.8-1,2.5C8.7,21,8.6,21.1,8.5,21c-0.1,0-0.4-0.1-0.4-0.4
		c0-0.1,0-0.1,0-0.2c0.2-0.7,0.6-1.6,0.8-2.3C9,18,9.1,18,9.2,18C9.4,18.2,9.6,18.3,9.8,18.3z"/>
</g>
</svg>
