<?xml version="1.0" encoding="UTF-8"?>
<svg width="80px" height="80px" viewBox="0 0 80 80" version="1.1" xmlns="http://www.w3.org/2000/svg" xmlns:xlink="http://www.w3.org/1999/xlink">
    <!-- Generator: Sketch 42 (36781) - http://www.bohemiancoding.com/sketch -->
    <title>icon_community_garden</title>
    <desc>Created with Sketch.</desc>
    <defs></defs>
    <g id="Mobile" stroke="none" stroke-width="1" fill="none" fill-rule="evenodd">
        <g id="icon_community_garden">
            <rect id="Rectangle-6-Copy" fill="#90C246" x="0" y="0" width="80" height="80" rx="10"></rect>
            <path d="M61.9356068,18.8971184 L61.8621135,18.0443184 L61.0363535,17.8279984 C59.7689402,17.4972784 58.4633935,17.3294917 57.1523002,17.3294917 C53.5608335,17.3294917 50.0726735,18.6052251 47.3208335,20.9230384 C43.6808335,23.9945051 41.6930468,28.6065584 41.9232335,33.3545051 C41.6334202,33.7226651 41.3574735,34.0915184 41.0891535,34.4624517 C41.0759802,30.1637851 39.7239802,25.9178117 37.1239802,22.3776517 C33.2024868,17.0313584 26.8460068,13.8787717 20.1837668,14.0035717 L19.3275002,14.0195184 L19.0598735,14.8321051 C16.9445135,21.1587717 18.0358202,28.1385584 21.9739535,33.5035717 C25.4024868,38.1724784 30.6863802,41.1600517 36.4091535,41.7611717 C36.5041402,42.7852251 36.4119268,43.8522651 36.1033935,45.0246917 C35.8947002,45.8130117 35.7241402,46.5957851 35.5778468,47.3730117 C35.5612068,47.4652251 35.5452602,47.5567451 35.5265402,47.6461851 C35.4995002,47.7869317 35.4745402,47.9311451 35.4502735,48.0718917 C35.3747002,48.5183984 35.3067535,48.9572784 35.2499002,49.3878384 C34.3728335,48.1204251 33.1893135,47.0644784 31.7804602,46.3434117 C30.4534202,45.6667184 28.9669135,45.3061851 27.4880335,45.3061851 C25.9578468,45.3061851 24.4304335,45.6826651 23.0735802,46.3981851 L22.3150735,46.7961584 L22.4371002,47.6413317 C22.8732068,50.6822917 24.7632335,53.3315184 27.4963535,54.7285851 C28.8233935,55.4087451 30.3099002,55.7658117 31.7915535,55.7658117 C32.8585935,55.7658117 33.9228602,55.5793051 34.9302735,55.2243184 C35.0439802,60.9387717 36.3335802,64.9552517 36.4008335,65.1667184 C36.4445135,65.2991451 36.5096868,65.4183984 36.5908068,65.5237851 L36.5935802,65.5293317 C36.8209935,65.8246917 37.1759802,66.0007984 37.5496868,66.0007984 C37.6737935,66.0007984 37.8013668,65.9820784 37.9261668,65.9411717 C38.5626468,65.7352517 38.9093135,65.0502384 38.7006202,64.4137584 C38.6978468,64.4054384 38.6652602,64.3055984 38.6111802,64.1183984 C38.6111802,64.1156251 38.6084068,64.1156251 38.6084068,64.1128517 C38.5758202,63.9935984 38.5328335,63.8369051 38.4836068,63.6524784 C38.4732068,63.6122651 38.4648868,63.5741317 38.4510202,63.5311451 C38.4406202,63.4930117 38.4323002,63.4493317 38.4191268,63.4091184 C38.4052602,63.3522651 38.3920868,63.2981851 38.3754468,63.2357851 C38.3671268,63.1976517 38.3567268,63.1595184 38.3484068,63.1193051 C38.3296868,63.0430384 38.3102735,62.9646917 38.2915535,62.8835717 C38.2860068,62.8537584 38.2776868,62.8267184 38.2728335,62.7969051 C37.7334202,60.4381851 36.9478735,55.7283717 37.5767268,50.2517317 C37.5843535,50.1761584 37.5954468,50.1026651 37.6037668,50.0243184 C37.6308068,49.7996784 37.6606202,49.5771184 37.6932068,49.3497051 C37.7008335,49.2824517 37.7119268,49.2172784 37.7230202,49.1493317 C37.7604602,48.9004251 37.7985935,48.6515184 37.8422735,48.4019184 C37.8471268,48.3776517 37.8499002,48.3533851 37.8554468,48.3291184 C38.0072868,47.4458117 38.2021135,46.5465584 38.4406202,45.6396784 C38.4621135,45.5585584 38.4780602,45.4795184 38.4974735,45.4011717 C38.8247268,44.1822917 39.2206202,43.0015451 39.6865402,41.8589317 L39.7648868,41.8561584 L40.0359802,41.0435717 C40.0380602,41.0352517 40.0408335,41.0248517 40.0436068,41.0165317 C40.9754468,38.9226651 42.1457935,36.9646917 43.5539535,35.1419184 C44.5967268,35.3617051 45.6609935,35.4802651 46.7308068,35.4802651 L46.7308068,35.4802651 C50.3222735,35.4802651 53.8132068,34.2052251 56.5622735,31.8867184 C60.3534202,28.6959984 62.3606202,23.8398917 61.9356068,18.8971184 Z M23.9263802,32.0704517 C20.6226468,27.5721051 19.5902735,21.7869317 21.0989668,16.4330117 C26.6539535,16.5980251 31.8837668,19.3311451 35.1743268,23.8100784 C38.3269135,28.1059717 39.4043535,33.5715184 38.1833935,38.7195184 C37.1759802,35.9815451 35.1556068,33.3683717 32.6526735,30.1367451 C31.6265402,28.8097051 30.4617402,27.3093317 29.2622735,25.6550384 C28.8691535,25.1128517 28.1106468,24.9935984 27.5719268,25.3867184 C27.0304335,25.7791451 26.9111802,26.5376517 27.3036068,27.0763717 C28.5280335,28.7611717 29.7032335,30.2802651 30.7404602,31.6183984 C33.1102735,34.6787717 34.8872868,36.9785584 35.7893135,39.2395184 C31.0767268,38.5135984 26.7732068,35.9489584 23.9263802,32.0704517 Z M31.7915535,53.3446917 L31.7915535,53.3446917 C30.6759802,53.3446917 29.6006202,53.0846917 28.5980602,52.5730117 C26.8328335,51.6709851 25.5404602,50.0679984 25.0176868,48.1772784 C25.8060068,47.8846917 26.6456335,47.7300784 27.4880335,47.7300784 C28.6036068,47.7300784 29.6789668,47.9900784 30.6780602,48.5024517 C32.4412068,49.4037851 33.7363535,51.0102384 34.2591268,52.9002651 C33.4708068,53.1900784 32.6311802,53.3446917 31.7915535,53.3446917 Z M55.0071268,30.0369051 C52.6941668,31.9865584 49.7585935,33.0591451 46.7363535,33.0591451 C46.2863802,33.0591451 45.8398735,33.0321051 45.3926735,32.9863451 C47.4969402,30.7357851 50.0075002,28.7202651 52.9222735,26.9550384 C53.4935802,26.6083717 53.6773135,25.8630384 53.3306468,25.2917317 C52.9839802,24.7204251 52.2393402,24.5359984 51.6680335,24.8826651 C48.8378468,26.5972784 46.4791268,28.4796784 44.5072868,30.4535984 C45.0106468,27.4882117 46.5408335,24.7502384 48.8836068,22.7728517 C51.1965668,20.8231984 54.1328335,19.7506117 57.1523002,19.7506117 C57.9648868,19.7506117 58.7719268,19.8261851 59.5678735,19.9780251 C59.6330468,23.8322651 57.9676602,27.5395184 55.0071268,30.0369051 Z" id="Page-1" stroke="#FFFFFF" fill="#FFFFFF"></path>
        </g>
    </g>
</svg>