<?xml version="1.0" encoding="UTF-8"?>
<svg width="80px" height="80px" viewBox="0 0 80 80" version="1.1" xmlns="http://www.w3.org/2000/svg" xmlns:xlink="http://www.w3.org/1999/xlink">
    <!-- Generator: Sketch 42 (36781) - http://www.bohemiancoding.com/sketch -->
    <title>icon_delivery</title>
    <desc>Created with Sketch.</desc>
    <defs></defs>
    <g id="Mobile" stroke="none" stroke-width="1" fill="none" fill-rule="evenodd">
        <g id="icon_delivery">
            <rect id="Rectangle-6-Copy-5" fill="#F15F5B" x="0" y="0" width="80" height="80" rx="10"></rect>
            <path d="M65.7777778,52.2797834 L60.5992063,52.2797834 L60.5992063,50.5758263 L65.7777778,50.5758263 C65.9508571,50.5758263 66.1230159,50.4913551 66.3817143,50.2361249 C66.5547937,50.0653659 66.6413333,49.8946068 66.6413333,49.7247561 L66.6413333,42.145962 C66.2951746,41.3802712 63.4476508,38.3138751 60.8579048,35.8451356 L60.685746,35.7597561 L55.6793333,23.3270459 L13.9920635,23.3270459 C13.4746667,23.3270459 13.1285079,23.7530351 13.1285079,24.1790244 L13.1285079,47.6810976 C13.1285079,49.2987668 14.4238413,50.5758263 16.0634921,50.5758263 L17.4444444,50.5758263 L17.4444444,52.2797834 L16.0634921,52.2797834 C13.4746667,52.2797834 11.4032381,50.2361249 11.4032381,47.6810976 L11.4032381,24.1790244 C11.4032381,22.7312059 12.5245714,21.6249054 13.9920635,21.6249054 L56.888127,21.6249054 L62.2388571,34.7379268 C68.3666032,40.6136722 68.3666032,41.7199727 68.3666032,42.0614907 L68.3666032,49.7247561 C68.3666032,50.3205961 68.1079048,50.9173444 67.5905079,51.4278049 C67.0721905,51.9382654 66.3817143,52.2797834 65.7777778,52.2797834 Z" id="Fill-1" stroke="#FFFFFF" fill="#FFFFFF"></path>
            <path d="M64.0515873,37.8034146 L50.2420635,37.8034146 C49.4650476,37.8034146 48.515873,37.2075746 48.515873,36.2702166 L48.515873,31.672439 C48.515873,30.7359893 49.4650476,30.139241 50.2420635,30.139241 L58.8730159,30.139241 L58.8730159,31.843198 L50.2420635,31.843198 L50.2420635,36.1003659 L64.0515873,36.1003659 L64.0515873,37.8034146 Z" id="Fill-2" stroke="#FFFFFF" fill="#FFFFFF"></path>
            <path d="M21.760381,58.24 C18.9119365,58.24 16.5808889,55.9411112 16.5808889,53.1308537 C16.5808889,50.3205961 18.9119365,48.0217073 21.760381,48.0217073 C24.6079048,48.0217073 26.9380317,50.3205961 26.9380317,53.1308537 C26.9380317,55.9411112 24.6079048,58.24 21.760381,58.24 Z M21.760381,49.7247561 C19.8611111,49.7247561 18.308,51.2570459 18.308,53.1308537 C18.308,55.0046615 19.8611111,56.5369512 21.760381,56.5369512 C23.6587302,56.5369512 25.2127619,55.0046615 25.2127619,53.1308537 C25.2127619,51.2570459 23.6587302,49.7247561 21.760381,49.7247561 Z" id="Fill-3" stroke="#FFFFFF" fill="#FFFFFF"></path>
            <path d="M21.760381,54.4932927 C20.9833651,54.4932927 20.3794286,53.8974527 20.3794286,53.1308537 C20.3794286,52.3642546 20.9833651,51.7684146 21.760381,51.7684146 C22.5364762,51.7684146 23.1413333,52.3642546 23.1413333,53.1308537 C23.1413333,53.8974527 22.5364762,54.4932927 21.760381,54.4932927 Z M21.760381,52.7902439 C21.5873016,52.7902439 21.4142222,52.9610029 21.4142222,53.1308537 C21.4142222,53.3007044 21.5873016,53.4714634 21.760381,53.4714634 C21.9325397,53.4714634 22.1046984,53.3007044 22.1046984,53.1308537 C22.1046984,52.9610029 21.9325397,52.7902439 21.760381,52.7902439 Z" id="Fill-4" stroke="#FFFFFF" fill="#FFFFFF"></path>
            <path d="M57.1468254,58.24 C54.298381,58.24 51.968254,55.9411112 51.968254,53.1308537 C51.968254,50.3205961 54.298381,48.0217073 57.1468254,48.0217073 C59.9952698,48.0217073 62.3253968,50.3205961 62.3253968,53.1308537 C62.3253968,55.9411112 59.9952698,58.24 57.1468254,58.24 Z M57.1468254,49.7247561 C55.2475556,49.7247561 53.6944444,51.2570459 53.6944444,53.1308537 C53.6944444,55.0046615 55.2475556,56.5369512 57.1468254,56.5369512 C59.0460952,56.5369512 60.5992063,55.0046615 60.5992063,53.1308537 C60.5992063,51.2570459 59.0460952,49.7247561 57.1468254,49.7247561 Z" id="Fill-5" stroke="#FFFFFF" fill="#FFFFFF"></path>
            <path d="M57.1468254,54.4932927 C56.3698095,54.4932927 55.765873,53.8974527 55.765873,53.1308537 C55.765873,52.3642546 56.3698095,51.7684146 57.1468254,51.7684146 C57.9238413,51.7684146 58.5277778,52.3642546 58.5277778,53.1308537 C58.5277778,53.8974527 57.9238413,54.4932927 57.1468254,54.4932927 Z M57.1468254,52.7902439 C56.9746667,52.7902439 56.8015873,52.9610029 56.8015873,53.1308537 C56.8015873,53.3007044 56.9746667,53.4714634 57.1468254,53.4714634 C57.3189841,53.4714634 57.4920635,53.3007044 57.4920635,53.1308537 C57.4920635,52.9610029 57.3189841,52.7902439 57.1468254,52.7902439 Z" id="Fill-6" stroke="#FFFFFF" fill="#FFFFFF"></path>
            <polygon id="Fill-7" stroke="#FFFFFF" fill="#FFFFFF" points="25.2127619 52.2788751 52.8318095 52.2788751 52.8318095 50.5758263 25.2127619 50.5758263"></polygon>
        </g>
    </g>
</svg>