<?xml version="1.0" encoding="utf-8"?>
<!-- Generator: Adobe Illustrator 19.2.1, SVG Export Plug-In . SVG Version: 6.00 Build 0)  -->
<svg version="1.1" id="Layer_1" xmlns="http://www.w3.org/2000/svg" xmlns:xlink="http://www.w3.org/1999/xlink" x="0px" y="0px"
	 viewBox="0 0 24 24" enable-background="new 0 0 24 24" xml:space="preserve">
<g>
	<path fill="white" d="M10.6,12.5v-0.3V6.4c0.5,0,1,0,1.4,0c0.3,0,0.6,0.2,0.6,0.5c0,0.1,0,0.1,0,0.2c0,1.7,0,3.4,0,5.2v0.3h0.3
		c2.3,0,4.5,0,6.8,0c0.2,0,0.2,0,0.2,0.2c0,1.4,0,2.9,0,4.3c0,0.8-0.2,1.6-0.7,2.3c-0.1,0.2-0.5,0.6-0.7,0.7c-1.3,0.8-2.7,1.2-4.3,1
		c-1.6-0.2-3.3-0.3-4.9,0c-1.6,0.2-3.1-0.1-4.4-0.9c-0.8-0.5-1.2-1.2-1.4-2.1c-0.1-0.5-0.2-1.1-0.2-1.7c0-1.2,0-2.5,0-3.7
		c0-0.2,0.1-0.2,0.2-0.2c2.3,0,4.6,0,6.8,0H10.6z"/>
	<path fill="white" d="M7.9,5.6C7.8,5.6,7.8,5.6,7.9,5.6C7.7,5.7,7.6,5.8,7.6,5.8C7.3,6.7,7.1,7.6,7.1,8.5c0,0.1,0.1,0.2,0.1,0.4
		c0.1-0.1,0.2-0.2,0.2-0.3C7.8,7.7,8,6.8,7.9,5.9C7.9,5.8,7.9,5.7,7.9,5.6 M9,8.2C9,8.2,9,8.2,9,8.2C8.9,8.2,8.8,8.3,8.8,8.4
		c-0.4,1-0.5,1.9-0.6,3c0,0.1,0.1,0.2,0.1,0.3c0.1-0.1,0.2-0.2,0.2-0.3c0.4-1,0.5-2,0.5-3C9.1,8.3,9.1,8.2,9,8.2 M10.1,12.1
		c-0.7,0-1.4,0-2,0C8,12.1,8,12,7.9,12C7.6,11,7.2,10,6.8,9C6.4,7.9,6.1,6.7,5.9,5.4C5.8,4.9,5.8,4.4,5.9,3.8c0-0.1,0-0.2,0.1-0.2
		C6,3.3,6.3,3.2,6.5,3.4c0.3,0.2,0.6,0.5,0.8,0.8c0.8,1,1.4,2.1,1.9,3.2c0.3,0.6,0.6,1.1,0.8,1.8c0.1,0.6,0,1.2,0,1.7
		C10.1,11.2,10.1,11.7,10.1,12.1"/>
	<path fill="white" d="M16.6,12.1C17,9,17.1,5.9,17.3,2.8c0.6,0,1.2,0,1.8,0.1c-0.3,3.1-0.8,6.2-1.6,9.2H16.6z"/>
	<path fill="white" d="M21.1,3.1c0.4,0.2,0.9,0.4,1.3,0.7c-1.2,2.8-2.6,5.5-4,8.2c-0.1,0.1-0.1,0.2-0.2,0.1c-0.1,0-0.2,0-0.3,0
		c0.2-0.8,0.3-1.5,0.6-2.2c0.7-1.4,1.2-3,1.8-4.5c0.3-0.7,0.6-1.4,0.8-2.1C21,3.3,21.1,3.2,21.1,3.1"/>
	<path fill="white" d="M22.7,6.4C22.8,6.6,23,6.8,23.2,7c0.1,0.2,0.2,0.4,0.3,0.6c0.1,0.3,0.1,0.3-0.1,0.5c-1.4,1.1-2.6,2.5-3.6,4
		c-0.4,0-0.8,0-1.3,0C19.7,10.1,21.3,8.4,22.7,6.4"/>
	<path fill="white" d="M16.3,12.1h-1.5c0-1-0.1-2-0.1-3c0-0.3,0.1-0.7,0.2-1c0.1-0.4,0.4-0.5,0.8-0.5c0.4,0,0.6,0.2,0.8,0.6
		c0.2,0.4,0.1,0.9,0.1,1.3c-0.1,0.8-0.1,1.5-0.2,2.3C16.3,11.9,16.3,12,16.3,12.1"/>
	<path fill="white" d="M3.3,12.1c0-1.1,0.9-2,2.1-2c1,0,2,1,1.9,2H3.3z"/>
	<path fill="white" d="M4.2,10.3c-1.3-1-1.3-3.1,0-4.1C5.5,7.2,5.6,9.2,4.2,10.3"/>
	<path fill="white" d="M13,12.1v-0.3c0-0.9,0-1.8,0-2.7c0-0.2,0.1-0.2,0.2-0.2c0.5-0.1,0.9,0.2,0.9,0.7c0,0.5,0,0.9-0.1,1.4
		c0,0.3-0.1,0.6-0.1,0.9c0,0.1,0,0.1,0,0.2H13z"/>
	<path fill="white" d="M0.4,9.8c1-0.7,2.8-0.3,3.4,0.7C2.9,11.1,1.2,11,0.4,9.8"/>
	<path fill="white" d="M14.5,4.2c0.1,0.2,0.2,0.3,0.4,0.5c0.1-0.5,0.1-1,0.2-1.5c0,0,0,0,0,0c0.1,0.7,0.2,1.3,0.4,2.1
		c0.2-0.3,0.3-0.5,0.4-0.7c0,0,0,0,0,0c-0.1,0.4-0.1,0.8-0.2,1.3c0.2-0.2,0.3-0.3,0.4-0.4c0,0,0,0,0,0c-0.1,0.7-0.3,1.3-0.4,2
		c0,0-0.1,0-0.1,0c-0.4,0-0.4,0-0.5-0.3c-0.2-0.9-0.4-1.8-0.6-2.7C14.5,4.3,14.5,4.3,14.5,4.2"/>
	<path fill="white" d="M18.4,9.2c0.1-0.6,0.2-1.2,0.4-1.8c0.3-1.1,0.7-2.2,1.1-3.3c0.1-0.2,0.1-0.4,0.2-0.6c0-0.1,0.1-0.2,0.2-0.1
		c0.3,0.1,0.3,0.1,0.2,0.4c-0.6,1.6-1.2,3.3-1.8,4.9C18.7,8.9,18.6,9.1,18.4,9.2C18.5,9.2,18.5,9.2,18.4,9.2"/>
	<path fill="white" d="M14,7c-0.1,0.3-0.3,0.5-0.4,0.9c0.2-0.1,0.3-0.1,0.5-0.2c0,0,0,0,0,0c-0.2,0.3-0.4,0.7-0.6,1
		c0,0-0.1,0-0.2,0c-0.1,0-0.2,0-0.2,0V5.6c0,0,0,0,0,0c0.1,0.4,0.1,0.9,0.2,1.4c0.1-0.2,0.3-0.5,0.4-0.7c0,0,0,0,0,0
		c0,0.3-0.1,0.6-0.1,1C13.7,7.2,13.9,7.1,14,7C14,7,14,7,14,7"/>
</g>
</svg>
