<?xml version="1.0" encoding="UTF-8"?>
<svg width="80px" height="80px" viewBox="0 0 80 80" version="1.1" xmlns="http://www.w3.org/2000/svg" xmlns:xlink="http://www.w3.org/1999/xlink">
    <!-- Generator: Sketch 42 (36781) - http://www.bohemiancoding.com/sketch -->
    <title>icon_farmers_market</title>
    <desc>Created with Sketch.</desc>
    <defs></defs>
    <g id="Mobile" stroke="none" stroke-width="1" fill="none" fill-rule="evenodd">
        <g id="icon_farmers_market">
            <rect id="Rectangle-6-Copy-3" fill="#F15F5B" x="0" y="0" width="80" height="80" rx="10"></rect>
            <path d="M59.3944814,36.1361261 L59.3970533,36.1341972 C56.1094977,33.4266093 56.004049,31.4269422 55.8433041,28.3978644 L55.813084,27.8654771 C55.5771104,23.6533165 53.3292531,21.7597411 51.3147974,21.7597411 L51.234425,21.7597411 C50.9328675,21.7648849 50.3856917,21.7648849 49.7851485,21.7597411 C49.7851485,21.7545972 49.7877205,21.7520253 49.7877205,21.7494534 L49.7877205,18.6927275 C49.7877205,18.1378359 49.3382776,17.6883931 48.782743,17.6883931 C48.2278515,17.6883931 47.7784086,18.1378359 47.7784086,18.6927275 L47.7784086,21.7494534 C47.7784086,21.7545972 47.7809805,21.7571692 47.7809805,21.7597411 C47.1804374,21.7648849 46.6332616,21.7674568 46.3317041,21.7597411 L46.2513316,21.7597411 C44.236876,21.7597411 41.9890186,23.6533165 41.7530451,27.8654771 L41.722825,28.3978644 C41.659813,29.555871 41.6070886,30.5627773 41.3788308,31.5201742 C38.8795684,29.8522847 35.9057869,28.855023 32.7082484,28.7572901 L32.7082484,24.7187341 C32.7082484,24.1631995 32.2588055,23.7137566 31.703914,23.7137566 C31.1490224,23.7137566 30.6995796,24.1631995 30.6995796,24.7187341 L30.6995796,28.8125863 C22.2623988,29.5809472 15.6294193,36.6839449 15.6294193,45.3165915 C15.6294193,54.4565491 23.0661235,61.8932533 32.2060812,61.8932533 C35.3129595,61.8932533 38.2140843,61.0194438 40.705631,59.5219439 C43.0415765,61.0168719 45.8096045,61.8932533 48.782743,61.8932533 C57.0938998,61.8932533 63.8529033,55.1342498 63.8529033,46.8230931 C63.8529033,42.6488684 62.145149,38.8687902 59.3944814,36.1361261 Z M32.2060812,59.8839415 C24.1739777,59.8839415 17.6387312,53.348695 17.6387312,45.3165915 C17.6387312,37.794371 23.3728249,31.5825433 30.6995796,30.827042 L30.6995796,31.7535759 C30.6995796,32.3084674 31.1490224,32.7585533 31.703914,32.7585533 C32.2588055,32.7585533 32.7082484,32.3084674 32.7082484,31.7535759 L32.7082484,30.7743177 C40.5069502,31.0430832 46.7740742,37.4523057 46.7740742,45.3165915 C46.7740742,53.348695 40.2381847,59.8839415 32.2060812,59.8839415 Z M48.782743,59.8839415 C46.5123814,59.8839415 44.3751166,59.2988299 42.5136901,58.276492 C42.5117612,58.276492 42.5117612,58.276492 42.5117612,58.279064 C46.3265603,55.2371266 48.782743,50.5633065 48.782743,45.3165915 C48.782743,40.3405709 46.5676777,35.8827921 43.0865851,32.8382828 C43.5713919,31.4217983 43.6491924,30.0130296 43.7321368,28.505885 L43.759785,27.9812135 C43.9153861,25.2356898 45.1563371,23.7716248 46.2539036,23.7716248 L46.2841236,23.7716248 C46.7760031,23.7838414 47.8208453,23.7741967 48.785315,23.7613372 C49.7497846,23.7741967 50.7946268,23.7838414 51.2871493,23.7716248 L51.3173694,23.7716248 C52.4149359,23.7716248 53.6558868,25.2356898 53.811488,27.9812135 L53.8391361,28.505885 C54.0095257,31.6783473 54.1529102,34.4161552 58.1239534,37.6863504 C60.4373946,40.0448002 61.8487353,43.2693438 61.8487353,46.8230931 C61.8435914,54.0244667 55.9841166,59.8839415 48.782743,59.8839415 Z M36.6767196,34.0792338 C36.6394268,34.1898263 35.7302534,36.777177 31.703914,36.777177 C27.6775746,36.777177 26.7684012,34.1898263 26.7311083,34.0792338 C26.5549319,33.5519903 26.8417008,32.9842392 27.3663724,32.8087057 C27.8859,32.6325293 28.4465784,32.9115825 28.6298276,33.4240374 C28.6671205,33.5140545 29.2271559,34.7672221 31.7013421,34.7672221 C34.215393,34.7672221 34.7529241,33.4767617 34.7754284,33.4214654 C34.9766811,32.9167263 35.5470042,32.6479608 36.0588161,32.8337819 C36.571271,33.0196031 36.8477523,33.564207 36.6767196,34.0792338 Z M40.4593697,25.2511213 C42.0918954,23.6185956 43.1444533,21.6292162 43.6414767,19.534388 C43.7996497,18.8637601 43.9057414,18.1854165 43.948178,17.5 C43.2627616,17.5450086 42.5844179,17.6485283 41.9163619,17.8067014 C39.8189619,18.3062967 37.8295824,19.3562826 36.1970567,20.9888083 C34.5645311,22.621334 33.5145451,24.6107134 33.0149498,26.7048986 C32.8567767,27.3755265 32.7513281,28.0538702 32.7082484,28.7399296 C33.3943078,28.69685 34.0726515,28.5939732 34.7432794,28.4332283 C36.8400365,27.9362049 38.829416,26.883647 40.4593697,25.2511213 Z M37.618685,22.4104366 C38.7213954,21.3077263 40.0227865,20.5265059 41.403907,20.044271 C40.9216722,21.4253916 40.1404518,22.7267827 39.0377414,23.8320649 C37.9350311,24.9347753 36.634283,25.7153527 35.2505905,26.1975876 C35.7353972,24.8138951 36.5159747,23.513147 37.618685,22.4104366 Z" id="Page-1" stroke="#FFFFFF" fill="#FFFFFF"></path>
        </g>
    </g>
</svg>