<?xml version="1.0" encoding="UTF-8"?>
<svg width="80px" height="80px" viewBox="0 0 80 80" version="1.1" xmlns="http://www.w3.org/2000/svg" xmlns:xlink="http://www.w3.org/1999/xlink">
    <!-- Generator: Sketch 42 (36781) - http://www.bohemiancoding.com/sketch -->
    <title>icon_pantry</title>
    <desc>Created with Sketch.</desc>
    <defs></defs>
    <g id="Mobile" stroke="none" stroke-width="1" fill="none" fill-rule="evenodd">
        <g id="icon_pantry">
            <rect id="Rectangle-6" fill="#FFB939" x="0" y="0" width="80" height="80" rx="10"></rect>
            <path d="M65.421102,13.509293 L14.4254439,13.509293 C13.9145988,13.509293 13.5,13.9238918 13.5,14.4347368 L13.5,65.7577965 C13.5,66.2686415 13.9145988,66.6832403 14.4254439,66.6832403 L65.421102,66.6832403 C65.931947,66.6832403 66.3465459,66.2686415 66.3465459,65.7577965 L66.3465459,14.4347368 C66.3465459,13.9238918 65.931947,13.509293 65.421102,13.509293 Z M45.7844174,46.3111363 C45.7844174,45.5296504 46.4178323,44.8970581 47.1984956,44.8970581 L58.5316867,44.8970581 C59.31235,44.8970581 59.9457649,45.5296504 59.9457649,46.3111363 C59.9457649,47.0917996 59.31235,47.7243919 58.5316867,47.7243919 L47.1984956,47.7243919 C46.4178323,47.7243919 45.7844174,47.0917996 45.7844174,46.3111363 Z M45.7844174,41.6320922 C45.7844174,40.8514289 46.4178323,40.2180139 47.1984956,40.2180139 L58.5316867,40.2180139 C59.31235,40.2180139 59.9457649,40.8514289 59.9457649,41.6320922 C59.9457649,42.4127555 59.31235,43.0461704 58.5316867,43.0461704 L47.1984956,43.0461704 C46.4178323,43.0461704 45.7844174,42.4127555 45.7844174,41.6320922 Z M60.8004637,43.9716142 C61.4108453,43.3768623 61.7966526,42.5509551 61.7966526,41.6320922 C61.7966526,39.8330293 60.3315721,38.3671262 58.5316867,38.3671262 L47.1984956,38.3671262 C45.3986101,38.3671262 43.9335297,39.8330293 43.9335297,41.6320922 C43.9335297,42.5509551 44.3160464,43.3768623 44.9297185,43.9716142 C44.3193369,44.5663661 43.9335297,45.3922734 43.9335297,46.3111363 C43.9335297,46.8186908 44.0618579,47.2941633 44.2675121,47.7243919 L40.8487168,47.7243919 L40.8487168,32.4681415 L64.4956582,32.4681415 L64.4956582,47.7243919 L61.4626702,47.7243919 C61.6716148,47.2941633 61.7966526,46.8186908 61.7966526,46.3111363 C61.7966526,45.3922734 61.4141358,44.5663661 60.8004637,43.9716142 Z M46.1858543,26.1660745 L49.1966317,26.1660745 L48.8692302,30.6172537 L46.4754154,30.6172537 L46.1858543,26.1660745 Z M51.0351801,26.4391832 L54.5181395,26.4391832 L54.7912483,30.6172537 L50.7266989,30.6172537 L51.0351801,26.4391832 Z M51.2696259,20.1379388 L54.2804033,20.1379388 L53.9530018,24.5858277 L51.559187,24.5858277 L51.2696259,20.1379388 Z M56.3533975,26.1660745 L59.3641748,26.1660745 L59.0359507,30.6172537 L56.642136,30.6172537 L56.3533975,26.1660745 Z M64.4956582,30.6172537 L60.8934194,30.6172537 L61.2858076,25.3113756 C61.3047278,25.0547192 61.2150625,24.8038211 61.0414904,24.6146192 C60.8679183,24.4245948 60.6203106,24.3184772 60.3636542,24.3184772 L55.8326811,24.3184772 L56.2053265,19.28324 C56.2242467,19.0265836 56.1345814,18.7756855 55.9610093,18.5864836 C55.7874372,18.3964592 55.5398295,18.2903416 55.2831731,18.2903416 L50.2865989,18.2903416 C50.0291198,18.2903416 49.7848027,18.3964592 49.6112305,18.5831932 C49.4376584,18.7691045 49.3479932,19.0200027 49.3644455,19.2766591 L49.691847,24.3184772 L45.2028273,24.3184772 C44.9453483,24.3184772 44.7018537,24.4245948 44.5282816,24.6113288 C44.3547094,24.7972402 44.2642216,25.0481383 44.2806739,25.3056173 L44.6278182,30.6197216 L40.8487168,30.6197216 L40.8487168,15.3601807 L64.4956582,15.3601807 L64.4956582,30.6172537 Z M38.9978291,15.3601807 L38.9978291,39.1708228 L36.2083357,39.1708228 L36.2083357,29.6819385 C36.2083357,28.470224 35.2220182,27.487197 34.0103037,27.487197 L29.8042642,27.487197 C28.5933723,27.487197 27.6062322,28.4735145 27.6062322,29.6819385 L27.6062322,32.2172433 C27.516567,32.1366269 27.4293696,32.0535426 27.3364139,31.9795071 C27.1727132,31.8511789 26.9736399,31.7804338 26.7646953,31.7804338 L22.1086844,31.7804338 L20.1319363,27.9659599 C19.8942001,27.5126981 19.3389338,27.3358355 18.8856719,27.5702813 C18.4324101,27.8055497 18.2555475,28.3641064 18.4899933,28.8173683 L20.2479253,32.2073719 C19.065825,33.261144 18.3871662,34.7393863 18.3871662,36.3303271 C18.3871662,37.3487267 18.6668559,38.3227049 19.1777009,39.1675323 L15.3541782,39.1675323 L15.3541782,15.3568902 L38.9978291,15.3568902 L38.9978291,15.3601807 Z M21.4176863,33.6313216 L26.4241319,33.6313216 C27.1792941,34.3280779 27.6062322,35.2987657 27.6062322,36.3303271 C27.6062322,37.365179 27.1792941,38.3317537 26.4241319,39.0293327 L21.4176863,39.0293327 C20.6625241,38.3317537 20.2347634,37.365179 20.2347634,36.3303271 C20.2347634,35.2954753 20.6625241,34.3313684 21.4176863,33.6313216 Z M34.3574479,39.0326232 L29.4604104,39.0326232 L29.4604104,29.6819385 C29.4604104,29.491914 29.6150623,29.3380847 29.8075546,29.3380847 L34.0135941,29.3380847 C34.2036186,29.3380847 34.3607384,29.491914 34.3607384,29.6819385 L34.3607384,39.0326232 L34.3574479,39.0326232 Z M15.3508877,41.0217105 L38.9978291,41.0217105 L38.9978291,64.8323526 L36.3695685,64.8323526 L36.3695685,56.8439213 C36.3695685,54.9996145 35.087109,53.4506271 33.36784,53.0335605 C33.36784,53.0269795 33.3711305,53.0203986 33.3711305,53.0105272 L33.3711305,47.4389439 C33.3711305,46.9280989 32.9565316,46.5135 32.4456866,46.5135 C31.9348416,46.5135 31.5202427,46.9280989 31.5202427,47.4389439 L31.5202427,53.0105272 C31.5202427,53.0171081 31.5235332,53.023689 31.5235332,53.0335605 C29.8042642,53.4506271 28.5226273,54.9996145 28.5226273,56.8439213 L28.5226273,64.8323526 L25.8195086,64.8323526 L25.8195086,55.771229 C25.8195086,55.260384 25.4057324,54.8457852 24.8940647,54.8457852 L19.31261,54.8457852 C18.801765,54.8457852 18.3871662,55.260384 18.3871662,55.771229 L18.3871662,64.8323526 L15.3541782,64.8323526 L15.3541782,41.0217105 L15.3508877,41.0217105 Z M20.2347634,64.8323526 L20.2347634,56.6966729 L23.966153,56.6966729 L23.966153,64.8323526 L20.2347634,64.8323526 Z M30.3702245,64.8323526 L30.3702245,56.8439213 C30.3702245,55.700484 31.3022493,54.7684592 32.4456866,54.7684592 C33.5899465,54.7684592 34.5219713,55.700484 34.5219713,56.8439213 L34.5219713,64.8323526 L30.3702245,64.8323526 Z M45.7844174,64.8323526 L45.7844174,59.2706407 L56.938278,59.2706407 L56.938278,64.8323526 L45.7844174,64.8323526 Z M58.7891657,64.8323526 L58.7891657,58.3451969 C58.7891657,57.8335292 58.3745669,57.419753 57.8637219,57.419753 L57.2048058,57.419753 L59.2679287,53.9137604 C59.5278756,53.4736604 59.3798046,52.9044096 58.9397046,52.6477532 C58.4996046,52.3902741 57.9311764,52.5350547 57.6736974,52.9751547 L55.0577761,57.419753 L44.8589735,57.419753 C44.3481285,57.419753 43.9335297,57.8335292 43.9335297,58.3451969 L43.9335297,64.8323526 L40.8487168,64.8323526 L40.8487168,49.5752796 L64.4956582,49.5752796 L64.4956582,64.8323526 L58.7891657,64.8323526 Z" id="Page-1" stroke="#FFFFFF" fill="#FFFFFF"></path>
        </g>
    </g>
</svg>