<?xml version="1.0" encoding="utf-8"?>
<!-- Generator: Adobe Illustrator 19.2.1, SVG Export Plug-In . SVG Version: 6.00 Build 0)  -->
<svg version="1.1" id="Layer_1" xmlns="http://www.w3.org/2000/svg" xmlns:xlink="http://www.w3.org/1999/xlink" x="0px" y="0px"
	 viewBox="0 0 24 24" enable-background="new 0 0 24 24" xml:space="preserve">
<g>
	<path fill="white" d="M17.8,8.5c0,1.1-0.2,2.1-0.7,3c-0.5,0.9-1.2,1.6-2.1,2c-0.7,0.3-1.4,0.5-2.2,0.6c-1.2,0.1-2.3-0.2-3.4-0.8
		c-1.3-0.8-2.2-2-2.5-3.7C6.8,8.7,6.8,7.8,7.2,7C7.4,6.5,7.6,6.1,8,5.8c0.5-0.5,1-0.6,1.6-0.3c0.4,0.2,0.8,0.4,1.2,0.7
		c0.6,0.6,1.3,0.7,2.1,0.7c0.5,0,1-0.2,1.4-0.6c0.2-0.2,0.4-0.4,0.5-0.7c0.1-0.3,0.3-0.4,0.6-0.5c0.2,0,0.3,0,0.5,0.1
		c0.7,0.2,1.2,0.7,1.6,1.4C17.7,7.2,17.8,7.8,17.8,8.5"/>
	<path fill="white" d="M13,5.3c0,0.3,0,0.6-0.1,0.8c-0.1,0.3-0.4,0.5-0.7,0.4c-0.2-0.1-0.3-0.3-0.4-0.6c0-0.3,0-0.5,0.1-0.8
		c0.1-0.5,0.1-1,0-1.5c0-0.2,0-0.3,0.2-0.3c0.1,0,0.3,0,0.4,0c0.1,0,0.2,0.1,0.2,0.2c0.1,0.4,0.2,0.8,0.2,1.2C13,4.9,13,5.2,13,5.3"
		/>
	<path fill="white" d="M13.3,6.4c0.2-0.5,0.1-1,0.1-1.4c0-0.1,0-0.1,0.1-0.1c0.5-0.4,0.9-0.9,1.2-1.5c0.1-0.1,0.1-0.2,0.2-0.3
		c-0.1,0.2-0.1,0.5-0.2,0.7C14.6,4.3,14.4,5,14,5.6c-0.2,0.3-0.3,0.5-0.6,0.7C13.4,6.3,13.4,6.3,13.3,6.4"/>
	<path fill="white" d="M11.4,6.1c-0.2-0.2-0.4-0.3-0.5-0.5c-0.4-0.4-0.9-0.7-1.4-0.9C9.2,4.5,9,4.5,8.8,4.5c0.9-0.1,1.8,0,2.7,0.4
		C11.4,5.2,11.3,5.6,11.4,6.1C11.4,6.1,11.4,6.1,11.4,6.1"/>
	<path fill="white" d="M14.1,15.6C14.1,15.6,14.1,15.6,14.1,15.6c0.1,0.1,0.3,0.2,0.4,0.3c0.6,0.4,1.3,0.5,2,0.4
		c0.7-0.1,1.3-0.4,1.9-0.8c0.4-0.3,0.7-0.8,0.8-1.4c0-0.1,0-0.1,0-0.2c-0.1,0-0.2,0.1-0.2,0.2c-0.1,0.4-0.3,0.8-0.7,1.1
		c-0.7,0.6-1.6,0.9-2.6,0.8C15.2,16.1,14.7,15.9,14.1,15.6C14.2,15.7,14.1,15.6,14.1,15.6 M14.3,17.5C14.3,17.6,14.3,17.6,14.3,17.5
		c0.2,0.1,0.3,0.1,0.4,0.2c0.7,0.3,1.5,0.4,2.2,0.3c1.1-0.2,2-0.8,2.7-1.7c0.3-0.3,0.5-0.6,0.6-1c0.1-0.3,0.1-0.6,0.1-0.8
		c0,0,0-0.1,0-0.1c-0.2,0.1-0.2,0.2-0.2,0.4c0,0.5-0.2,1-0.5,1.4c-0.8,1-1.9,1.6-3.1,1.7c-0.6,0.1-1.2,0-1.8-0.2
		C14.6,17.6,14.4,17.6,14.3,17.5 M21.6,14c-0.1,0.1-0.1,0.3-0.1,0.5c0.2,0.6,0.2,1.2,0,1.8c-0.3,1-0.8,1.8-1.5,2.4
		c-0.7,0.6-1.4,0.9-2.2,1.1c-0.2,0.1-0.4,0.1-0.6,0.2c0.2,0,0.4,0,0.6,0c0.6,0,1.1-0.2,1.6-0.4c1.1-0.6,1.9-1.5,2.4-2.7
		c0.2-0.4,0.3-0.8,0.3-1.2c0-0.5-0.1-1-0.3-1.4C21.6,14.1,21.6,14.1,21.6,14 M18.8,12.4c0.2,0,0.4,0,0.5,0c0.5,0,1-0.1,1.4-0.3
		c0.1-0.1,0.2-0.2,0.3-0.2c0,0,0.1,0,0.1,0c0.1,0,0.2,0.1,0.2,0.3c0,0.3,0,0.5,0,0.8c0,0,0,0,0,0.1c0.1,0.1,0.3,0.2,0.4,0.4
		c0,0,0,0,0.1,0c0.7,0.2,1,0.6,1.2,1.3c0.2,0.5,0.2,1,0.1,1.6c-0.2,1.6-1,2.8-2.2,3.7c-0.6,0.4-1.2,0.8-2,1
		c-0.6,0.2-1.3,0.2-1.9-0.2c-0.2-0.1-0.4-0.2-0.6-0.4c0,0-0.1-0.1,0-0.1c0-0.2,0.1-0.3,0.1-0.5c0,0,0-0.1,0-0.1
		c0.5-0.2,0.9-0.5,1.4-0.7c0.3-0.1,0.6-0.2,0.9-0.3c1.1-0.5,1.8-1.5,2.1-2.8c0-0.2,0-0.4,0.1-0.6c0-0.4,0-0.7,0-1.1
		c0-0.3-0.1-0.6-0.3-0.9c0,0-0.1,0-0.1,0c-0.1-0.1-0.2-0.1-0.2-0.2c-0.1,0-0.1,0-0.2,0c0,0,0,0,0,0c0,0,0.1,0.1,0.1,0.1
		c0.1,0,0.1,0.2,0.2,0.2c0,0.1,0.1,0.1,0.1,0.2c0,0.1,0.1,0.2,0.2,0.2c0.1,0.1,0.1,0.1,0.1,0.2c0,0.2,0,0.3,0,0.5c0,0.3,0,0.7,0,1
		c-0.2,1.4-0.9,2.4-2.1,3c-0.3,0.1-0.6,0.2-1,0.3c-0.4,0.1-0.8,0.2-1.1,0.4c0,0-0.1,0-0.1,0c-0.6,0-1.2-0.1-1.8-0.4
		c-0.5-0.3-0.9-0.7-1.1-1.2c0-0.1,0-0.1,0-0.2c0.1-0.1,0.1-0.2,0.2-0.3c0,0,0.1-0.1,0.1-0.1c0.3,0,0.6,0,0.9,0c0.4,0,0.7,0,1.1,0.1
		c1.3,0.2,2.3-0.3,3.1-1.3c0.2-0.2,0.3-0.4,0.4-0.7c0.1-0.3,0.3-0.6,0.4-0.9c0.1-0.3,0.1-0.6,0.1-0.9c0-0.1-0.1-0.2-0.2-0.3
		c0,0-0.1,0-0.1,0c-0.1,0-0.1,0-0.2,0c0,0.2,0,0.4,0.2,0.6c0,0,0,0,0,0c0.2,0.2,0.2,0.3,0.1,0.6c-0.2,0.4-0.4,0.7-0.6,1.1
		c-0.2,0.4-0.6,0.7-0.9,1c-0.6,0.5-1.4,0.7-2.1,0.6c-0.3,0-0.5-0.1-0.8-0.1c-0.2,0-0.5,0-0.7-0.1c0,0-0.1,0-0.1,0
		c-0.4-0.3-0.7-0.7-0.8-1.2c0-0.1,0-0.1,0-0.1c0.1-0.1,0.1-0.2,0.2-0.2c0,0,0.1,0,0.1,0c0.5,0.1,0.9,0.1,1.4,0.3
		c0.2,0.1,0.5,0.2,0.7,0.2c0.6,0.1,1.2-0.1,1.7-0.4c0.3-0.2,0.5-0.4,0.7-0.7c0.1-0.2,0.3-0.4,0.4-0.6c0.1-0.2,0.2-0.4,0.2-0.7
		c0-0.1-0.1-0.2-0.1-0.3c0,0,0-0.1,0-0.1C18.8,12.7,18.8,12.6,18.8,12.4"/>
	<path fill="white" d="M21.6,14c0,0.1,0.1,0.1,0.1,0.2c0.2,0.4,0.3,0.9,0.3,1.4c0,0.4-0.2,0.8-0.3,1.2c-0.5,1.2-1.3,2.1-2.4,2.7
		c-0.5,0.3-1.1,0.4-1.6,0.4c-0.2,0-0.4,0-0.6,0c0.2-0.1,0.4-0.1,0.6-0.2c0.8-0.2,1.6-0.5,2.2-1.1c0.7-0.6,1.3-1.4,1.5-2.4
		c0.2-0.6,0.2-1.2,0-1.8C21.5,14.3,21.5,14.2,21.6,14"/>
	<path fill="white" d="M14.3,17.5c0.2,0,0.3,0.1,0.4,0.1c0.6,0.1,1.2,0.2,1.8,0.2c1.2-0.1,2.3-0.7,3.1-1.7
		c0.3-0.4,0.5-0.9,0.5-1.4c0-0.2,0.1-0.3,0.2-0.4c0,0,0,0.1,0,0.1c0,0.3,0,0.6-0.1,0.8c-0.1,0.4-0.3,0.7-0.6,1
		C19,17.2,18.1,17.8,17,18c-0.8,0.1-1.5,0-2.2-0.3C14.6,17.7,14.4,17.6,14.3,17.5C14.3,17.6,14.3,17.5,14.3,17.5"/>
	<path fill="white" d="M14.1,15.6C14.1,15.6,14.2,15.7,14.1,15.6c0.6,0.3,1.1,0.5,1.6,0.5c0.9,0.1,1.8-0.1,2.6-0.8
		c0.3-0.3,0.6-0.6,0.7-1.1c0-0.1,0.1-0.2,0.2-0.2c0,0.1,0,0.1,0,0.2c-0.1,0.6-0.4,1-0.8,1.4c-0.6,0.4-1.2,0.7-1.9,0.8
		c-0.7,0.1-1.4-0.1-2-0.4C14.4,15.8,14.2,15.7,14.1,15.6C14.1,15.6,14.1,15.6,14.1,15.6"/>
	<path fill="white" d="M4.4,11.8c0.6,0.8,1.3,1.5,2.1,2.2c0.9,0.7,1.8,1.3,2.9,1.7c0.1,0,0.2,0.1,0.3,0.1c0.1,0,0.2,0,0.3-0.2
		c0-0.1,0-0.2-0.2-0.3c-0.3-0.1-0.7-0.2-1-0.4c-0.9-0.4-1.7-1-2.4-1.6c-0.6-0.5-1.2-1.1-1.7-1.8c-0.1-0.1-0.2-0.1-0.2-0.1
		c-0.1,0-0.1,0.1-0.1,0.3C4.4,11.6,4.4,11.7,4.4,11.8 M3.8,10.9c0.3,0,0.6,0,0.8-0.1c0.1,0,0.1,0,0.2,0c0.2,0.2,0.5,0.5,0.7,0.7
		c0.7,0.8,1.5,1.4,2.3,2c0.6,0.3,1.2,0.6,1.8,0.9c0.3,0.1,0.6,0.3,0.8,0.4c0.4,0.2,0.7,0.6,0.9,1c0.2,0.5,0.2,1.1,0.1,1.6
		c-0.1,0.5-0.4,1-0.7,1.4c-0.3,0.4-0.7,0.6-1.2,0.8C8.8,20,8,20.1,7.3,19.9C6.1,19.6,5,19,4.1,18c-0.6-0.6-1-1.3-1.3-2.1
		c-0.4-1-0.8-2-1.1-3c0,0,0-0.1,0-0.1c0.2-0.2,0.4-0.5,0.5-0.7c0,0,0,0,0-0.1c0.4,0.3,0.8,0.5,1.2,0.5c0.1,0,0.2,0,0.3-0.2
		c0.1-0.3,0.1-0.6,0.1-0.9C3.7,11.3,3.7,11.1,3.8,10.9C3.7,10.9,3.7,10.9,3.8,10.9"/>
	<path fill="white" d="M3.2,10.5c0.5,0.2,1,0.2,1.5-0.1c-0.1-0.1-0.3-0.3-0.4-0.4c-0.3-0.3-0.6-0.5-1-0.6c-0.2,0-0.4,0-0.6-0.1
		C2.5,9.3,2.2,9.1,1.9,8.8C1.9,8.7,1.8,8.6,1.8,8.5C1.6,8.7,1.3,8.8,1.1,9c0.3,0.4,0.3,0.9,0.1,1.3c0,0.1-0.1,0.3-0.2,0.4
		c-0.3,0.7-0.2,1.5,0.3,2.1c0,0,0,0,0,0C1.6,12.6,2.1,12,2,11.4c0.3,0.6,0.9,0.8,1.4,0.9c0.1-0.3,0.1-0.6,0.1-0.9
		C3.5,11.1,3.4,10.8,3.2,10.5"/>
</g>
</svg>
