<?xml version="1.0" encoding="utf-8"?>
<!-- Generator: Adobe Illustrator 19.2.1, SVG Export Plug-In . SVG Version: 6.00 Build 0)  -->
<svg version="1.1" id="Layer_1" xmlns="http://www.w3.org/2000/svg" xmlns:xlink="http://www.w3.org/1999/xlink" x="0px" y="0px"
	 viewBox="0 0 24 24" enable-background="new 0 0 24 24" xml:space="preserve">
<path fill="white" d="M7.3,10.9c0-0.3-0.2-0.5-0.5-0.5c-0.3,0-0.5,0.2-0.5,0.5c0,0.3,0.2,0.5,0.5,0.5C7,11.3,7.3,11.1,7.3,10.9
	 M17.2,11.3c0.3,0,0.5-0.2,0.5-0.5c0-0.3-0.2-0.5-0.5-0.5c-0.3,0-0.5,0.2-0.5,0.5C16.7,11.1,17,11.3,17.2,11.3 M17.6,17.8
	c-0.5,0-0.9,0-1.3,0c0,0-0.1,0.1-0.1,0.1c-0.1,0.3-0.2,0.6-0.3,1c0.4,0,0.7,0,1.1,0c0,0,0.1,0,0.1-0.1
	C17.2,18.5,17.4,18.1,17.6,17.8 M8.2,18.9C8.1,18.6,8,18.4,8,18.2c-0.1-0.4-0.1-0.4-0.5-0.4h-1c0.2,0.4,0.3,0.7,0.5,1
	c0,0,0.1,0.1,0.1,0.1C7.4,18.9,7.8,18.9,8.2,18.9 M10.4,17.8H8.6c0.1,0.4,0.2,0.7,0.3,1.1h1.6C10.4,18.5,10.4,18.1,10.4,17.8
	 M13.5,18.9c0.5,0,1,0,1.5,0c0,0,0.1,0,0.1-0.1c0.1-0.3,0.2-0.7,0.3-1h-1.7C13.6,18.2,13.6,18.5,13.5,18.9 M11.1,17.8
	c0,0.4,0.1,0.7,0.1,1.1h1.6c0-0.4,0.1-0.7,0.1-1.1H11.1z M18.7,15.6h-2c-0.1,0.5-0.2,1-0.4,1.5c0.5,0,1,0,1.5,0c0,0,0.1,0,0.1-0.1
	C18.2,16.5,18.4,16.1,18.7,15.6 M5.3,15.6C5.6,16.1,5.8,16.5,6,17c0,0,0.1,0.1,0.1,0.1c0.5,0,1,0,1.6,0c-0.1-0.5-0.2-1-0.4-1.5H5.3z
	 M10.2,15.6H8.1c0.1,0.5,0.2,0.9,0.3,1.4c0,0,0.1,0.1,0.1,0.1c0.6,0,1.2,0,1.8,0C10.3,16.6,10.2,16.1,10.2,15.6 M15.9,15.6h-2.1
	c0,0.5-0.1,1-0.1,1.4c0.6,0,1.2,0,1.8,0c0,0,0.1-0.1,0.1-0.1C15.7,16.5,15.8,16.1,15.9,15.6 M12.9,17c0-0.5,0.1-1,0.1-1.4h-2.1
	c0,0.5,0.1,1,0.1,1.4H12.9z M16.9,11.6h-2.8c0,0.4-0.1,0.7-0.1,1.1c0.8,0,1.7,0,2.5,0c0,0,0.1-0.1,0.1-0.1
	C16.7,12.2,16.8,11.9,16.9,11.6 M9.9,11.6H7.1c0.1,0.3,0.2,0.6,0.2,0.9c0,0.1,0.1,0.2,0.2,0.2c0.6,0,1.1,0,1.7,0H10
	C9.9,12.3,9.9,11.9,9.9,11.6 M10.7,12.7h2.6c0-0.4,0.1-0.7,0.1-1.1h-2.8C10.6,12,10.7,12.3,10.7,12.7 M20.7,11.6c-1,0-2,0-2.9,0
	c0,0-0.1,0-0.1,0.1c-0.1,0.3-0.2,0.7-0.3,1c0.9,0,1.8,0,2.6,0c0,0,0.1,0,0.1-0.1C20.3,12.3,20.5,11.9,20.7,11.6 M6.6,12.7
	c-0.1-0.4-0.2-0.7-0.3-1.1h-3c0.2,0.4,0.3,0.7,0.5,1c0,0,0.1,0.1,0.1,0.1C4.8,12.7,5.7,12.7,6.6,12.7 M16.9,14.8c0.1,0,0.1,0,0.2,0
	c0.6,0,1.2,0,1.8,0c0.1,0,0.2,0,0.3-0.2c0.1-0.3,0.3-0.5,0.4-0.8c0.1-0.2,0.2-0.3,0.3-0.5c-0.8,0-1.6,0-2.4,0c0,0-0.1,0-0.1,0.1
	C17.1,13.9,17,14.4,16.9,14.8 M13.9,14.9h2.2c0.1-0.5,0.2-1,0.4-1.4H14C13.9,13.9,13.9,14.4,13.9,14.9 M10.1,14.9
	c0-0.5-0.1-1-0.1-1.4H7.5c0.1,0.5,0.2,1,0.4,1.4H10.1z M4.2,13.4c0.2,0.5,0.5,0.9,0.7,1.4c0,0,0.1,0.1,0.2,0.1c0.4,0,0.7,0,1.1,0
	h0.9c-0.1-0.3-0.2-0.6-0.2-0.9c0-0.2,0-0.4-0.2-0.5c-0.1-0.1-0.3,0-0.5,0C5.6,13.4,4.9,13.4,4.2,13.4 M10.8,13.4
	c0,0.5,0.1,1,0.1,1.4h2.2c0-0.5,0.1-1,0.1-1.4H10.8z M7.8,10.1h8.5c0-0.1-0.1-0.1-0.1-0.2c-1.2-1.7-2.3-3.5-3.5-5.2
	c-0.1-0.1-0.1-0.2-0.2-0.3c-0.1-0.3,0.1-0.6,0.4-0.7c0.3-0.1,0.5,0,0.7,0.2c0.2,0.3,0.4,0.7,0.7,1c1.1,1.7,2.2,3.4,3.4,5
	c0.1,0.1,0.2,0.2,0.3,0.2c1.3,0,2.6,0,3.9,0c0.6,0,1,0.5,0.7,1.1c-1.4,2.9-2.9,5.8-4.3,8.6c-0.2,0.3-0.4,0.5-0.7,0.5
	c-3.6,0-7.2,0-10.8,0c-0.3,0-0.6-0.1-0.7-0.5C4.4,17,3,14.1,1.5,11.2c-0.3-0.6,0.1-1.1,0.7-1.1c1.3,0,2.5,0,3.8,0
	c0.2,0,0.3,0,0.4-0.2C7.7,8,9,6,10.3,4c0.1-0.2,0.3-0.3,0.5-0.4c0.2,0,0.4,0.1,0.6,0.3c0.1,0.2,0.1,0.4,0,0.6
	c-0.1,0.2-0.3,0.5-0.5,0.7c-1,1.5-2.1,3.1-3.1,4.6C7.8,10,7.8,10,7.8,10.1"/>
</svg>
