<?xml version="1.0" encoding="UTF-8"?>
<svg width="120px" height="64px" viewBox="0 0 120 64" version="1.1" xmlns="http://www.w3.org/2000/svg" xmlns:xlink="http://www.w3.org/1999/xlink">
    <!-- Generator: Sketch 42 (36781) - http://www.bohemiancoding.com/sketch -->
    <title>logo</title>
    <desc>Created with Sketch.</desc>
    <defs></defs>
    <g id="Mobile" stroke="none" stroke-width="1" fill="none" fill-rule="evenodd">
        <g id="logo" fill-rule="nonzero">
            <g id="fola-copy">
                <g id="Layer_1">
                    <path d="M60.5866667,16.5687583 L59.8933333,16.5687583 C58.0266667,16.5687583 56.48,17.7901732 55.9466667,19.4895331 C61.8133333,24.2689826 64.7466667,31.7036818 64.64,39.1383811 C64.5333333,46.5730803 61.76,54.0077796 55.7866667,58.6810191 L55.7866667,59.4775941 C55.7866667,61.7611088 57.6,63.5666786 59.8933333,63.5666786 L115.52,63.5666786 L115.52,63.5666786 C113.813333,63.5666786 112.213333,62.5576837 111.52,60.9645339 L109.866667,57.9906542 C109.173333,56.3975044 107.573333,55.3885095 105.866667,55.3885095 L86.9333333,55.3885095 C85.2266667,55.3885095 83.6266667,56.3975044 82.9333333,57.9375492 L81.2266667,60.9645339 C80.5333333,62.5576837 78.9333333,63.5135737 77.2266667,63.5135737 C74.0266667,63.5135737 71.8933333,60.221064 73.2266667,57.3002893 L74.1333333,55.2822995 L68.8,55.2822995 C66.56,55.2822995 64.6933333,53.4236247 64.6933333,51.1932149 L64.6933333,20.6578429 C64.6933333,18.3743282 62.88,16.5687583 60.5866667,16.5687583 M55.84,36.5893413 L55.84,41.2625809 C55.8933333,40.5722159 55.9466667,39.934956 55.9466667,39.2445911 C55.9466667,38.3949112 55.9466667,37.4921263 55.84,36.5893413" id="Shape" fill="#4E5493"></path>
                    <path d="M96.2133333,16.5687583 C94.5066667,16.5687583 91.1466667,17.5777532 90.4533333,19.1709031 L74.1333333,55.3885095 L115.52,55.3885095 C117.76,55.3885095 119.84,57.2471843 119.84,59.5306991 L119.84,59.5306991 L119.84,59.583804 L119.84,59.583804 C119.84,61.8142138 117.76,63.6728886 115.52,63.6728886 L115.573333,63.6728886 C118.773333,63.6728886 120.906667,60.380379 119.573333,57.5127093 L102.4,19.2771131 C101.706667,17.5777532 97.92,16.5687583 96.2133333,16.5687583 L96.2133333,16.5687583 Z M94.4,46.4668704 C91.2533333,46.4668704 89.12,43.2274657 90.4,40.306691 L92.4266667,35.6334514 C93.1733333,33.8809866 94.8266667,32.9782017 96.4266667,32.9782017 C98.08,32.9782017 99.68,33.8809866 100.426667,35.6334514 L102.453333,40.306691 C103.733333,43.2274657 101.6,46.4668704 98.4533333,46.4668704 L94.4,46.4668704 Z" id="Shape" fill="#90C146"></path>
                    <path d="M115.52,55.3885095 L74.1333333,55.3885095 L73.2266667,57.4064993 C71.9466667,60.327274 74.0266667,63.6197836 77.2266667,63.6197836 C78.9333333,63.6197836 80.5333333,62.6107887 81.2266667,61.0707439 L82.9333333,58.0437592 C83.6266667,56.4506094 85.2266667,55.4947195 86.9333333,55.4947195 L105.866667,55.4947195 C107.573333,55.4947195 109.173333,56.5037144 109.866667,58.0968642 L111.52,61.0707439 C112.213333,62.6638937 113.813333,63.6728886 115.52,63.6728886 L115.52,63.6728886 C117.76,63.6728886 119.84,61.8673188 119.84,59.583804 C119.84,57.2471843 117.813333,55.3885095 115.52,55.3885095 L115.52,55.3885095 Z" id="Shape" fill="#3F759D"></path>
                    <path d="M40.5866667,14.4445586 L39.68,14.4445586 C41.3866667,14.9756085 42.6133333,16.5156533 42.6133333,18.3743282 L42.6133333,18.6929581 C42.6133333,20.392318 41.5466667,21.8792578 40.0533333,22.4634128 L40.5866667,22.4634128 C50.4533333,22.4634128 55.04,29.4732721 55.84,36.5893413 L55.84,20.6578429 C55.84,20.233003 55.8933333,19.861268 56,19.4895331 C52.1066667,16.3563384 46.9866667,14.4445586 40.5866667,14.4445586 M25.1733333,40.147376 C24.96,42.2184708 23.2,43.8647256 21.0666667,43.8647256 L16.7466667,43.8647256 C18.4533333,54.4326196 26.1333333,63.5135737 40.5866667,63.5135737 C46.9866667,63.5135737 52.0533333,61.6548988 55.84,58.7341241 L55.84,41.3156859 C55.04,48.3786502 50.72,55.3354045 40.5866667,55.3354045 C29.8666667,55.3354045 25.6,47.6351802 25.1733333,40.147376" id="Shape" fill="#D22B2B"></path>
                    <path d="M56,19.4895331 C55.8933333,19.861268 55.84,20.233003 55.84,20.6578429 L55.84,36.5893413 C55.9466667,37.4921263 56,38.3949112 55.9466667,39.2445911 C55.9466667,39.934956 55.8933333,40.5722159 55.84,41.2625809 L55.84,58.6279141 C61.8133333,53.9546746 64.64,46.5199754 64.6933333,39.0852761 C64.7466667,31.7036818 61.8666667,24.2689826 56,19.4895331" id="Shape" fill="#772F7A"></path>
                    <path d="M37.12,22.7820427 L21.8666667,22.7820427 C18.9333333,26.4462874 17.1733333,30.9602119 16.5866667,35.6334514 L21.0666667,35.6334514 C23.0933333,35.6334514 24.8,37.1203913 25.12,39.0321711 C25.0666667,32.0754168 28.64,24.4282976 37.12,22.7820427" id="Shape" fill="#D22B2B"></path>
                    <path d="M38.5066667,14.2852436 L4.10666667,14.2852436 C1.86666667,14.2852436 0,16.1439184 0,18.3743282 L0,59.3713841 C0,61.6548988 1.81333333,63.4604687 4.10666667,63.4604687 L4.8,63.4604687 C7.04,63.4604687 8.90666667,61.6017938 8.90666667,59.3713841 L8.90666667,47.9007052 C8.90666667,45.6171904 10.72,43.8116206 13.0133333,43.8116206 L16.8,43.8116206 C16.5333333,42.2715758 16.4266667,40.7315309 16.4266667,39.1914861 C16.4266667,37.9700712 16.48,36.8017613 16.64,35.5803464 L13.0133333,35.5803464 C10.7733333,35.5803464 8.90666667,33.7216716 8.90666667,31.4912619 L8.90666667,26.8711273 C8.90666667,24.5876125 10.72,22.7820427 13.0133333,22.7820427 L21.8666667,22.7820427 C25.7066667,17.9494882 31.6266667,14.6569785 39.68,14.4445586 C39.3066667,14.3383486 38.9333333,14.2852436 38.5066667,14.2852436 M40.0533333,22.5165178 C39.04,22.5165178 38.0266667,22.6227277 37.12,22.8351477 L38.5066667,22.8351477 C39.04,22.7820427 39.5733333,22.6758327 40.0533333,22.5165178 M25.12,39.0321711 L25.12,39.3508011 C25.12,39.616326 25.12,39.881851 25.1733333,40.147376 L25.1733333,39.775641 C25.1733333,39.5101161 25.1733333,39.2445911 25.12,39.0321711" id="Shape" fill="#F7BF58"></path>
                    <path d="M39.68,14.4445586 C31.68,14.6569785 25.76,18.0025932 21.8666667,22.7820427 L37.12,22.7820427 C38.0266667,22.6227277 38.9866667,22.5165178 40.0533333,22.4634128 C41.5466667,21.8261528 42.6133333,20.392318 42.6133333,18.6929581 L42.6133333,18.3743282 C42.6133333,16.5156533 41.3866667,14.9225035 39.68,14.4445586 M21.0666667,35.6334514 L16.5866667,35.6334514 C16.4266667,36.8017613 16.3733333,38.0231762 16.3733333,39.2445911 C16.3733333,40.7846359 16.48,42.3246808 16.7466667,43.8647256 L21.0666667,43.8647256 C23.2,43.8647256 24.96,42.2184708 25.12,40.147376 C25.12,39.881851 25.0666667,39.616326 25.0666667,39.3508011 L25.0666667,39.0321711 C24.8,37.1203913 23.0933333,35.6334514 21.0666667,35.6334514" id="Shape" fill="#EE2E26"></path>
                    <path d="M56.2666667,0 C56.16,0 56.0533333,0 55.9466667,0.0531049947 C55.8933333,0.0531049947 55.84,0.106209989 55.7866667,0.106209989 C53.1733333,0.743469926 50.6666667,1.54004485 48.3733333,2.60214474 C46.2933333,3.50492965 44.4266667,4.56702954 42.9333333,5.89465441 C41.3866667,7.32848927 40.4266667,8.86853411 40.32,10.6209989 C40.2133333,11.9486238 40.5866667,13.2762487 41.3866667,14.4976636 C41.3866667,14.5507685 41.44,14.5507685 41.44,14.6038735 C41.4933333,14.5507685 41.5466667,14.5507685 41.5466667,14.5507685 C41.9733333,14.2852436 42.3466667,14.0728236 42.72,13.8072986 C44.9066667,12.3203588 46.88,10.7272089 48.64,9.08095409 C50.72,7.11606929 52.5866667,5.0449745 54.4,2.92077471 C54.4533333,2.86766971 54.4533333,2.81456472 54.5066667,2.81456472 C54.56,2.81456472 54.6133333,2.76145972 54.6666667,2.76145972 L54.72,2.76145972 C54.7733333,2.76145972 54.7733333,2.81456472 54.8266667,2.86766971 C54.8266667,2.92077471 54.7733333,2.92077471 54.7733333,2.9738797 C54.3466667,3.61113964 53.8666667,4.30150457 53.44,4.93876451 C51.4666667,8.0188542 48.9066667,10.8865239 45.8133333,13.5417736 C45.3333333,13.9666136 44.8533333,14.3914536 44.32,14.8162935 L44.4266667,14.8162935 C47.4666667,14.1790336 49.9733333,13.0638287 52,11.5237838 C53.5466667,10.302369 54.6666667,8.92163911 55.4133333,7.43469926 C56.16,6.0539694 56.5866667,4.62013454 56.7466667,3.13319469 C56.8533333,2.23040978 56.9066667,1.32762487 56.8533333,0.477944952 C56.8533333,0.159314984 56.64,0 56.2666667,0" id="Shape" fill="#90C146"></path>
                    <path d="M33.9733333,4.0359796 C33.76,4.0359796 33.6,4.14218959 33.5466667,4.30150457 C33.28,5.20428948 33.0666667,6.0539694 33.0133333,6.9567543 C32.9066667,8.17816918 33.0133333,9.39958406 33.5466667,10.6209989 C34.3466667,12.3203588 35.8933333,13.6479836 38.3466667,14.5507685 C38.4,14.6038735 38.5066667,14.6038735 38.56,14.6038735 C38.56,14.5507685 38.5066667,14.4976636 38.5066667,14.4976636 C37.3866667,13.3824587 36.48,12.2141488 35.8933333,10.9927339 C35.7333333,10.6209989 35.5733333,10.302369 35.4133333,9.93063401 C35.4133333,9.87752901 35.4133333,9.82442402 35.4666667,9.77131902 C35.52,9.77131902 35.6266667,9.77131902 35.68,9.82442402 C35.7333333,9.87752901 35.7866667,9.93063401 35.84,9.983739 C36.6933333,11.0989439 37.6533333,12.1610438 38.88,13.1169337 C39.2,13.3824587 39.5733333,13.6479836 39.9466667,13.9135086 L40,13.9135086 L40,13.8604036 C39.68,13.1700387 39.4666667,12.4265688 39.4133333,11.7362038 C39.3066667,10.355474 39.6266667,9.0278491 40.4266667,7.75332923 C40.48,7.64711924 40.48,7.59401424 40.3733333,7.54090925 C38.72,6.16017938 36.6933333,5.0449745 34.4,4.19529458 C34.1866667,4.0359796 34.08,4.0359796 33.9733333,4.0359796" id="Shape" fill="#90C146"></path>
                </g>
            </g>
        </g>
    </g>
</svg>