<?xml version="1.0" encoding="UTF-8"?>
<svg width="80px" height="80px" viewBox="0 0 80 80" version="1.1" xmlns="http://www.w3.org/2000/svg" xmlns:xlink="http://www.w3.org/1999/xlink">
    <!-- Generator: Sketch 44.1 (41455) - http://www.bohemiancoding.com/sketch -->
    <title>icon_orchard</title>
    <desc>Created with Sketch.</desc>
    <defs></defs>
    <g id="Mobile" stroke="none" stroke-width="1" fill="none" fill-rule="evenodd">
        <g id="icon_orchard">
            <rect id="Rectangle-6-Copy-4" fill="#FFB939" x="0" y="0" width="80" height="80" rx="10"></rect>
            <g id="Group-2" transform="translate(17.000000, 13.000000)" fill="#FFFFFF">
                <path d="M36.3183731,12.57372 C36.5737164,6.9536 32.9813731,1.74758667 27.5195522,0.350506667 C26.5935821,0.113066667 25.662,0 24.7437463,0 C20.5488209,0 16.6604478,2.38782667 14.6296269,6.18616 C8.18501493,7.47794667 2.72670149,12.5292 1.05504478,19.58244 C-1.23883582,29.2524667 4.45307463,39.0186 13.7611791,41.4007733 C14.6436567,41.6269067 15.5043881,41.72372 16.3510896,41.72372 C18.4359254,41.72372 20.4281642,41.1329467 22.3930448,40.4234533 L22.3930448,50.7916667 L20.2008806,50.7916667 C19.5954925,50.7916667 19.1044478,51.2856267 19.1044478,51.8961867 C19.1044478,52.5032133 19.5954925,53 20.2008806,53 L26.7801791,53 C27.3827612,53 27.8759104,52.50604 27.8759104,51.8961867 C27.8759104,51.2856267 27.3855672,50.7916667 26.7801791,50.7916667 L24.5880149,50.7916667 L24.5880149,40.4757467 C27.1800299,41.5081867 29.6492836,41.9745867 31.9291343,41.9745867 C39.1902836,41.9745867 44.5503881,37.2519333 46.0137015,31.0792 C47.8908955,23.1680667 43.5963582,15.1792 36.3183731,12.57372 Z M43.8790597,30.56616 C43.569,31.8664267 43.0597164,33.0917867 42.3610299,34.2069067 C41.6623433,35.3192 40.793194,36.2993467 39.7767313,37.1162533 C37.6147313,38.8525333 34.9020597,39.7662533 31.9263284,39.7662533 C29.5721194,39.7662533 27.1035672,39.1980933 24.585209,38.0801467 L24.585209,26.2491333 L30.6987164,21.8875867 C31.1918657,21.5342533 31.3097164,20.8466667 30.9617761,20.3470533 C30.6110299,19.8502667 29.9284776,19.7315467 29.4325224,20.08488 L24.585209,23.54048 L24.585209,16.5600267 C24.585209,15.9494667 24.0948657,15.4555067 23.4887761,15.4555067 C22.8833881,15.4555067 22.3930448,15.9494667 22.3930448,16.5600267 L22.3930448,30.2736 L17.1648209,25.2689867 C16.7263881,24.8492267 16.0326119,24.8661867 15.6138209,25.3071467 C15.1971343,25.74952 15.2139701,26.4477067 15.6517015,26.8695867 L22.3902388,33.3235733 L22.3902388,38.0744933 C20.2471791,38.8779733 18.2963284,39.5182133 16.3482836,39.5182133 C15.6383731,39.5182133 14.9670448,39.4355333 14.2985224,39.2616933 C12.3147015,38.7564267 10.483806,37.85896 8.85914925,36.6003867 C7.28640299,35.3799733 5.96829851,33.8677067 4.94341791,32.10952 C3.92134328,30.3428533 3.24159701,28.4214267 2.92943284,26.3954133 C2.60604478,24.29732 2.69373134,22.17732 3.1868806,20.09336 C3.89679104,17.0949733 5.4148209,14.4039867 7.57401493,12.3143733 C9.67007463,10.2827067 12.2571791,8.91036 15.0603433,8.34997333 L16.074,8.14574667 L16.5643433,7.2292 C17.3759701,5.71128 18.5706119,4.43857333 20.0170896,3.55241333 C21.4558507,2.67190667 23.0917313,2.20550667 24.7465522,2.20550667 C25.4978507,2.20550667 26.2484478,2.30232 26.9829104,2.48958667 C28.0625075,2.76589333 29.0733582,3.22946667 29.986,3.87041333 C30.8712836,4.49086667 31.6436269,5.26113333 32.2826866,6.16142667 C33.5755373,7.98038667 34.2335373,10.2219333 34.1290149,12.4712533 L34.0553582,14.1057733 L35.5867164,14.6520267 C38.6010299,15.7318133 41.1165821,17.9401467 42.6619701,20.8714 C44.227,23.8386933 44.6598209,27.2787467 43.8790597,30.56616 Z" id="Fill-1"></path>
                <path d="M10.335791,15.4555067 C9.73040299,15.4555067 9.2400597,15.9494667 9.2400597,16.5600267 C9.2400597,17.16988 9.73040299,17.66384 10.335791,17.66384 C10.9418806,17.66384 11.4322239,17.16988 11.4322239,16.5600267 C11.4322239,15.9494667 10.9418806,15.4555067 10.335791,15.4555067 Z" id="Fill-2"></path>
                <path d="M21.2966119,8.83050667 C20.6912239,8.83050667 20.2008806,9.32446667 20.2008806,9.93502667 C20.2008806,10.54488 20.6912239,11.03884 21.2966119,11.03884 C21.9027015,11.03884 22.3930448,10.54488 22.3930448,9.93502667 C22.3930448,9.32446667 21.9027015,8.83050667 21.2966119,8.83050667 Z" id="Fill-3"></path>
                <path d="M36.658597,24.28884 C36.0553134,24.28884 35.5621642,24.7828 35.5621642,25.39336 C35.5621642,26.0032133 36.053209,26.4971733 36.658597,26.4971733 C37.2639851,26.4971733 37.7571343,26.0032133 37.7571343,25.39336 C37.7571343,24.7828 37.266791,24.28884 36.658597,24.28884 Z" id="Fill-4"></path>
                <path d="M30.0680746,13.2471733 C29.4626866,13.2471733 28.9723433,13.7411333 28.9723433,14.3516933 C28.9723433,14.9615467 29.4626866,15.4555067 30.0680746,15.4555067 C30.6713582,15.4555067 31.1645075,14.9615467 31.1645075,14.3516933 C31.1645075,13.7411333 30.6713582,13.2471733 30.0680746,13.2471733 Z" id="Fill-5"></path>
                <path d="M13.6243881,34.22952 C13.6243881,34.8393733 14.1147313,35.3333333 14.7201194,35.3333333 C15.326209,35.3333333 15.8165522,34.8393733 15.8165522,34.22952 C15.8165522,33.61896 15.326209,33.125 14.7201194,33.125 C14.1147313,33.125 13.6243881,33.6161333 13.6243881,34.22952 Z" id="Fill-6"></path>
                <path d="M8.14362687,26.4971733 C7.53823881,26.4971733 7.04789552,26.9911333 7.04789552,27.6016933 C7.04789552,28.2115467 7.53823881,28.7055067 8.14362687,28.7055067 C8.74971642,28.7055067 9.2400597,28.2115467 9.2400597,27.6016933 C9.2400597,26.9911333 8.74971642,26.4971733 8.14362687,26.4971733 Z" id="Fill-7"></path>
                <path d="M16.9122836,19.8806533 C16.3068955,19.8806533 15.8165522,20.3746133 15.8165522,20.9844667 C15.8165522,21.5950267 16.3068955,22.0889867 16.9122836,22.0889867 C17.5183731,22.0889867 18.0087164,21.5950267 18.0087164,20.9844667 C18.0087164,20.3746133 17.5183731,19.8806533 16.9122836,19.8806533 Z" id="Fill-8"></path>
                <path d="M30.0680746,28.7055067 C29.4626866,28.7055067 28.9723433,29.1994667 28.9723433,29.8100267 C28.9723433,30.41988 29.4626866,30.91384 30.0680746,30.91384 C30.6713582,30.91384 31.1645075,30.41988 31.1645075,29.8100267 C31.1645075,29.1994667 30.6713582,28.7055067 30.0680746,28.7055067 Z" id="Fill-9"></path>
                <path d="M36.658597,33.1221733 C36.0553134,33.1221733 35.5621642,33.6161333 35.5621642,34.2266933 C35.5621642,34.8365467 36.053209,35.3305067 36.658597,35.3305067 C37.2639851,35.3305067 37.7571343,34.8365467 37.7571343,34.2266933 C37.7571343,33.6161333 37.266791,33.1221733 36.658597,33.1221733 Z" id="Fill-10"></path>
            </g>
        </g>
    </g>
</svg>