<?xml version="1.0" encoding="UTF-8"?>
<svg width="80px" height="80px" viewBox="0 0 80 80" version="1.1" xmlns="http://www.w3.org/2000/svg" xmlns:xlink="http://www.w3.org/1999/xlink">
    <!-- Generator: Sketch 44.1 (41455) - http://www.bohemiancoding.com/sketch -->
    <title>icon_popup_market</title>
    <desc>Created with Sketch.</desc>
    <defs></defs>
    <g id="Mobile" stroke="none" stroke-width="1" fill="none" fill-rule="evenodd">
        <g id="icon_popup_market">
            <rect id="Rectangle-6-Copy-3" fill="#F15F5B" x="0" y="0" width="80" height="80" rx="10"></rect>
            <g id="Group-2" transform="translate(16.000000, 20.000000)" fill="#FFFFFF">
                <path d="M40.25,1.75 L40.25,1.75 C39.602,0.934 38.613,0.465 37.574,0.469 L10.574,0.469 C9.547,0.473 8.578,0.945 7.941,1.75 L1.121,10.234 C0.961,10.434 0.875,10.684 0.875,10.938 C0.887,13.559 2.727,15.816 5.293,16.352 L5.293,33.379 C5.293,34 5.797,34.504 6.418,34.504 L41.75,34.504 C42.371,34.504 42.875,34 42.875,33.379 L42.875,16.352 C45.43,15.816 47.266,13.574 47.293,10.965 C47.293,10.965 47.293,10.965 47.293,10.918 C47.289,10.637 47.18,10.371 46.984,10.168 L40.25,1.75 Z M27.305,32.254 L7.543,32.254 L7.543,16.344 C8.855,16.07 10.023,15.332 10.836,14.266 C11.883,15.652 13.516,16.465 15.254,16.465 C16.988,16.465 18.625,15.652 19.672,14.266 C21.477,16.66 24.863,17.176 27.301,15.43 L27.305,32.254 Z M40.641,32.254 L29.555,32.254 L29.555,15.348 C29.555,15.348 29.555,15.348 29.555,15.309 C30.723,16.219 32.207,16.621 33.672,16.426 C35.137,16.23 36.465,15.457 37.355,14.273 C38.168,15.34 39.336,16.078 40.648,16.352 L40.641,32.254 Z M41.766,14.254 L41.766,14.254 C39.969,14.25 38.504,12.809 38.473,11.016 L38.473,10.969 C38.473,9.469 36.223,9.469 36.223,10.969 C36.254,15.359 29.668,15.402 29.637,11.016 L29.637,10.969 C29.637,9.469 27.387,9.469 27.387,10.969 C27.418,15.359 20.832,15.402 20.801,11.016 L20.801,10.969 C20.801,9.469 18.551,9.469 18.551,10.969 C18.551,15.359 11.965,15.359 11.965,10.969 C11.965,9.469 9.715,9.469 9.715,10.969 C9.695,15.098 3.633,15.438 3.152,11.336 L9.699,3.152 C9.918,2.879 10.25,2.719 10.598,2.719 L37.598,2.719 C37.953,2.719 38.289,2.883 38.512,3.16 L45.051,11.336 C44.84,12.996 43.422,14.234 41.75,14.223 L41.766,14.254 Z" id="Fill-1"></path>
                <path d="M37.109,5.078 L11.422,5.078 C9.922,5.078 9.922,7.328 11.422,7.328 L37.109,7.328 C38.609,7.328 38.609,5.078 37.109,5.078 Z" id="Fill-2"></path>
                <path d="M41.75,37.504 L6.418,37.504 C4.918,37.504 4.918,39.754 6.418,39.754 L41.75,39.754 C43.25,39.754 43.25,37.504 41.75,37.504 Z" id="Fill-3"></path>
                <path d="M33.305,23.477 C33.305,25.008 31.012,25.008 31.012,23.477 C31.012,21.949 33.305,21.949 33.305,23.477" id="Fill-4"></path>
                <path d="M13.469,19.234 L13.469,19.234 C13.031,18.797 12.316,18.797 11.879,19.234 L9.836,21.25 C9.371,21.684 9.355,22.418 9.809,22.867 C10.258,23.32 10.992,23.305 11.426,22.84 L13.465,20.801 C13.891,20.363 13.891,19.668 13.469,19.234 Z" id="Fill-5"></path>
                <path d="M19.453,20.824 L19.453,20.824 C20.441,19.766 18.922,18.246 17.863,19.234 L12.613,24.484 C12.148,24.918 12.133,25.652 12.586,26.102 C13.035,26.555 13.77,26.539 14.203,26.074 L19.453,20.824 Z" id="Fill-6"></path>
                <path d="M23.254,19.234 L14.426,28.059 C13.961,28.492 13.945,29.227 14.398,29.676 C14.848,30.129 15.582,30.113 16.016,29.648 L24.844,20.824 C25.832,19.766 24.312,18.246 23.254,19.234 Z" id="Fill-7"></path>
            </g>
        </g>
    </g>
</svg>