<?xml version="1.0" encoding="UTF-8"?>
<svg width="80px" height="80px" viewBox="0 0 80 80" version="1.1" xmlns="http://www.w3.org/2000/svg" xmlns:xlink="http://www.w3.org/1999/xlink">
    <!-- Generator: Sketch 44.1 (41455) - http://www.bohemiancoding.com/sketch -->
    <title>icon_restaurant</title>
    <desc>Created with Sketch.</desc>
    <defs></defs>
    <g id="Mobile" stroke="none" stroke-width="1" fill="none" fill-rule="evenodd">
        <g id="icon_restaurant">
            <rect id="Rectangle-6-Copy-3" fill="#F15F5B" x="0" y="0" width="80" height="80" rx="10"></rect>
            <g id="Group-7" transform="translate(25.000000, 20.000000)" fill="#FFFFFF">
                <path d="M13.4025085,2.88490909 C14.043,2.88490909 14.566322,3.41950649 14.566322,4.07444156 L14.566322,16.1715714 C14.566322,16.8249091 14.0387966,17.3611039 13.392,17.3611039 L11.8735254,17.3611039 C11.2288305,17.3611039 10.6992034,17.8957013 10.6992034,18.5511688 L10.6992034,36.841961 C10.6992034,37.4952987 10.171678,38.032026 9.52540678,38.032026 L7.43369492,38.032026 C6.78952542,38.032026 6.25989831,37.4974286 6.25989831,36.841961 L6.25989831,18.549039 C6.25989831,17.8957013 5.73237288,17.3595065 5.08610169,17.3595065 L3.74994915,17.3595065 C3.10525424,17.3595065 2.57562712,16.8249091 2.57562712,16.1694416 L2.57562712,4.07444156 C2.57562712,3.42163636 3.10315254,2.88490909 3.74994915,2.88490909 L3.79513559,2.88490909 C4.43930508,2.88490909 4.9689322,3.41950649 4.9689322,4.07444156 L4.9689322,11.7307922 C4.9689322,12.3841299 5.49645763,12.9208571 6.14272881,12.9208571 L6.18213559,12.9208571 C6.82630508,12.9208571 7.35383051,12.3862597 7.35383051,11.7307922 L7.35383051,4.07444156 C7.35383051,3.42163636 7.88135593,2.88490909 8.52762712,2.88490909 L8.82764407,2.88490909 C9.47181356,2.88490909 10.0014407,3.41950649 10.0014407,4.07444156 L10.0119492,11.7307922 C10.0119492,12.3841299 10.5147797,12.9208571 11.1284746,12.9208571 C11.7421695,12.9208571 12.2428983,12.3862597 12.2428983,11.7307922 L12.2428983,4.07444156 C12.2365932,3.42163636 12.7620169,2.88490909 13.4025085,2.88490909 L13.4025085,2.88490909 Z M13.4025085,0.507441558 C12.5303051,0.507441558 11.7295593,0.831714286 11.1158644,1.37057143 C10.5000678,0.833844156 9.69774576,0.507441558 8.82344068,0.507441558 L8.52394915,0.507441558 C7.61444068,0.507441558 6.78322034,0.85887013 6.15744068,1.435 C5.53113559,0.85887013 4.70201695,0.507441558 3.7930339,0.507441558 L3.74994915,0.507441558 C1.81008475,0.507441558 0.230135593,2.10697403 0.230135593,4.07444156 L0.230135593,16.1715714 C0.230135593,18.139039 1.80798305,19.7385714 3.74994915,19.7385714 L3.91808475,19.7385714 L3.91808475,36.8403636 C3.91808475,38.8078312 5.49645763,40.4073636 7.43789831,40.4073636 L9.52961017,40.4073636 C11.4689492,40.4073636 13.0494237,38.8078312 13.0494237,36.8403636 L13.0494237,19.7364416 L13.3941017,19.7364416 C15.3339661,19.7364416 16.9139153,18.1369091 16.9139153,16.1694416 L16.9139153,4.07444156 C16.912339,2.10697403 15.3376441,0.507441558 13.4025085,0.507441558 Z" id="Fill-1"></path>
                <path d="M27.1129153,2.93709091 C27.1990847,2.93709091 27.2458475,2.93922078 27.2458475,2.93922078 C27.8926441,2.96371429 28.4201695,3.52120779 28.4201695,4.17667532 L28.4201695,36.9255584 C28.4201695,37.5804935 27.8905424,38.1150909 27.2458475,38.1150909 L25.2019492,38.1150909 C24.5551525,38.1150909 24.0276271,37.5783636 24.0276271,36.9255584 L24.0276271,25.4583377 C24.0276271,24.8034026 23.5006271,24.2459091 22.8538305,24.2187532 C22.8538305,24.2187532 20.897678,24.1378182 20.897678,21.6437403 C20.897678,20.1528312 20.897678,12.7355584 20.897678,8.0162987 C20.8997797,3.14688312 26.1971017,2.93709091 27.1129153,2.93709091 L27.1129153,2.93709091 Z M27.1129153,0.555363636 L27.1129153,0.555363636 C22.8517288,0.555363636 18.5500847,2.86201299 18.5500847,8.0162987 L18.5500847,21.6437403 C18.5500847,24.4541039 20.1652373,25.8976234 21.6779322,26.3944156 L21.6779322,36.9234286 C21.6779322,38.893026 23.2584068,40.4946883 25.2019492,40.4946883 L27.2458475,40.4946883 C29.1899153,40.4946883 30.7698644,38.893026 30.7698644,36.9234286 L30.7698644,4.17454545 C30.7698644,2.2565974 29.2308983,0.634168831 27.338322,0.557493506 C27.3404237,0.559623377 27.2605593,0.555363636 27.1129153,0.555363636 Z" id="Fill-2"></path>
            </g>
        </g>
    </g>
</svg>