<?xml version="1.0" encoding="UTF-8"?>
<svg width="80px" height="80px" viewBox="0 0 80 80" version="1.1" xmlns="http://www.w3.org/2000/svg" xmlns:xlink="http://www.w3.org/1999/xlink">
    <!-- Generator: Sketch 44.1 (41455) - http://www.bohemiancoding.com/sketch -->
    <title>icon_seasonal</title>
    <desc>Created with Sketch.</desc>
    <defs></defs>
    <g id="Mobile" stroke="none" stroke-width="1" fill="none" fill-rule="evenodd">
        <g id="icon_seasonal">
            <rect id="Rectangle-6-Copy-4" fill="#FFB939" x="0" y="0" width="80" height="80" rx="10"></rect>
            <g id="Group-2" transform="translate(23.000000, 20.000000)" fill="#FFFFFF">
                <path d="M7.92965854,9.39510638 C7.11395122,9.39510638 6.44839024,8.73387234 6.44839024,7.92259574 L6.44839024,1.54404255 C6.44839024,0.732765957 7.11395122,0.0715319149 7.92965854,0.0715319149 C8.7462439,0.0715319149 9.41180488,0.732765957 9.41180488,1.54404255 L9.41180488,7.92259574 C9.41180488,8.73387234 8.7462439,9.39510638 7.92965854,9.39510638 Z" id="Fill-19"></path>
                <path d="M28.0738537,9.39510638 C27.2572683,9.39510638 26.5917073,8.73387234 26.5917073,7.92259574 L26.5917073,1.54404255 C26.5917073,0.732765957 27.2572683,0.0715319149 28.0738537,0.0715319149 C28.889561,0.0715319149 29.555122,0.732765957 29.555122,1.54404255 L29.555122,7.92259574 C29.555122,8.73387234 28.8930732,9.39510638 28.0738537,9.39510638 Z" id="Fill-20"></path>
                <path d="M33.9559024,15.416 L2.04409756,15.416 C1.2275122,15.416 0.562829268,14.754766 0.562829268,13.9434894 C0.562829268,13.1330851 1.2275122,12.4718511 2.04409756,12.4718511 L33.9559024,12.4718511 C34.7724878,12.4718511 35.4371707,13.1330851 35.4371707,13.9434894 C35.4371707,14.754766 34.7724878,15.416 33.9559024,15.416 Z" id="Fill-21"></path>
                <path d="M18.7788293,40.9249787 L5.50185366,40.9249787 C2.77814634,40.9249787 0.562829268,38.7240638 0.562829268,36.0215532 L0.562829268,8.3552766 C0.562829268,5.65014894 2.77814634,3.4483617 5.50185366,3.4483617 L30.4981463,3.4483617 C33.2218537,3.4483617 35.4371707,5.65014894 35.4371707,8.3552766 L35.4371707,30.5388936 C35.4371707,31.3501702 34.7724878,32.0105319 33.9559024,32.0105319 C33.1393171,32.0105319 32.4737561,31.3501702 32.4737561,30.5388936 L32.4737561,8.3552766 C32.4737561,7.27182979 31.589561,6.39251064 30.4981463,6.39251064 L5.50185366,6.39251064 C4.41043902,6.39251064 3.5262439,7.27182979 3.5262439,8.3552766 L3.5262439,36.0215532 C3.5262439,37.1015106 4.41043902,37.9808298 5.50185366,37.9808298 L18.7788293,37.9808298 C19.5945366,37.9808298 20.2600976,38.6420638 20.2600976,39.4533404 C20.2600976,40.2637447 19.5980488,40.9249787 18.7788293,40.9249787 Z" id="Fill-22"></path>
                <path d="M17.856,31.6362979 C17.0394146,31.6362979 16.3738537,30.9750638 16.3738537,30.1637872 L16.3738537,22.711383 L15.8154146,23.2705532 C15.2359024,23.8428085 14.2955122,23.8462979 13.716,23.2705532 C13.1364878,22.6948085 13.1364878,21.7640213 13.7124878,21.1882766 L16.8032195,18.1115319 C17.2281951,17.6919362 17.8665366,17.5663191 18.4188293,17.794 C18.9702439,18.0190638 19.3346341,18.5572979 19.3346341,19.1539787 L19.3346341,30.1637872 C19.3372683,30.9785532 18.6760976,31.6362979 17.856,31.6362979 Z" id="Fill-23"></path>
                <path d="M18.7788293,40.9284681 C18.0649756,40.9284681 17.4406829,40.4137872 17.3212683,39.7019574 C17.190439,38.9421489 17.6742439,38.209383 18.4284878,38.0253191 C18.5004878,38.004383 21.9406829,37.1119787 23.508,34.355383 C24.4519024,32.6953191 24.5440976,30.6235106 23.7933659,28.208 C23.6318049,27.6898298 23.7687805,27.1315319 24.1498537,26.7424681 C24.5309268,26.3542766 25.0963902,26.2112128 25.6179512,26.357766 L34.3677073,28.8517872 C35.0016585,29.0323617 35.4406829,29.6081064 35.4406829,30.2658511 L35.4406829,30.8180426 C35.4406829,30.8860851 35.4371707,30.9506383 35.4275122,31.0221702 C34.2816585,39.2893404 19.5567805,40.8499574 18.9324878,40.918 C18.8780488,40.9249787 18.8262439,40.9284681 18.7788293,40.9284681 Z M27.1747317,29.8671915 C27.4425366,32.0785745 27.0755122,34.0753617 26.0701463,35.8270213 C25.9603902,36.0180638 25.848,36.2021277 25.7277073,36.3792128 C28.728878,35.3158298 31.5553171,33.6871702 32.3227317,31.3327234 L27.1747317,29.8671915 Z" id="Fill-24"></path>
            </g>
        </g>
    </g>
</svg>