<?xml version="1.0" encoding="UTF-8"?>
<svg width="80px" height="80px" viewBox="0 0 80 80" version="1.1" xmlns="http://www.w3.org/2000/svg" xmlns:xlink="http://www.w3.org/1999/xlink">
    <!-- Generator: Sketch 42 (36781) - http://www.bohemiancoding.com/sketch -->
    <title>icon_school_lunches</title>
    <desc>Created with Sketch.</desc>
    <defs></defs>
    <g id="Mobile" stroke="none" stroke-width="1" fill="none" fill-rule="evenodd">
        <g id="icon_school_lunches">
            <rect id="Rectangle-6-Copy-6" fill="#FFB939" x="0" y="0" width="80" height="80" rx="10"></rect>
            <path d="M20.9637156,28.1306457 L22.2671898,28.1306457 L20.1435087,62.2834686 L51.9146512,62.2834686 C52.1302924,62.2834686 52.3433665,62.2109464 52.5166497,62.0729617 L58.67141,57.1318251 C58.924275,56.9283779 59.0571254,56.6126175 59.0269613,56.2917228 L55.5048211,18.8721918 C55.4849256,18.6443566 55.3841647,18.4415511 55.233986,18.2881634 C55.206389,18.2579993 55.1762249,18.2329696 55.1434937,18.2079398 C54.981121,18.0776565 54.7725394,18 54.5472713,18 L54.5447042,18 L23.8010665,18 C23.3903213,18 23.0245013,18.2605665 22.8916509,18.6494909 L20.0536582,26.8547684 C19.9503301,27.1480661 19.9984643,27.4740951 20.1788071,27.7269602 C20.3591499,27.980467 20.6524477,28.1306457 20.9637156,28.1306457 Z M51.0097281,60.3581004 L22.1921005,60.3581004 L24.1951252,28.1306457 L51.7092786,28.1306457 C52.1200238,28.1306457 52.4839184,27.8700792 52.619336,27.483722 L53.1481704,25.956905 L51.0097281,60.3581004 Z M54.7423753,31.3222644 L57.0618022,55.9534998 L53.0101857,59.207372 L54.7423753,31.3222644 Z M24.4858558,19.9253682 L53.1956628,19.9253682 L51.0244893,26.2052775 L22.3146823,26.2052775 L24.4858558,19.9253682 Z" id="Page-1" stroke="#FFFFFF" fill="#FFFFFF"></path>
        </g>
    </g>
</svg>