<?xml version="1.0" encoding="UTF-8"?>
<svg width="80px" height="80px" viewBox="0 0 80 80" version="1.1" xmlns="http://www.w3.org/2000/svg" xmlns:xlink="http://www.w3.org/1999/xlink">
    <!-- Generator: Sketch 42 (36781) - http://www.bohemiancoding.com/sketch -->
    <title>icon_grocery_store</title>
    <desc>Created with Sketch.</desc>
    <defs></defs>
    <g id="Mobile" stroke="none" stroke-width="1" fill="none" fill-rule="evenodd">
        <g id="icon_grocery_store">
            <rect id="Rectangle-6-Copy-2" fill="#F15F5B" x="0" y="0" width="80" height="80" rx="10"></rect>
            <path d="M19.1733691,32.9615778 C19.0032368,33.1610107 18.9332935,33.4228254 18.9739363,33.6780239 L22.7763937,56.9672488 C22.8472822,57.3963604 23.2159022,57.71016 23.65163,57.71016 L55.8104202,57.71016 C56.246148,57.71016 56.614768,57.3963604 56.6856565,56.9672488 L60.4918947,33.6780239 C60.5325374,33.4228254 60.4625941,33.1610107 60.2924618,32.9615778 C60.1223294,32.7621449 59.8746924,32.6515589 59.6166584,32.6515589 L50.1317812,32.6515589 L50.1317812,20.5967384 C50.1317812,20.1090258 49.7329155,19.71016 49.2452028,19.71016 L30.2168474,19.71016 C29.7291347,19.71016 29.330269,20.1090258 29.330269,20.5967384 L29.330269,32.6439974 L19.8491725,32.6439974 C19.5901933,32.6477781 19.3435015,32.7621449 19.1733691,32.9615778 Z M31.1024807,24.0712186 L48.3595695,24.0712186 L48.3595695,32.6477781 L31.1024807,32.6477781 L31.1024807,24.0712186 Z M56.9361291,44.4180995 C56.9068285,44.4143188 56.8813087,44.4001411 56.8510629,44.4001411 L50.1317812,44.4001411 L50.1317812,40.331143 L57.604371,40.331143 L56.9361291,44.4180995 Z M55.983388,50.2441865 L50.1280005,50.2441865 L50.1280005,46.1751884 L56.6478493,46.1751884 L55.983388,50.2441865 Z M38.6525752,52.0163982 L38.6525752,55.9379483 L31.1024807,55.9379483 L31.1024807,52.0163982 L38.6525752,52.0163982 Z M31.1024807,50.2441865 L31.1024807,46.1751884 L38.6525752,46.1751884 L38.6525752,50.2441865 L31.1024807,50.2441865 Z M40.4247869,52.0163982 L48.3595695,52.0163982 L48.3595695,55.9379483 L40.4247869,55.9379483 L40.4247869,52.0163982 Z M40.4247869,50.2441865 L40.4247869,46.1751884 L48.3595695,46.1751884 L48.3595695,50.2441865 L40.4247869,50.2441865 Z M48.3595695,44.4001411 L40.4247869,44.4001411 L40.4247869,40.331143 L48.3595695,40.331143 L48.3595695,44.4001411 Z M40.4247869,38.5589313 L40.4247869,34.4199899 L48.3595695,34.4199899 L48.3595695,38.5589313 L40.4247869,38.5589313 Z M31.1024807,34.4199899 L38.6525752,34.4199899 L38.6525752,38.5589313 L31.1024807,38.5589313 L31.1024807,34.4199899 Z M38.6525752,40.331143 L38.6525752,44.4001411 L31.1024807,44.4001411 L31.1024807,40.331143 L38.6525752,40.331143 Z M29.330269,44.4001411 L22.5221404,44.4001411 L21.8576792,40.331143 L29.330269,40.331143 L29.330269,44.4001411 Z M22.8142009,46.1723528 L29.3340497,46.1723528 L29.3340497,50.2404057 L24.0022916,50.2404057 C23.8142009,50.2404057 23.65163,50.310349 23.5079627,50.4105381 L22.8142009,46.1723528 Z M23.7593805,51.9644133 C23.8368852,51.9870976 23.9143899,52.0126175 23.9985109,52.0126175 L29.330269,52.0126175 L29.330269,55.9379483 L24.4049381,55.9379483 L23.7593805,51.9644133 Z M50.1317812,55.9379483 L50.1317812,52.0163982 L55.6960535,52.0163982 L55.0533313,55.9379483 L50.1317812,55.9379483 Z M57.8926508,38.5589313 L50.1317812,38.5589313 L50.1317812,34.4199899 L58.5722349,34.4199899 L57.8926508,38.5589313 Z M48.3595695,21.4823717 L48.3595695,22.2952262 L31.1024807,22.2952262 L31.1024807,21.4823717 L48.3595695,21.4823717 Z M29.330269,34.4199899 L29.330269,38.5589313 L21.7140119,38.5589313 C21.662027,38.5589313 21.6213843,38.5806704 21.5731801,38.5882318 L20.8898153,34.4199899 L29.330269,34.4199899 Z" id="Page-1" stroke="#FFFFFF" fill="#FFFFFF"></path>
        </g>
    </g>
</svg>