<?xml version="1.0" encoding="utf-8"?>
<!-- Generator: Adobe Illustrator 19.2.1, SVG Export Plug-In . SVG Version: 6.00 Build 0)  -->
<svg version="1.1" id="Layer_1" xmlns="http://www.w3.org/2000/svg" xmlns:xlink="http://www.w3.org/1999/xlink" x="0px" y="0px"
	 viewBox="0 0 24 24" enable-background="new 0 0 24 24" xml:space="preserve">
<g>
	<path fill="white" d="M8.8,12.6c-0.1-0.5-0.2-1-0.3-1.4c-0.1-0.4-0.1-0.4-0.5-0.4H6.1c0.2,0.6,0.4,1.2,0.6,1.8
		c0,0,0.1,0.1,0.1,0.1C7.5,12.6,8.1,12.6,8.8,12.6 M20,10.8c-0.7,0-1.4,0-2.1,0c-0.1,0-0.1,0.1-0.2,0.1c-0.1,0.2-0.1,0.4-0.1,0.5
		c-0.1,0.4-0.2,0.8-0.2,1.2c0.6,0,1.1,0,1.7,0c0.2,0,0.3-0.1,0.4-0.3C19.6,11.8,19.8,11.3,20,10.8 M9,10.8c0.1,0.6,0.3,1.2,0.4,1.8
		h2c0-0.6-0.1-1.2-0.1-1.8H9z M16.8,12.6c0.1-0.6,0.3-1.2,0.4-1.8h-2.3c0,0.6-0.1,1.2-0.1,1.8H16.8z M11.9,10.8
		c0,0.6,0.1,1.2,0.1,1.8h2c0-0.6,0.1-1.2,0.1-1.8H11.9z M5.3,8.3c0,0.1,0,0.1,0,0.2C5.5,9,5.7,9.5,5.9,10c0,0.1,0.1,0.2,0.2,0.2
		c0.7,0,1.3,0,2,0c0,0,0.1,0,0.2,0C8.1,9.5,8,8.9,7.9,8.3H5.3z M17.9,10.2c0.8,0,1.5,0,2.3,0c0,0,0.1-0.1,0.1-0.1
		c0.1-0.4,0.3-0.7,0.4-1.1c0.1-0.2,0.1-0.4,0.2-0.6h-2.6C18.2,8.9,18,9.5,17.9,10.2 M15,8.3c0,0.6-0.1,1.2-0.1,1.8h0.2h1.7
		c0.5,0,0.5,0,0.6-0.5c0.1-0.5,0.2-0.9,0.3-1.4H15z M11.1,8.3H8.5C8.6,8.9,8.7,9.4,8.9,10c0,0.1,0.1,0.2,0.2,0.2c0.7,0,1.4,0,2.1,0
		c0,0,0.1,0,0.1,0C11.2,9.5,11.2,8.9,11.1,8.3 M14.3,10.1c0-0.6,0.1-1.2,0.1-1.8h-2.6c0,0.6,0.1,1.2,0.1,1.8H14.3z M7.7,7.7
		C7.6,7.1,7.5,6.6,7.4,6c0-0.2-0.1-0.2-0.2-0.2c-0.9,0-1.7,0-2.6,0c-0.1,0-0.1,0-0.2,0c0.2,0.6,0.4,1.2,0.6,1.8H7.7z M21.7,5.9h-0.2
		h-2.2c-0.5,0-0.5,0-0.6,0.5c-0.1,0.5-0.2,0.9-0.3,1.4c0.7,0,1.3,0,1.9,0c0.2,0,0.5,0.1,0.7,0c0.2-0.1,0.2-0.4,0.3-0.7
		C21.5,6.6,21.6,6.3,21.7,5.9 M8.4,7.7h2.7C11,7.1,11,6.5,11,5.9H8C8.1,6.5,8.2,7.1,8.4,7.7 M15.2,5.9c0,0.6-0.1,1.2-0.1,1.8h2.7
		c0.1-0.6,0.3-1.2,0.4-1.8H15.2z M11.7,7.7h2.7c0-0.6,0.1-1.2,0.1-1.8h-3C11.6,6.5,11.7,7.1,11.7,7.7 M2.5,4C2.1,4,1.8,4,1.4,4
		C1.1,4,0.8,3.8,0.8,3.4c0-0.4,0.3-0.6,0.6-0.6c0.5,0,1,0,1.5,0c0.3,0,0.5,0.1,0.6,0.4C3.7,3.7,3.8,4.2,4,4.6h0.3
		c6.1,0,12.2,0,18.2,0c0.4,0,0.7,0.2,0.7,0.5c0,0.1,0,0.2,0,0.3c-0.9,2.6-1.8,5.3-2.7,7.9c-0.1,0.3-0.3,0.5-0.7,0.5
		c-4.2,0-8.5,0-12.7,0c-0.2,0-0.3,0.1-0.3,0.2c-0.1,0.3-0.2,0.6-0.2,1h0.3c4.5,0,9.1,0,13.6,0c0.4,0,0.7,0.3,0.7,0.6
		c0,0.3-0.3,0.6-0.6,0.6c-0.1,0-0.1,0-0.2,0c-4.8,0-9.7,0-14.5,0c-0.5,0-0.9-0.3-0.7-0.9c0.2-0.7,0.3-1.3,0.5-2c0-0.1,0-0.2,0-0.3
		C4.6,10.1,3.6,7.1,2.5,4C2.5,4.1,2.5,4,2.5,4"/>
	<path fill="white" d="M19.8,19.4c0-0.3-0.3-0.6-0.6-0.6c-0.3,0-0.6,0.3-0.6,0.6c0,0.3,0.3,0.6,0.6,0.6
		C19.5,20,19.8,19.7,19.8,19.4 M19.2,17.5c1,0,1.8,0.8,1.8,1.8c0,1-0.8,1.8-1.8,1.8c-1,0-1.8-0.8-1.8-1.8
		C17.4,18.3,18.2,17.5,19.2,17.5"/>
	<path fill="white" d="M7.5,19.4c0-0.3-0.3-0.6-0.6-0.6c-0.3,0-0.6,0.3-0.6,0.6c0,0.3,0.3,0.6,0.6,0.6C7.3,20,7.5,19.7,7.5,19.4
		 M5.1,19.4c0-1,0.8-1.8,1.9-1.8c1,0,1.8,0.8,1.8,1.9c0,1-0.8,1.8-1.9,1.8C5.9,21.2,5.1,20.4,5.1,19.4"/>
</g>
</svg>
