<?xml version="1.0" encoding="UTF-8"?>
<svg width="80px" height="80px" viewBox="0 0 80 80" version="1.1" xmlns="http://www.w3.org/2000/svg" xmlns:xlink="http://www.w3.org/1999/xlink">
    <!-- Generator: Sketch 42 (36781) - http://www.bohemiancoding.com/sketch -->
    <title>icon_wic</title>
    <desc>Created with Sketch.</desc>
    <defs></defs>
    <g id="Mobile" stroke="none" stroke-width="1" fill="none" fill-rule="evenodd">
        <g id="icon_wic">
            <rect id="Rectangle-6-Copy-4" fill="#FFB939" x="0" y="0" width="80" height="80" rx="10"></rect>
            <path d="M52.374651,59.9160754 L52.374651,61.831744 C52.374651,63.9794275 50.6438208,65.7164447 48.501551,65.7164447 L33.0462735,65.7164447 C30.9009102,65.7164447 29.1731735,63.9918016 29.1731735,61.831744 L29.1731735,36.7145978 L52.374651,36.7145978 L52.374651,42.5149672 L45.6075534,42.5149672 C45.0731461,42.5149672 44.6408252,42.9472881 44.6408252,43.4816954 C44.6408252,44.0161028 45.0731461,44.4484237 45.6075534,44.4484237 L52.374651,44.4484237 L52.374651,50.2487931 L45.6075534,50.2487931 C45.0731461,50.2487931 44.6408252,50.6811139 44.6408252,51.2155213 C44.6408252,51.7499287 45.0731461,52.1822495 45.6075534,52.1822495 L52.374651,52.1822495 L52.374651,57.9826189 L45.6075534,57.9826189 C45.0731461,57.9826189 44.6408252,58.4149398 44.6408252,58.9493471 C44.6408252,59.4837545 45.0731461,59.9160754 45.6075534,59.9160754 L52.374651,59.9160754 Z M54.3081075,36.7145978 C56.4441902,36.7145978 58.1750204,34.9837676 58.1750204,32.8476849 C58.1750204,30.7116022 56.4441902,28.980772 54.3081075,28.980772 L52.374651,28.980772 L52.374651,26.0805873 C52.374651,25.0775101 51.8402437,24.2198288 50.8518607,23.3134244 C50.2687303,22.7782437 49.558765,22.2469298 48.1210468,21.1989964 C45.6887586,19.3738135 44.6408252,18.0629301 44.6408252,16.413305 L44.6408252,13.5131203 C44.6408252,11.3770376 42.909995,9.64620739 40.7739123,9.64620739 C38.6378296,9.64620739 36.9069993,11.3770376 36.9069993,13.5131203 L36.9069993,16.413305 C36.9069993,18.0691171 35.8706667,19.3800006 33.4693138,21.2013166 C32.0493833,22.2500234 31.3510189,22.7813372 30.7709819,23.3165179 C29.79884,24.2229223 29.2698463,25.0806036 29.2698463,26.0805873 L29.2698463,28.980772 L27.239717,28.980772 C25.1036343,28.980772 23.3728041,30.7116022 23.3728041,32.8476849 C23.3728041,34.9837676 25.1036343,36.7145978 27.239717,36.7145978 L27.239717,61.831744 C27.239717,65.0668034 29.8406027,67.6499012 33.0462735,67.6499012 L48.501551,67.6499012 C51.7134089,67.6499012 54.3081075,65.045922 54.3081075,61.831744 L54.3081075,36.7145978 Z M50.4411946,28.980772 L31.2033028,28.980772 L31.2033028,26.0805873 C31.2033028,25.7418457 31.4693464,25.3072047 32.0888258,24.7364484 C32.5837907,24.2739656 33.1970831,23.8083893 34.6409884,22.7426681 C37.4901298,20.5764235 38.8404558,18.8664746 38.8404558,16.413305 L38.8404558,13.5131203 C38.8404558,12.4466257 39.7074177,11.5796639 40.7739123,11.5796639 C41.8404068,11.5796639 42.7073687,12.4466257 42.7073687,13.5131203 L42.7073687,16.413305 C42.7073687,18.8726616 44.0762559,20.5826105 46.9609729,22.7457616 C48.4234394,23.8114828 49.0421455,24.2770591 49.5471643,24.7395419 C50.1720574,25.3133918 50.4411946,25.7449393 50.4411946,26.0805873 L50.4411946,28.980772 Z M25.3062606,32.8476849 C25.3062606,31.7811903 26.1732225,30.9142285 27.239717,30.9142285 L54.3081075,30.9142285 C55.3746021,30.9142285 56.2415639,31.7811903 56.2415639,32.8476849 C56.2415639,33.9141795 55.3746021,34.7811414 54.3081075,34.7811414 L27.239717,34.7811414 C26.1732225,34.7811414 25.3062606,33.9141795 25.3062606,32.8476849 Z" id="Page-1" stroke="#FFFFFF" fill="#FFFFFF" transform="translate(40.773912, 38.648054) rotate(18.000000) translate(-40.773912, -38.648054) "></path>
        </g>
    </g>
</svg>