<?xml version="1.0" encoding="utf-8"?>
<!-- Generator: Adobe Illustrator 19.2.1, SVG Export Plug-In . SVG Version: 6.00 Build 0)  -->
<svg version="1.1" id="Layer_1" xmlns="http://www.w3.org/2000/svg" xmlns:xlink="http://www.w3.org/1999/xlink" x="0px" y="0px"
	 viewBox="0 0 121.1 121.1" style="enable-background:new 0 0 121.1 121.1;" xml:space="preserve">
<style type="text/css">
	.st0{fill:#562A4A;}
	.st1{fill:#FFFFFF;}
</style>
<path id="XMLID_243_" class="st0" d="M60.6,0c33.2,0,60.5,27.3,60.5,60.5c0,33.3-27.4,60.7-60.7,60.6C27.2,121,0,93.6,0,60.5
	C0.1,27.2,27.4,0,60.6,0z"/>
<g id="XMLID_202_">
	<path id="XMLID_976_" class="st1" d="M16.6,60.5c0-24.2,19.8-44,44-44s43.9,19.8,43.9,44.1c0,24.2-19.8,43.9-44.2,43.8
		C36.4,104.4,16.6,84.6,16.6,60.5z M97.2,60.5C97.2,40,81,23.9,60.6,23.9C40.1,23.9,24,40.1,24,60.5C24,81,40.3,97.2,60.7,97.1
		C81.2,97.1,97.3,80.9,97.2,60.5z"/>
	<path id="XMLID_906_" class="st1" d="M40.8,64.9c2.1-0.7,4.2-1.5,6.3-2.2c3.3-1.2,6.6-2.3,9.9-3.4c0.5-0.2,0.7-0.4,0.9-0.9
		c2.1-7.9,4.2-15.8,6.3-23.7c0-0.2,0.1-0.3,0.2-0.5c2.4,0.5,4.8,1,7.3,1.5c-0.7,2.3-1.3,4.6-1.9,6.9c-2,7-4,14.1-6,21.1
		c-0.1,0.3-0.3,0.6-0.5,0.7c-6.7,2.4-13.4,4.8-20.2,7.2C42.3,69.3,41.6,67.2,40.8,64.9z"/>
</g>
</svg>
