<?xml version="1.0" encoding="utf-8"?>
<!-- Generator: Adobe Illustrator 19.2.1, SVG Export Plug-In . SVG Version: 6.00 Build 0)  -->
<svg version="1.1" id="Layer_1" xmlns="http://www.w3.org/2000/svg" xmlns:xlink="http://www.w3.org/1999/xlink" x="0px" y="0px"
	 viewBox="0 0 121.1 121.1" style="enable-background:new 0 0 121.1 121.1;" xml:space="preserve">
<style type="text/css">
	.st0{fill:#562A4A;}
	.st1{fill:#FFFFFF;}
</style>
<path id="XMLID_129_" class="st0" d="M60.6,0c33.2,0,60.5,27.3,60.5,60.5c0,33.3-27.4,60.7-60.7,60.6C27.2,121,0,93.6,0,60.5
	C0.1,27.2,27.4,0,60.6,0z"/>
<g id="XMLID_86_">
	<path id="XMLID_881_" class="st1" d="M88.6,81.6c-0.2,1.3-0.4,2.6-0.6,3.9c-0.5,3.2-1.1,6.4-1.6,9.6c-0.1,0.4-0.2,0.5-0.6,0.6
		c-11.3,0.7-21.7-2.2-31.3-8.1C43.6,81,35.4,71.8,30.1,60.2c-2.3-5.1-3.8-10.4-4.4-15.9c-0.3-3-0.5-6.1-0.2-9.1c0-0.1,0-0.2,0-0.4
		c4.7-0.8,9.3-1.5,14-2.3c0.2,0.8,0.5,1.6,0.7,2.4c1.3,4.5,2.6,9.1,3.9,13.6c0.4,1.4,0.3,2.7-0.3,4c-0.7,1.6-1.7,2.9-2.8,4.2
		c-0.3,0.3-0.3,0.6-0.2,1c1,3.2,2.6,6.1,4.6,8.8c3.8,5,8.3,9.2,13.9,12.2c1.4,0.7,2.9,1.2,4.3,1.7c0.3,0.1,0.5,0,0.8-0.2
		c1.3-1.2,2.7-2.2,4.4-2.9c1.3-0.5,2.5-0.6,3.9-0.2c5.2,1.5,10.3,3,15.5,4.5C88.3,81.5,88.4,81.5,88.6,81.6z"/>
	<path id="XMLID_880_" class="st1" d="M86,30.2c0-2.8,2.1-4.9,4.9-4.9c2.8,0,4.9,2.1,4.9,5c0,2.8-2.1,5-4.9,5
		C88.1,35.2,86,33.1,86,30.2z"/>
	<path id="XMLID_879_" class="st1" d="M76.1,50.1c-2.9,0-5-2-5-4.9c0-2.8,2.1-5,4.9-5c2.9,0,5,2.1,5,4.9C81,47.9,78.9,50,76.1,50.1z
		"/>
	<path id="XMLID_878_" class="st1" d="M66,60c0,2.8-2.1,4.9-5,4.9c-2.8,0-5-2.2-4.9-5c0-2.8,2.2-4.9,5-4.9C64,55.1,66,57.2,66,60z"
		/>
</g>
</svg>
