<?xml version="1.0" encoding="utf-8"?>
<!-- Generator: Adobe Illustrator 19.2.1, SVG Export Plug-In . SVG Version: 6.00 Build 0)  -->
<svg version="1.1" id="Layer_1" xmlns="http://www.w3.org/2000/svg" xmlns:xlink="http://www.w3.org/1999/xlink" x="0px" y="0px"
	 viewBox="0 0 121.1 121.1" style="enable-background:new 0 0 121.1 121.1;" xml:space="preserve">
<style type="text/css">
	.st0{fill:#562A4A;}
	.st1{fill:#FFFFFF;}
</style>
<path id="XMLID_134_" class="st0" d="M60.6,0c33.2,0,60.5,27.3,60.5,60.5c0,33.3-27.4,60.7-60.7,60.6C27.2,121,0,93.6,0,60.5
	C0.1,27.3,27.4,0,60.6,0z"/>
<path id="XMLID_949_" class="st1" d="M25.8,60.5c0-19.2,15.8-35,35.3-34.8C80,25.9,95.5,41.5,95.4,60.6c-0.1,19.2-15.8,35-35.4,34.7
	C41.1,95.1,25.7,79.5,25.8,60.5z M46.7,49c-1.4,7.7-1.4,15.4,0,23.1c4.1,0,8.2,0,12.2,0c0-7.7,0-15.4,0-23.1
	C54.9,49,50.8,49,46.7,49z M62.3,49c0,7.8,0,15.4,0,23.2c4.1,0,8.1,0,12.1,0c1.4-4.2,1.4-18.9,0-23.2C70.4,49,66.4,49,62.3,49z
	 M43.4,49c-0.3,0-0.5,0-0.7,0c-3.6,0-7.2,0-10.7,0c-0.5,0-0.7,0.2-0.9,0.6c-1,2.9-1.7,5.9-1.9,9c-0.3,4.5,0.4,8.8,1.9,13.1
	c0.2,0.5,0.4,0.6,0.9,0.6c3.6,0,7.2,0,10.8,0c0.2,0,0.4,0,0.6,0C42,64.4,42,56.8,43.4,49z M77.8,49c1.4,7.8,1.4,15.4,0,23.2
	c0.3,0,0.5,0,0.7,0c3.5,0,7.1,0,10.6,0c0.6,0,0.8-0.2,1-0.7c1-2.9,1.6-5.8,1.8-8.8c0.3-4.5-0.4-8.8-1.9-13c-0.2-0.5-0.4-0.7-0.9-0.7
	c-3.6,0-7.1,0-10.7,0C78.3,49,78.1,49,77.8,49z M58.9,29.3c-0.3,0.1-0.6,0.1-0.8,0.2c-2.3,0.8-3.9,2.4-5.4,4.3
	c-2.5,3.3-4,7.2-5.1,11.2c-0.1,0.2-0.1,0.4-0.1,0.6c3.8,0,7.6,0,11.4,0C58.9,40.2,58.9,34.8,58.9,29.3z M47.5,75.5
	c0,0.1,0,0.2,0,0.3c0.8,2.9,1.7,5.6,3.1,8.3c1.3,2.5,2.9,4.7,5.3,6.4c0.9,0.6,1.8,1.1,2.9,1.3c0-5.5,0-10.9,0-16.3
	C55.1,75.5,51.3,75.5,47.5,75.5z M73.6,45.7c0-0.1,0-0.2,0-0.2c-1.1-4.2-2.6-8.2-5.3-11.7c-1.2-1.6-2.7-3-4.6-3.9
	c-0.5-0.2-1-0.3-1.5-0.5c0,5.5,0,10.9,0,16.3C66.1,45.7,69.8,45.7,73.6,45.7z M73.8,75.5c-3.9,0-7.7,0-11.5,0c0,5.4,0,10.8,0,16.3
	c1.7-0.4,3-1.3,4.2-2.4c2.6-2.5,4.3-5.5,5.5-8.8C72.7,79,73.2,77.3,73.8,75.5z M88.3,45.7C84.1,38.2,78,33.2,69.9,30.6
	c1.8,2.2,3.3,4.6,4.4,7.2c1.1,2.6,2,5.2,2.9,7.9C80.8,45.7,84.5,45.7,88.3,45.7z M51.4,90.6c-1.9-2.3-3.4-4.6-4.5-7.2
	s-2-5.2-2.9-7.9c-3.6,0-7.2,0-11,0C36.5,82.4,43.5,88.3,51.4,90.6z M77.3,75.5c-1,2.7-1.9,5.3-2.9,7.9c-1.1,2.6-2.6,5-4.4,7.1
	c8.1-2.6,14.1-7.6,18.3-15.1C84.5,75.5,80.9,75.5,77.3,75.5z M43.9,45.7c1-2.7,1.9-5.3,2.9-7.9c1.1-2.6,2.6-5,4.4-7.2
	c-8.1,2.6-14.1,7.6-18.3,15.1C36.7,45.7,40.4,45.7,43.9,45.7z"/>
</svg>
